<svg xmlns="http://www.w3.org/2000/svg" viewBox="0 0 400 300" width="391.8" height="293.85" class="illustration styles_illustrationTablet__1DWOa"><g id="_235_couple_flatline" data-name="#235_couple_flatline"><path d="M203.09,136.09s4.83,3.94,7,5,6.45-.67,7.09,1.28,1.16,5.64-5.28,7.33-9.24-3.63-15.8-6.76" fill="#fff"></path><path d="M209.54,150.5c-3.13,0-5.46-1.7-8.07-3.61a34.44,34.44,0,0,0-5.56-3.52.5.5,0,1,1,.43-.91,36,36,0,0,1,5.72,3.62c3.18,2.33,5.71,4.17,9.73,3.11,2.47-.64,4.09-1.65,4.82-3a4.53,4.53,0,0,0,.12-3.71c-.23-.69-1.36-.69-3.06-.61a8.28,8.28,0,0,1-3.77-.37c-2.22-1.05-6.92-4.88-7.12-5.05a.49.49,0,0,1-.07-.7.49.49,0,0,1,.7-.07c.05,0,4.81,3.91,6.92,4.91a7.46,7.46,0,0,0,3.29.28c1.76-.08,3.58-.17,4.06,1.3a5.55,5.55,0,0,1-.19,4.5c-.87,1.59-2.7,2.75-5.44,3.47A9.67,9.67,0,0,1,209.54,150.5Z" fill="#231f20"></path><path d="M100,144.63c0,.58-9.85,15.58-10.48,14.61S90.8,153,90.8,153s-9.34,7.79-13.24,5.46,7-7.39,10.13-13.83,6-8.57,6-8.57" fill="#fff"></path><path d="M89.57,159.78a.6.6,0,0,1-.51-.27c-.51-.8.11-3.21.71-5.06-2.8,2.09-9.22,6.39-12.47,4.44a2,2,0,0,1-1.06-1.49c-.14-1.53,1.84-3.29,4.34-5.51s5.32-4.71,6.66-7.48c3.13-6.48,6.07-8.66,6.19-8.75a.49.49,0,0,1,.7.11.5.5,0,0,1-.11.69s-2.87,2.16-5.88,8.39c-1.43,2.94-4.33,5.52-6.89,7.79-2.12,1.87-4.11,3.64-4,4.67,0,.1,0,.39.59.72,2.94,1.76,10.14-3.31,12.66-5.41a.5.5,0,0,1,.61,0,.49.49,0,0,1,.18.58,23.55,23.55,0,0,0-1.42,5.31c2.05-2,9.18-12.78,9.62-14a.5.5,0,0,1,1,.09c0,.87-9.13,14.66-10.7,15.12A.63.63,0,0,1,89.57,159.78Z" fill="#231f20"></path><path d="M142.53,167.89S130.15,207.11,107,241.64l-11.2-5.91,24.42-53Z" fill="#fff"></path><path d="M107,242.14a.46.46,0,0,1-.23-.06l-11.2-5.9a.51.51,0,0,1-.22-.65l24.41-53a.72.72,0,0,1,.18-.21l22.35-14.84a.5.5,0,0,1,.58,0,.48.48,0,0,1,.17.55c-.12.39-12.66,39.69-35.62,73.87A.51.51,0,0,1,107,242.14Zm-10.54-6.63L106.79,241c20.33-30.38,32.4-64.68,34.81-71.88l-21,14Z" fill="#231f20"></path><path d="M159.22,203.59s-1.29,35.34,4.83,51.21l10.47-1.16s5.48-57.93-.84-64.37C166.12,181.55,151,203.38,159.22,203.59Z" fill="#fff"></path><path d="M164.05,255.3a.5.5,0,0,1-.46-.32c-5.71-14.78-5-46.65-4.88-50.93a2.52,2.52,0,0,1-2.28-2c-.87-3.54,4-10.85,9.18-13.73,3.3-1.83,6.29-1.64,8.43.55,6.4,6.53,1.2,62.39,1,64.76a.49.49,0,0,1-.44.45l-10.47,1.16Zm5.81-67.18a8,8,0,0,0-3.76,1.12c-5,2.8-9.39,9.8-8.7,12.62.2.8.8,1.2,1.84,1.23a.48.48,0,0,1,.35.16.46.46,0,0,1,.13.36c0,.35-1.2,34.89,4.66,50.65l9.68-1.07c1.88-20.08,4.1-58.64-.73-63.57A4.7,4.7,0,0,0,169.86,188.12Z" fill="#231f20"></path><path d="M161.21,249.33l1.2,16,10.29-1-.37-1.7a31.35,31.35,0,0,1,3.45.36c2.09.33,16.34.94,16.34-1.69s-12.34-6-14-7.14.46-7.59.14-7.19S161.21,249.33,161.21,249.33Z" fill="#231f20"></path><path d="M162.41,265.87a.47.47,0,0,1-.32-.12.5.5,0,0,1-.18-.34l-1.19-16a.51.51,0,0,1,.44-.54c6-.69,15.86-1.91,16.81-2.24a.55.55,0,0,1,.51-.06c.39.19.34.45.12,1.39-.8,3.44-.87,5.42-.22,5.86a28.32,28.32,0,0,0,3.88,1.58c5.87,2.16,10.36,4,10.36,6a1.32,1.32,0,0,1-.52,1c-2.45,2.1-15,1.39-16.4,1.16-1.2-.18-2.16-.27-2.74-.32l.23,1.07a.45.45,0,0,1-.09.39.5.5,0,0,1-.35.21l-10.29,1Zm-.66-16.1,1.12,15.06,9.23-.91-.26-1.16a.5.5,0,0,1,.11-.42.49.49,0,0,1,.4-.18,29.57,29.57,0,0,1,3.51.37c2,.32,13.64.74,15.59-.93.17-.15.17-.24.17-.27,0-1.46-6.31-3.79-9.71-5a27.19,27.19,0,0,1-4.1-1.7c-1.35-.93-.88-3.86-.18-6.9v0C176.12,248,172.2,248.56,161.75,249.77Z" fill="#231f20"></path><path d="M109.09,240.74C108.64,240.81,95,236,95,236l-5.53,15.87s6.45,2.92,7.14,2.43a2.94,2.94,0,0,0,1-1.13,5,5,0,0,0,2.55,2.29c1.61.45,11.76,3.56,12.52,2.2s-6.5-6.32-6.46-9.6S109.09,240.74,109.09,240.74Z" fill="#231f20"></path><path d="M111.43,258.5c-1.67,0-4.84-.64-10.87-2.4l-.55-.16a5,5,0,0,1-2.43-1.85,3.72,3.72,0,0,1-.67.62c-.23.16-.93.65-7.63-2.38a.51.51,0,0,1-.27-.62l5.53-15.87a.53.53,0,0,1,.26-.29.55.55,0,0,1,.38,0c5,1.76,13.13,4.58,13.91,4.71a.48.48,0,0,1,.42.23.5.5,0,0,1,0,.55s-2.75,4-2.79,7c0,1.62,2.16,3.91,3.91,5.75s3,3.16,2.49,4.09C112.9,258.26,112.44,258.5,111.43,258.5Zm-13.84-5.82a.51.51,0,0,1,.44.26,4.44,4.44,0,0,0,2.25,2l.56.16c9.69,2.83,11.18,2.43,11.41,2.25,0-.38-1.41-1.89-2.36-2.9-2-2.07-4.21-4.42-4.18-6.44,0-2.67,1.78-5.74,2.58-7-1.28-.37-4.52-1.42-13-4.4l-5.22,15c2.69,1.2,5.77,2.36,6.31,2.26a2.46,2.46,0,0,0,.72-.88.49.49,0,0,1,.44-.3Z" fill="#231f20"></path><path d="M168.09,42.72C160,32.13,145.86,36.94,141.45,48c-1.88,4.71-3.08,9.89-6.44,13.69s-8,5.48-12.39,7.61a76.2,76.2,0,0,0-12.08,7.32c-3.59,2.66-7.1,5.84-8.52,10.08a17.13,17.13,0,0,0,.85,11.88c5,12.06,21.45,9.74,31.32,6.45,5.9-2,10.42-4.84,15.27-8.49,7.1-5.35,13.89-8.74,18.9-16.59,2.13-3.34,3.85-7.32,3-11.19-.35-1.56-1.09-3-1.38-4.58-.54-2.87.48-5.76,1.17-8.58C172.31,50.92,171,46.55,168.09,42.72Z" fill="#fff"></path><path d="M119.45,108.19c-7.55,0-14.19-2.53-17-9.39a17.58,17.58,0,0,1-.88-12.23c1.55-4.59,5.47-7.92,8.71-10.32a75.88,75.88,0,0,1,12.15-7.36l2.12-1c3.67-1.72,7.46-3.49,10.12-6.49,2.49-2.81,3.8-6.5,5.06-10.06.41-1.15.83-2.34,1.29-3.48,2.42-6.1,7.86-10.57,13.86-11.39,5.29-.74,10.13,1.38,13.63,6h0c3.23,4.22,4.29,8.7,3.16,13.33-.12.46-.24.93-.37,1.4-.6,2.3-1.23,4.68-.81,7a16.11,16.11,0,0,0,.7,2.35,16.32,16.32,0,0,1,.68,2.22c.75,3.38-.25,7.16-3.06,11.57-3.9,6.1-8.86,9.56-14.12,13.22-1.6,1.11-3.25,2.26-4.9,3.5-4.91,3.7-9.41,6.57-15.41,8.57A48.45,48.45,0,0,1,119.45,108.19Zm37.41-70.88a13.41,13.41,0,0,0-1.88.13c-5.64.78-10.77,5-13.07,10.77-.45,1.13-.87,2.31-1.27,3.45-1.3,3.65-2.64,7.43-5.26,10.39-2.79,3.15-6.68,5-10.44,6.73-.71.33-1.41.66-2.1,1a75.48,75.48,0,0,0-12,7.27c-3.12,2.31-6.89,5.52-8.35,9.84a16.59,16.59,0,0,0,.84,11.53c4.41,10.62,18.75,10.15,30.7,6.17,5.88-2,10.3-4.78,15.13-8.41,1.67-1.26,3.33-2.41,4.93-3.53,5.17-3.6,10.06-7,13.85-12.94,2.66-4.17,3.62-7.71,2.93-10.82a16.26,16.26,0,0,0-.65-2.1,17,17,0,0,1-.73-2.49c-.47-2.51.19-5,.82-7.4.12-.47.25-.93.36-1.39,1.06-4.32.06-8.52-3-12.49A13.48,13.48,0,0,0,156.86,37.31Z" fill="#231f20"></path><path d="M172,72.25c-.06-1-29.84-10.46-39.61-1.34s-3.49,59.48-3.49,59.48,14.42,4.52,25.93.91,13-7.89,13-7.89A180.56,180.56,0,0,0,172,72.25Z" fill="#7aadf7"></path><path d="M167.77,123.41l21.52,95.85c.11,0-15.94,8.21-42,8.44-36.21.33-51.5-24.4-51.5-24.4l32-84.49S154.78,131.3,167.77,123.41Z" fill="#231f20"></path><path d="M146.55,228.21c-35.57,0-51.06-24.4-51.21-24.65a.49.49,0,0,1,0-.44l32-84.48a.5.5,0,0,1,.28-.29.48.48,0,0,1,.39,0c.27.12,27,12.29,39.59,4.63a.45.45,0,0,1,.45,0,.5.5,0,0,1,.29.34l21.52,95.85a.58.58,0,0,1,0,.32c-.21.45-16.75,8.5-42.49,8.73Zm-50.23-25a51.11,51.11,0,0,0,12,12c7.55,5.55,20.44,12.11,39,12,23.72-.22,39.13-7.1,41.48-8.22l-21.29-94.81c-5.52,3-13.82,3.14-24.69.37A100.26,100.26,0,0,1,128,119.48Z" fill="#231f20"></path><path d="M159.19,69.39l-.29,8.24s-1.19,3.73-6.66,2.25-6.19-5.28-6.19-5.28l1.09-15.35s8.74-4.36,7.77-13.25a11.3,11.3,0,0,0,11.37,6.23,97.18,97.18,0,0,1-.87,12.16C164.64,68.64,159.19,69.39,159.19,69.39Z" fill="#fff"></path><path d="M154.6,80.73a9.7,9.7,0,0,1-2.49-.36c-5.71-1.54-6.52-5.51-6.55-5.68a.53.53,0,0,1,0-.13l1.09-15.34a.48.48,0,0,1,.27-.41c.09-.05,8.43-4.32,7.51-12.76a.5.5,0,0,1,1-.26,10.69,10.69,0,0,0,10.86,5.94.56.56,0,0,1,.39.13.53.53,0,0,1,.16.38,95.19,95.19,0,0,1-.88,12.24c-.7,3.88-4.87,5-6.23,5.33l-.27,7.84a.59.59,0,0,1,0,.13A4.8,4.8,0,0,1,154.6,80.73Zm-8-6.17c.12.47,1,3.55,5.82,4.84,4.6,1.24,5.86-1.42,6-1.87l.28-8.16a.49.49,0,0,1,.43-.47s5.1-.77,5.8-4.6a92.49,92.49,0,0,0,.85-11.53,11.58,11.58,0,0,1-10.29-4.91c-.29,7-6.51,10.94-7.86,11.7Zm12.35,3.07h0Z" fill="#231f20"></path><path d="M149.75,58.88a4.27,4.27,0,0,0-4.36-3.11c-2.4.31-2.45,3-1.75,4.78A4.37,4.37,0,0,0,149.35,63" fill="#fff"></path><path d="M147.69,63.8a5.08,5.08,0,0,1-4.47-7.2,2.71,2.71,0,0,1,2.11-1.32,4.74,4.74,0,0,1,4.91,3.49.5.5,0,0,1-1,.22,3.78,3.78,0,0,0-3.81-2.72,1.75,1.75,0,0,0-1.37.83,4.06,4.06,0,0,0,0,3.26,3.87,3.87,0,0,0,5.06,2.15.49.49,0,0,1,.65.27.49.49,0,0,1-.27.65A4.74,4.74,0,0,1,147.69,63.8Z" fill="#231f20"></path><path d="M159.22,56.07s2.93,4.28,2.25,5-2.6.28-2.6.28" fill="#fff"></path><path d="M160.1,62a5.82,5.82,0,0,1-1.35-.17.5.5,0,0,1-.37-.6.51.51,0,0,1,.61-.37c.66.17,1.79.24,2.11-.12.09-.39-1-2.48-2.29-4.42a.51.51,0,0,1,.13-.7.52.52,0,0,1,.7.13c1.43,2.1,3,4.79,2.2,5.66A2.33,2.33,0,0,1,160.1,62Z" fill="#231f20"></path><ellipse cx="156.84" cy="53.77" rx="0.67" ry="1.56" fill="#231f20"></ellipse><ellipse cx="163.63" cy="54.94" rx="0.67" ry="1.56" fill="#231f20"></ellipse><path d="M159.19,69.39a10.15,10.15,0,0,1-6.8-2.08s1.2,5.84,6.65,6.54Z" fill="#231f20"></path><path d="M159,74.35H159c-5.73-.74-7.06-6.88-7.07-6.94a.49.49,0,0,1,.21-.52.5.5,0,0,1,.56,0,9.89,9.89,0,0,0,6.45,2,.49.49,0,0,1,.4.12.52.52,0,0,1,.17.39l-.15,4.46a.5.5,0,0,1-.18.36A.49.49,0,0,1,159,74.35Zm-5.77-5.9a7.41,7.41,0,0,0,5.28,4.81l.12-3.33A10.69,10.69,0,0,1,153.27,68.45Z" fill="#231f20"></path><path d="M159.06,65.64a4.55,4.55,0,0,1-2.8-.87c-2.46-1.82-2.37-5.82-2.37-6a.53.53,0,0,1,.52-.48.49.49,0,0,1,.48.51s-.07,3.65,2,5.16c1.08.8,2.62.88,4.56.24a.5.5,0,0,1,.63.31.49.49,0,0,1-.32.63A8.33,8.33,0,0,1,159.06,65.64Z" fill="#231f20"></path><path d="M172,251.33a.51.51,0,0,1-.5-.49.52.52,0,0,1,.49-.51l3.34-.05a.51.51,0,0,1,.51.49.5.5,0,0,1-.49.51l-3.34.05Z" fill="#231f20"></path><path d="M172.07,254.68l-.21-1,3.69-.81a.5.5,0,1,1,.22,1Z" fill="#231f20"></path><path d="M132.34,70.91s-35.13,53.51-42.86,69.94l11.62,6.7,35.52-49.86S138,74.12,132.34,70.91Z" fill="#7aadf7"></path><path d="M172,72.25c1.49,4.37,14.77,44.78,18,48.7,2.67,3.26,16,14.66,16,14.66l-9.17,11.33s-14-7.67-20.15-16.62c-3.32-4.84-6-14.5-7.25-18.33C165.9,101.07,172,72.25,172,72.25Z" fill="#7aadf7"></path><path d="M108.61,137.51a.52.52,0,0,1-.29-.09.51.51,0,0,1-.12-.7l25.93-36.39a.49.49,0,0,1,.69-.12.5.5,0,0,1,.12.7L109,137.3A.49.49,0,0,1,108.61,137.51Z" fill="#231f20"></path><path d="M168.75,121h-.08a.49.49,0,0,1-.41-.57c.05-.3,4.88-30.07,2.56-44.86a.5.5,0,0,1,1-.15c2.34,14.94-2.52,44.87-2.57,45.17A.49.49,0,0,1,168.75,121Z" fill="#231f20"></path><path d="M226.06,93.52s-11.71,10.93-12.75,14.13-4.92,35.89-4.92,35.89-.12,5.68-1.37,8.07,4.37,4.53,8.45,1.94,2.3-9.71,2.3-9.71,7.81-32.55,8.36-32.27,9.38-8.09,9.38-8.09Z" fill="#fff"></path><path d="M211.3,155.22a6.36,6.36,0,0,1-4.18-1.34,2,2,0,0,1-.55-2.51c1.19-2.25,1.32-7.79,1.32-7.84.16-1.39,3.9-32.83,4.94-36s12.41-13.89,12.89-14.34a.5.5,0,0,1,.7,0l9.46,9.95a.49.49,0,0,1,.13.36.51.51,0,0,1-.15.35c-6.52,6.17-8.62,7.79-9.42,8.14-.81,1.81-5.27,19.83-8.15,31.86.23,1,1.53,7.54-2.55,10.13A8.36,8.36,0,0,1,211.3,155.22Zm14.74-61c-3.46,3.26-11.47,11.15-12.26,13.58-1,3.12-4.86,35.47-4.89,35.8s-.14,5.78-1.43,8.24a1,1,0,0,0,.34,1.3c1.26,1.16,4.68,1.71,7.4,0,3.73-2.36,2.11-9.1,2.09-9.17a.49.49,0,0,1,0-.24c7.71-32.19,8.32-32.47,8.61-32.61a.54.54,0,0,1,.22,0c.84-.39,5.42-4.54,8.69-7.61Zm.28,16.88,0,0Z" fill="#231f20"></path><path d="M220.48,226.61l-7.27,9.89,11.92,7.39L233.3,233Z" fill="#fff"></path><path d="M225.13,244.39a.54.54,0,0,1-.27-.07L213,236.93a.55.55,0,0,1-.23-.33.57.57,0,0,1,.09-.4l7.27-9.89a.52.52,0,0,1,.63-.15l12.81,6.43a.5.5,0,0,1,.26.34.47.47,0,0,1-.09.41l-8.16,10.85A.51.51,0,0,1,225.13,244.39Zm-11.19-8L225,243.23l7.54-10-11.91-6C219.49,228.8,215.15,234.7,213.94,236.36Z" fill="#231f20"></path><path d="M213.21,236.5s-6.2,8-5.94,8.5,28,21.48,28.25,19.61-10.39-20.72-10.39-20.72Z" fill="#231f20"></path><path d="M235.33,265.23c-.58,0-2.64-.7-15-9.65-4.47-3.25-13.31-9.85-13.56-10.35-.16-.32-.4-.8,6-9a.5.5,0,0,1,.66-.11l11.91,7.39a.42.42,0,0,1,.17.18c1.79,3.17,10.71,19.09,10.45,21a.64.64,0,0,1-.53.54Zm-27.51-20.38c2.36,2.14,23.52,17.86,27.14,19.28-.63-2.29-5.52-11.58-10.2-19.88l-11.43-7.09A84.5,84.5,0,0,0,207.82,244.85Z" fill="#231f20"></path><path d="M299.1,246.43c.39.78,5.07,9.74,5.07,9.74L316.63,250l-6-12.17Z" fill="#fff"></path><path d="M304.17,256.67a.51.51,0,0,1-.45-.27c-.19-.36-4.68-9-5.06-9.74a.51.51,0,0,1,.14-.63l11.49-8.57a.49.49,0,0,1,.42-.08.51.51,0,0,1,.33.26l6,12.17a.46.46,0,0,1,0,.38.48.48,0,0,1-.25.29l-12.46,6.14A.59.59,0,0,1,304.17,256.67Zm-4.43-10.09c.83,1.61,3.8,7.3,4.64,8.93L316,249.8l-5.55-11.18Z" fill="#231f20"></path><path d="M248.08,154.51s-6.39,36.22-8.84,42.84-25.12,31.78-25.12,31.78,16.63,11.33,17.2,11.41,28.17-20.25,32.23-29.16,14.38-43.14,14.38-43.14Z" fill="#231f20"></path><path d="M231.26,241h0c-.56-.08-9.77-6.29-17.4-11.49a.47.47,0,0,1-.21-.35.48.48,0,0,1,.12-.4c.23-.25,22.62-25.15,25-31.61s8.75-42.39,8.81-42.75a.56.56,0,0,1,.26-.36.52.52,0,0,1,.44,0l29.86,13.73a.49.49,0,0,1,.27.59c-.1.35-10.38,34.37-14.41,43.2C260.2,219.93,232.78,241,231.26,241Zm-16.39-12c6.16,4.19,15,10.17,16.45,11,2.39-1.42,28-20.48,31.78-28.82s13-38.73,14.23-42.66l-28.88-13.27c-.89,5-6.45,36.1-8.75,42.29S218,225.6,214.87,229Z" fill="#231f20"></path><path d="M239.31,139.63s-1,6.17,4.09,20.07,53,90.33,53,90.33l20.25-7.58L274.86,139.63Z" fill="#231f20"></path><path d="M296.38,250.53a.52.52,0,0,1-.43-.24c-1.95-3.12-48-76.64-53-90.42s-4.15-20.06-4.11-20.32a.5.5,0,0,1,.49-.42h35.55a.49.49,0,0,1,.46.31l41.77,102.83a.5.5,0,0,1,0,.38.53.53,0,0,1-.28.27l-20.26,7.58Zm-56.62-110.4c-.1,1.6-.11,7.81,4.11,19.4,4.81,13.21,49.21,84.29,52.71,89.89l19.4-7.25-41.45-102Z" fill="#231f20"></path><path d="M291.12,99.19s9.35,42.46,13.44,46,8.95,10.71,9.15,13.63-3.9,5.06-5.84,3.51-5.45-6.38-5.45-6.38.58,6.94-.79,5.2-3.39-11.25-3.39-11.25-21.51-43.45-28-53Z" fill="#fff"></path><path d="M309.49,163.32a3.09,3.09,0,0,1-1.94-.63,36.49,36.49,0,0,1-4.53-5.13c.18,3.93-.5,4.19-.75,4.29s-.62.1-1-.43c-1.37-1.74-3.21-10.14-3.47-11.38-.89-1.79-21.65-43.63-28-52.88a.5.5,0,0,1,0-.54.5.5,0,0,1,.48-.24l20.92,2.32a.51.51,0,0,1,.44.39c2.59,11.76,10,42.9,13.27,45.69,4.24,3.64,9.13,10.95,9.33,14a4.36,4.36,0,0,1-2.54,4A4.76,4.76,0,0,1,309.49,163.32Zm-7.07-7.9a.51.51,0,0,1,.4.2s3.49,4.79,5.36,6.29a2.84,2.84,0,0,0,3,0,3.41,3.41,0,0,0,2-3c-.18-2.77-5-9.84-9-13.28S291.67,104,290.71,99.65l-19.5-2.16c7.09,11,27.27,51.74,27.48,52.16a.56.56,0,0,1,0,.12c.54,2.53,2.13,9.23,3.19,10.89a22.56,22.56,0,0,0,0-4.7.5.5,0,0,1,.32-.51Z" fill="#231f20"></path><path d="M285.34,72.8s-30-1.93-39.31,1.57-26.58,23.85-26.58,23.85l12.42,12.24,8.37-7.21S236.7,115,228.45,141.77l51.14,1.53,3.54-40.37,9.64-1.14S291.34,79.23,285.34,72.8Z" fill="#7aadf7"></path><polygon points="262.23 75.04 252.94 143.93 266.75 145.57 274.86 72.17 262.23 75.04" fill="#231f20"></polygon><path d="M266.75,146.07h-.06l-13.81-1.64a.45.45,0,0,1-.33-.19.49.49,0,0,1-.1-.37L261.74,75a.5.5,0,0,1,.38-.42l12.63-2.86a.5.5,0,0,1,.44.11.54.54,0,0,1,.17.43l-8.12,73.39a.5.5,0,0,1-.18.34A.51.51,0,0,1,266.75,146.07Zm-13.25-2.58L266.31,145l8-72.2-11.61,2.64Z" fill="#231f20"></path><path d="M275.27,66.11a6.17,6.17,0,0,0,3.35-.23,1.93,1.93,0,0,0,.95-.62.86.86,0,0,0,0-1.06c-.44-.46-1.41-.16-1.7-.73,2.7-2.87,4.05-7.64,4.14-11.49a26.78,26.78,0,0,0-3.17-13A7.43,7.43,0,0,0,276,35.7a3.2,3.2,0,0,0-4,.55c-2.39-2.35-6-3.08-9.35-2.61-3.08.44-5.68,1.84-8.45,3.12a26.68,26.68,0,0,1-8.34,1.92.73.73,0,0,0-.84.94,10.62,10.62,0,0,0,4.25,7,3.13,3.13,0,0,1-1.93-.23c.27,2.54,3.13,3.88,5.62,4.48,1.81.44,4,.82,5.42,2.11,1.6,1.42,2.75,3.59,4.22,5.2A20.9,20.9,0,0,0,271.13,64c1.21.43,1.51,1,2.57,1.59A6.12,6.12,0,0,0,275.27,66.11Z" fill="#fff"></path><path d="M276.55,66.74a7.18,7.18,0,0,1-1.38-.14h0a6.63,6.63,0,0,1-1.7-.61,7.51,7.51,0,0,1-1.14-.75,4.17,4.17,0,0,0-1.37-.81,21.42,21.42,0,0,1-8.66-5.88,26.63,26.63,0,0,1-1.77-2.28,18.11,18.11,0,0,0-2.41-2.89,10.43,10.43,0,0,0-4.55-1.84l-.66-.15c-2.1-.51-5.67-1.83-6-4.92a.49.49,0,0,1,.21-.46.47.47,0,0,1,.5,0l.24.09a11.21,11.21,0,0,1-3.27-6.37,1.19,1.19,0,0,1,1.27-1.5,26.66,26.66,0,0,0,8.19-1.88l1.2-.57a25.19,25.19,0,0,1,7.39-2.59,11.8,11.8,0,0,1,9.4,2.4,3.86,3.86,0,0,1,4.23-.29,8,8,0,0,1,3,3.45A27.19,27.19,0,0,1,282.52,52c-.07,3.28-1.14,8.13-3.87,11.38l.17,0a1.82,1.82,0,0,1,1.12.45,1.37,1.37,0,0,1,0,1.71,2.45,2.45,0,0,1-1.19.79A6.56,6.56,0,0,1,276.55,66.74Zm-1.18-1.12a5.75,5.75,0,0,0,3.08-.21,1.48,1.48,0,0,0,.72-.44.39.39,0,0,0,.05-.42,1.23,1.23,0,0,0-.55-.17,1.46,1.46,0,0,1-1.23-.68.5.5,0,0,1,.08-.57c2.84-3,3.93-7.9,4-11.16a26.09,26.09,0,0,0-3.11-12.79,7.11,7.11,0,0,0-2.61-3,2.72,2.72,0,0,0-3.33.42.51.51,0,0,1-.75,0,10.56,10.56,0,0,0-8.93-2.47,24.37,24.37,0,0,0-7.1,2.51l-1.21.57a27.41,27.41,0,0,1-8.5,2,.93.93,0,0,0-.4.09.61.61,0,0,0,0,.28,10.11,10.11,0,0,0,4,6.69.51.51,0,0,1,.2.51.49.49,0,0,1-.39.39,3.55,3.55,0,0,1-1.34,0c.76,1.93,3.41,2.86,5,3.26l.65.15a11.27,11.27,0,0,1,5,2.06,18.55,18.55,0,0,1,2.56,3.06,25,25,0,0,0,1.7,2.19,20.51,20.51,0,0,0,8.25,5.61,5.19,5.19,0,0,1,1.66,1,6.42,6.42,0,0,0,1,.66,5.87,5.87,0,0,0,1.44.51Z" fill="#231f20"></path><path d="M254.22,53.25s-3.71,6.12-2.85,7.33,3.55.28,3.55.28" fill="#fff"></path><path d="M253,61.7a2.36,2.36,0,0,1-2-.83c-1-1.33,1.66-5.95,2.82-7.88a.5.5,0,1,1,.86.52c-1.89,3.11-3.23,6.28-2.87,6.77.53.74,2.37.31,3,.1a.5.5,0,1,1,.33.95A7.05,7.05,0,0,1,253,61.7Z" fill="#231f20"></path><path d="M254.76,45.33c-2.43,2.15-1.54,6.45-1.4,9.27q.27,5.94.82,11.87c.23,2.5,6.73,2.31,7.85,1.51l-.28,8.33s1.7,4.53,6.86,1.9,6.25-6,6.25-6L274,60.74s-4.3.19-7-4.83S264,43,264,43,257.13,43.24,254.76,45.33Z" fill="#fff"></path><path d="M265.63,79.53a4.45,4.45,0,0,1-1.63-.3,5.05,5.05,0,0,1-2.71-2.74.48.48,0,0,1,0-.2l.26-7.56a11.09,11.09,0,0,1-6.29-.37,2.28,2.28,0,0,1-1.54-1.85c-.36-3.94-.64-7.94-.82-11.89,0-.47-.07-1-.11-1.51-.24-2.76-.53-6.2,1.68-8.15h0c2.48-2.19,9.28-2.43,9.57-2.44a.45.45,0,0,1,.36.14.52.52,0,0,1,.16.35c0,.08.22,7.81,2.87,12.66,2.55,4.67,6.42,4.57,6.57,4.57a.48.48,0,0,1,.53.46l.87,11.44a.62.62,0,0,1,0,.19c0,.15-1.23,3.63-6.5,6.32A7.08,7.08,0,0,1,265.63,79.53Zm-3.37-3.31a4.13,4.13,0,0,0,2.11,2.09,4.91,4.91,0,0,0,4-.55c4.44-2.26,5.76-5.13,6-5.66l-.83-10.88c-1.26-.1-4.67-.78-7-5.07s-2.88-10.75-3-12.6c-1.6.09-6.59.52-8.45,2.16h0c-1.83,1.62-1.56,4.77-1.35,7.31,0,.55.09,1.08.11,1.56.19,3.93.46,7.91.83,11.84,0,.41.36.76.95,1,1.92.88,5.5.55,6.12.11a.5.5,0,0,1,.78.43Z" fill="#231f20"></path><path d="M254.16,63.51s3.14,1.77,4.66-1.47" fill="#fff"></path><path d="M256.05,64.49a5,5,0,0,1-2.14-.54.51.51,0,0,1-.19-.68.5.5,0,0,1,.68-.2,3.45,3.45,0,0,0,2.4.31,2.66,2.66,0,0,0,1.56-1.55.5.5,0,0,1,.67-.24.49.49,0,0,1,.24.66,3.62,3.62,0,0,1-2.17,2.08A3.27,3.27,0,0,1,256.05,64.49Z" fill="#231f20"></path><path d="M261.92,55.5a5.45,5.45,0,0,1,1-2.76,7.92,7.92,0,0,1,1.37-1.86,2.62,2.62,0,0,1,2.11-.73,2.41,2.41,0,0,1,1.6,1.17,4.41,4.41,0,0,1,.57,2A8.48,8.48,0,0,1,264.94,61l.21-.25" fill="#fff"></path><path d="M264.94,61.46a.5.5,0,0,1-.37-.17.5.5,0,0,1,0-.66l.21-.24a.47.47,0,0,1,.34-.17,8.1,8.1,0,0,0,3-6.91,4.17,4.17,0,0,0-.5-1.73,1.92,1.92,0,0,0-1.26-.94,2.12,2.12,0,0,0-1.69.61A7.15,7.15,0,0,0,263.36,53a5,5,0,0,0-.94,2.5.51.51,0,0,1-.49.51.48.48,0,0,1-.51-.49,5.73,5.73,0,0,1,1.08-3,7.86,7.86,0,0,1,1.46-2,3.08,3.08,0,0,1,2.52-.85,2.88,2.88,0,0,1,1.95,1.4,5,5,0,0,1,.64,2.16,9,9,0,0,1-3.85,8.15A.47.47,0,0,1,264.94,61.46Z" fill="#231f20"></path><path d="M262,68s3.34-1.17,4.82-3.55c0,0,0,6-5.1,8Z" fill="#231f20"></path><path d="M261.75,72.92a.45.45,0,0,1-.29-.1.49.49,0,0,1-.21-.43l.29-4.44a.5.5,0,0,1,.33-.44s3.18-1.15,4.55-3.34a.5.5,0,0,1,.93.26c0,.07-.06,6.41-5.42,8.46A.57.57,0,0,1,261.75,72.92Zm.76-4.59-.21,3.3a7.85,7.85,0,0,0,3.85-5.58A12.2,12.2,0,0,1,262.51,68.33Z" fill="#231f20"></path><ellipse cx="256.37" cy="50.42" rx="0.56" ry="1.42" transform="translate(-4.89 53.54) rotate(-11.81)" fill="#231f20"></ellipse><path d="M267.05,202.65a.46.46,0,0,1-.39-.22c-.82-1.44-20.13-35.06-20.33-35.43a.45.45,0,0,1,.19-.6.44.44,0,0,1,.6.19c.29.54,20.11,35,20.31,35.39a.45.45,0,0,1-.16.61A.46.46,0,0,1,267.05,202.65Z" fill="#fff"></path><path d="M304.17,256.17s4.86,10.32,5.45,10.32,31.75-15.4,30.19-16.46-23.18,0-23.18,0Z" fill="#231f20"></path><path d="M309.62,267c-.36,0-.9,0-5.9-10.61a.48.48,0,0,1,.23-.65l12.46-6.15a.65.65,0,0,1,.2-.05c3.64-.18,21.86-1,23.48.09a.63.63,0,0,1,.24.72c-.12.4-.45,1.46-15.38,9.17C320,262.05,310.18,267,309.62,267Zm-4.79-10.59a102.55,102.55,0,0,0,4.91,9.53c3-1.17,26.5-13,29.38-15.62-2.33-.46-12.84-.26-22.36.21Z" fill="#231f20"></path><path d="M280.75,123.43h-.07a.49.49,0,0,1-.43-.55c1.54-13,3.49-37.9,3.51-38.15a.5.5,0,0,1,1,.07c0,.25-2,25.22-3.52,38.2A.5.5,0,0,1,280.75,123.43Z" fill="#231f20"></path><path d="M231.87,111a.48.48,0,0,1-.38-.17.49.49,0,0,1,0-.7l19.37-17a.5.5,0,0,1,.66.76L232.2,110.84A.52.52,0,0,1,231.87,111Z" fill="#231f20"></path><path d="M213.11,149.26a3.7,3.7,0,0,0-.36,2.82,2.86,2.86,0,0,0,2.36,1.59c3.74.46,7.36-4.24,5.84-7.75C218.76,140.89,214.28,146.64,213.11,149.26Z" fill="#fff"></path><path d="M215.62,154.2a5.44,5.44,0,0,1-.57,0,3.36,3.36,0,0,1-2.76-1.91,4.26,4.26,0,0,1,.36-3.21h0c.88-2,3.54-5.62,6-5.62h0c1.17,0,2.1.78,2.76,2.3a5.91,5.91,0,0,1-1,5.81A6.17,6.17,0,0,1,215.62,154.2Zm3-9.77c-1.88,0-4.26,3.22-5.07,5h0a3.16,3.16,0,0,0-.36,2.43,2.38,2.38,0,0,0,2,1.28,5,5,0,0,0,4.46-2.23,4.94,4.94,0,0,0,.86-4.82c-.49-1.12-1.11-1.69-1.84-1.69Zm-5.53,4.83h0Z" fill="#231f20"></path></g></svg>