<svg xmlns="http://www.w3.org/2000/svg" viewBox="0 0 400 300" width="406" height="306" class="illustration styles_illustrationTablet__1DWOa"><g id="_47_running" data-name="#47_running"><path d="M349.77,237.34H40.52a.5.5,0,0,1,0-1H349.77a.5.5,0,0,1,0,1Z" fill="#d1d3d4"></path><path d="M215.27,261.87h-8.41a.5.5,0,0,1-.5-.5.5.5,0,0,1,.5-.5h8.41a.5.5,0,0,1,.5.5A.5.5,0,0,1,215.27,261.87Z" fill="#d1d3d4"></path><path d="M176.82,165.74c.19.58-8.92,9.45-11.38,23.42,0,0-5.11-3.4-14.71-2.38-12.78,1.37-24.33,3.57-24.33,3.57l.73,12.08s45.3,3.71,50.59,0,17.69-31.83,17.69-31.83" fill="#fff"></path><path d="M162,204.57c-14.58,0-33.7-1.54-34.92-1.64a.5.5,0,0,1-.46-.47l-.73-12.08a.5.5,0,0,1,.41-.52c.11,0,11.71-2.22,24.37-3.57,7.85-.84,12.73,1.21,14.4,2.08,2.06-10.66,7.82-18.16,10.3-21.4.43-.56.84-1.09.94-1.28a.52.52,0,0,1,.34-.43.51.51,0,0,1,.63.32c.13.38-.09.66-1.11,2-2.5,3.25-8.35,10.87-10.25,21.66a.52.52,0,0,1-.29.38.51.51,0,0,1-.48-.05s-5.1-3.28-14.38-2.29c-11.24,1.2-21.64,3.07-23.86,3.48l.68,11.2c15.74,1.28,45.81,2.88,49.83.06,5.11-3.59,17.4-31.34,17.52-31.62a.5.5,0,0,1,.66-.25.49.49,0,0,1,.25.66c-.5,1.15-12.52,28.28-17.86,32C176.15,204.14,169.71,204.57,162,204.57Zm14.33-38.67h0Z" fill="#231f20"></path><polygon points="184.13 143.2 172.07 169.08 195.06 180.86 207.66 161.06 184.13 143.2" fill="#231f20"></polygon><path d="M195.06,181.36a.59.59,0,0,1-.22-.05l-23-11.79a.5.5,0,0,1-.23-.65L183.68,143a.49.49,0,0,1,.33-.27.5.5,0,0,1,.43.08L208,160.66a.5.5,0,0,1,.12.66l-12.6,19.81A.48.48,0,0,1,195.06,181.36Zm-22.33-12.51,22.16,11.36,12.1-19L184.32,144Z" fill="#231f20"></path><path d="M204.89,176.57s17,14.64,21.4,17.86c0,0-1.56,12,3.31,21.66s13,27,13,27l14.79-1.56s-13.24-44.5-16.16-53.28-16.69-30.15-16.69-30.15Z" fill="#fff"></path><path d="M242.59,243.62a.49.49,0,0,1-.45-.29c-.08-.17-8.16-17.47-13-27-4.47-8.84-3.6-19.73-3.4-21.65-4.7-3.52-21-17.57-21.2-17.71a.48.48,0,0,1-.17-.37.44.44,0,0,1,.16-.37l19.64-18.45a.5.5,0,0,1,.76.1c.56.87,13.83,21.52,16.74,30.26s16,52.85,16.17,53.29a.48.48,0,0,1-.06.42.47.47,0,0,1-.36.22l-14.8,1.57Zm-37-67.07c2.65,2.28,17,14.58,20.94,17.47a.49.49,0,0,1,.2.47c0,.12-1.48,12,3.27,21.37,4.46,8.84,11.71,24.3,12.84,26.73l13.84-1.47c-1.56-5.25-13.28-44.55-16-52.68-2.62-7.88-14.21-26.25-16.31-29.54Z" fill="#231f20"></path><path d="M219.93,88.2l9.23,23.62s7.31-5.27,23.12-8.2c0,0-.88-5,1.76-7s4.81-3.22,5.11-2.64,1.33,2.34,1.33,2.34,2.5-2.92,4-2.34,2.77,7.52,2.76,9.37-35.13,31-41.57,26.93-15.84-23.42-15.84-23.42" fill="#fff"></path><path d="M227.26,131.15a3.36,3.36,0,0,1-1.89-.47c-6.48-4.12-15.64-22.83-16-23.62a.5.5,0,1,1,.9-.44c.09.19,9.41,19.24,15.66,23.22.78.49,2.25.4,4.25-.27,11.38-3.82,35.83-24.35,36.56-26.32,0-2-1.4-8.4-2.46-8.82-.77-.31-2.49,1.13-3.4,2.2a.5.5,0,0,1-.43.17.47.47,0,0,1-.38-.24c0-.07-.93-1.57-1.29-2.25-.42,0-1.88.71-4.42,2.68-2.36,1.84-1.57,6.5-1.57,6.55a.49.49,0,0,1-.4.57c-15.49,2.87-22.85,8.06-22.92,8.12a.57.57,0,0,1-.44.07.53.53,0,0,1-.32-.3l-9.23-23.62a.5.5,0,0,1,.29-.64.48.48,0,0,1,.64.28l9,23c1.92-1.23,9.07-5.32,22.32-7.84-.15-1.36-.35-5.18,2-7,1.52-1.17,4.22-3.13,5.34-2.86a.73.73,0,0,1,.52.4c.18.35.65,1.17,1,1.73.89-.93,2.69-2.52,4.06-2,1.89.75,3.09,8.17,3.08,9.83,0,2-20,18.31-31.71,24.67C232.12,130.11,229.23,131.15,227.26,131.15Z" fill="#231f20"></path><path d="M164.17,103.92l-8.34,6.23s5.41,16.6,6.29,22.16c0,0,7.61,0,8.78,2.63a20,20,0,0,1,1.17,6.66l-2.92.41s-.3,5.23-1.76,5.81-5.85.59-7.9,0-4.69-13.75-4.69-13.75-18.15-28-17.27-32,18.8-13.87,18.8-13.87" fill="#fff"></path><path d="M163.64,148.76a17.53,17.53,0,0,1-4.29-.45c-2.15-.62-4.36-10.79-5-14.05C152.23,131,136.15,106,137,102s17.19-13.18,19.05-14.2a.5.5,0,1,1,.48.88c-4.93,2.71-17.87,10.43-18.55,13.53-.61,2.79,9.95,20.44,17.2,31.62a.45.45,0,0,1,.07.18c1.24,6.19,3.25,13.06,4.33,13.37,2,.56,6.21.57,7.58,0,.72-.29,1.31-3,1.45-5.38a.5.5,0,0,1,.43-.47l2.48-.34a18.22,18.22,0,0,0-1.11-6c-.86-1.92-6.3-2.34-8.33-2.34a.5.5,0,0,1-.49-.42c-.86-5.46-6.23-21.92-6.28-22.09a.48.48,0,0,1,.18-.55l8.34-6.23a.5.5,0,0,1,.6.8l-8.06,6c.78,2.4,5.16,16,6.13,21.49,1.77,0,7.68.36,8.82,2.92a20.11,20.11,0,0,1,1.21,6.86.51.51,0,0,1-.43.5l-2.52.35c-.11,1.46-.55,5.24-2,5.84A12.76,12.76,0,0,1,163.64,148.76Z" fill="#231f20"></path><path d="M214.87,76.74S195.12,67.33,191,67.57c-13.78.83-40,20.63-40,20.63l13,19.71,13-7.08s5.11,21.94,3.94,35.73h32.79S233.32,89.6,214.87,76.74Z" fill="#68e1fd"></path><path d="M166.51,107.34a.5.5,0,0,1-.25-.93c.11-.07,11.48-6.78,23.74-12.89a.49.49,0,0,1,.67.22.5.5,0,0,1-.22.67c-12.23,6.1-23.57,12.79-23.68,12.86A.48.48,0,0,1,166.51,107.34Z" fill="#231f20"></path><path d="M260.51,95.92a33.11,33.11,0,0,1,1.69,3.56,6.1,6.1,0,0,1,.46,3.61,2.73,2.73,0,0,1-2.62,2.17c-1.4-.11-2.29-1.57-2.66-2.94" fill="#fff"></path><path d="M260.2,105.77H260c-1.68-.13-2.71-1.79-3.11-3.31a.5.5,0,0,1,1-.26c.31,1.19,1.06,2.48,2.21,2.57a2.23,2.23,0,0,0,2.1-1.79,5.78,5.78,0,0,0-.45-3.31,34.11,34.11,0,0,0-1.66-3.51.5.5,0,1,1,.89-.46,35.19,35.19,0,0,1,1.71,3.61,6.84,6.84,0,0,1,.48,3.91A3.3,3.3,0,0,1,260.2,105.77Z" fill="#231f20"></path><path d="M181.08,136.56s-.65,10.74,1.69,19.32,22.12,20.69,22.12,20.69l24.71-14.44-15.73-25.57Z" fill="#231f20"></path><path d="M204.89,177.07a.59.59,0,0,1-.26-.07c-.82-.5-20-12.31-22.34-21s-1.71-19.37-1.71-19.48a.5.5,0,0,1,.5-.46h32.79a.5.5,0,0,1,.42.23L230,161.87a.5.5,0,0,1,.06.38.52.52,0,0,1-.23.31L205.14,177A.47.47,0,0,1,204.89,177.07Zm-23.33-40c-.09,2.15-.33,11.29,1.69,18.69,2.12,7.79,19.35,18.8,21.65,20.24l24-14-15.32-24.9Z" fill="#231f20"></path><path d="M199.24,173.25a.45.45,0,0,1-.16,0c-10.42-4.07-18.17-22.34-18.49-23.12a.44.44,0,1,1,.81-.34c.08.19,7.93,18.7,18,22.64a.44.44,0,0,1,.25.57A.43.43,0,0,1,199.24,173.25Z" fill="#fff"></path><path d="M211.07,164.42a.45.45,0,0,1-.4-.23l-11.82-22.54a.44.44,0,0,1,.18-.6.44.44,0,0,1,.6.19l11.83,22.54a.44.44,0,0,1-.19.59A.35.35,0,0,1,211.07,164.42Z" fill="#fff"></path><path d="M126.4,190.35s-11.11.1-11.5,1.27,1.9,9.33,1.76,12.46.87,17.57,4.77,18.35,5.7-20,5.7-20Z" fill="#231f20"></path><path d="M121.64,223l-.31,0c-4.65-.93-5.25-17.06-5.17-18.87a40.5,40.5,0,0,0-1-7.21c-.59-3-.91-4.73-.7-5.38.34-1,4.36-1.54,12-1.61h0a.51.51,0,0,1,.5.47l.73,12.08c-.16,1.87-1.61,17.68-4.93,20.17A1.74,1.74,0,0,1,121.64,223Zm4.29-32.1c-4.74.07-10,.45-10.6,1a33.44,33.44,0,0,0,.77,4.8,41.26,41.26,0,0,1,1.06,7.45c-.18,4.05,1.13,17.19,4.37,17.84a.67.67,0,0,0,.58-.17c2.5-1.88,4.12-14.63,4.53-19.39Z" fill="#231f20"></path><path d="M242.59,243.12s-2,7.51,0,8.68,33.66,2.25,33.07.29-18.28-10.53-18.28-10.53Z" fill="#231f20"></path><path d="M264.62,253.65c-9.29,0-21.08-.69-22.29-1.42-2.16-1.3-.56-7.92-.22-9.23a.48.48,0,0,1,.43-.37l14.79-1.57a.5.5,0,0,1,.27.05c4.2,2,17.94,8.84,18.54,10.84a.72.72,0,0,1-.28.78C275,253.39,270.28,253.65,264.62,253.65ZM243,243.58c-.73,3-1.23,7.15-.14,7.8,2.09,1.26,29.34,1.77,32.21.66-1.17-1.41-9.69-6-17.77-10Z" fill="#231f20"></path><path d="M135.86,203.49h0a.5.5,0,0,1-.48-.52l.63-13.69a.49.49,0,0,1,.52-.48.51.51,0,0,1,.48.53L136.36,203A.5.5,0,0,1,135.86,203.49Z" fill="#231f20"></path><path d="M238.5,237.07a.49.49,0,0,1-.47-.35.5.5,0,0,1,.33-.62l15.94-4.85a.5.5,0,1,1,.29.95l-15.94,4.85A.39.39,0,0,1,238.5,237.07Z" fill="#231f20"></path><path d="M186.52,132.69h-.06a.5.5,0,0,1-.44-.55c0-.21,2.2-21.67,0-31.44a.5.5,0,1,1,1-.22c2.23,9.94.1,30.88,0,31.77A.49.49,0,0,1,186.52,132.69Z" fill="#231f20"></path><path d="M161.45,125.07s-7.77,2.34-10.38,4.39l2.38,5.27s7.31-3.51,9.56-4Z" fill="#231f20"></path><path d="M153.45,135.23a.47.47,0,0,1-.17,0,.51.51,0,0,1-.29-.27l-2.37-5.26a.51.51,0,0,1,.15-.6c2.65-2.08,10.21-4.38,10.53-4.48a.5.5,0,0,1,.63.35l1.56,5.66a.49.49,0,0,1-.06.39.48.48,0,0,1-.32.23c-2.16.47-9.38,3.92-9.45,4A.54.54,0,0,1,153.45,135.23Zm-1.76-5.61,2,4.44a90.46,90.46,0,0,1,8.71-3.68l-1.3-4.68C159.45,126.22,154,128,151.69,129.62Z" fill="#231f20"></path><path d="M158.87,126.47s-4.61,1.47-4.7,1.93l-.09.46,2,3.5,4.14-1.84Z" fill="#fff"></path><path d="M196.42,63.89c-1.38-.06-2.76-.3-4.37-.44s-3.42-.68-3.45-2.18c0-1.29,1.52-2.34,1.18-3.58a2.74,2.74,0,0,0-.53-.9,13.84,13.84,0,0,1,2.38-19c-.42.14-.87-.28-.91-.72a1.73,1.73,0,0,1,.48-1.2,8.61,8.61,0,0,1,4.16-2.54,26.35,26.35,0,0,1,15.53,0c3.88,1.13,8.53,4.22,8,8.91a3.7,3.7,0,0,1-3.2,3.4c-.86,5-3.49,8.44-6.8,12.08a20.29,20.29,0,0,1-8.15,5.54A11.1,11.1,0,0,1,196.42,63.89Z" fill="#fff"></path><path d="M197,64.4h-.63c-.83,0-1.64-.14-2.5-.24-.6-.07-1.23-.15-1.89-.2-2.42-.21-3.88-1.2-3.91-2.67a3.74,3.74,0,0,1,.7-1.94c.33-.56.62-1.05.5-1.51a2.2,2.2,0,0,0-.4-.68A14.32,14.32,0,0,1,190.65,38a1.39,1.39,0,0,1-.43-.86,2.23,2.23,0,0,1,.59-1.57,9.23,9.23,0,0,1,4.39-2.69,26.93,26.93,0,0,1,15.83,0c4.54,1.33,8.89,4.76,8.38,9.44a4.31,4.31,0,0,1-3.27,3.81c-1,5.16-3.93,8.74-6.86,12a20.57,20.57,0,0,1-8.35,5.68A11.41,11.41,0,0,1,197,64.4Zm-.59-1a10.66,10.66,0,0,0,4.16-.59,19.72,19.72,0,0,0,7.94-5.41c3.63-4,5.88-7.2,6.68-11.82a.51.51,0,0,1,.47-.42,3.23,3.23,0,0,0,2.72-3c.52-4.69-4.57-7.47-7.66-8.37a25.94,25.94,0,0,0-15.24,0,8,8,0,0,0-3.92,2.37,1.28,1.28,0,0,0-.37.85.4.4,0,0,0,.17.26.56.56,0,0,1,.64.24.54.54,0,0,1-.08.65,13.34,13.34,0,0,0-2.3,18.32,3.29,3.29,0,0,1,.61,1.07,2.94,2.94,0,0,1-.6,2.29,2.94,2.94,0,0,0-.56,1.41c0,1.37,2.5,1.65,3,1.69.68.06,1.31.14,1.93.21.84.1,1.64.19,2.42.23Z" fill="#231f20"></path><path d="M217.05,53s3.58,5.89,2.75,7-3.41.28-3.41.28" fill="#fff"></path><path d="M218.25,61.11a6.75,6.75,0,0,1-2-.36.5.5,0,1,1,.33-1c.58.2,2.34.61,2.85-.09.32-.49-1-3.53-2.77-6.5a.5.5,0,1,1,.85-.52c1.13,1.85,3.65,6.31,2.73,7.61A2.32,2.32,0,0,1,218.25,61.11Z" fill="#231f20"></path><path d="M216.54,45.32c2.34,2.06,1.48,6.21,1.35,8.93-.18,3.81-.44,7.63-.79,11.43-.22,2.42-6.5,2.23-7.57,1.46l.61,9.6s-3,.71-8-1.82-5-3.74-5-3.74l.85-11s4.14.19,6.78-4.65,2.82-12.42,2.82-12.42S214.25,43.3,216.54,45.32Z" fill="#fff"></path><path d="M209,77.34a15.83,15.83,0,0,1-7.11-2c-4.73-2.41-5.24-3.72-5.24-4.18l.85-11.06a.54.54,0,0,1,.52-.46c.16,0,3.87.1,6.32-4.39,2.55-4.67,2.76-12.12,2.76-12.2a.52.52,0,0,1,.16-.35.5.5,0,0,1,.36-.13c.28,0,6.84.24,9.24,2.35,2.13,1.89,1.85,5.2,1.63,7.87-.05.51-.09,1-.11,1.46-.18,3.81-.44,7.67-.79,11.46a2.23,2.23,0,0,1-1.5,1.8,10.79,10.79,0,0,1-6,.36l.57,8.82a.5.5,0,0,1-.39.52A5.73,5.73,0,0,1,209,77.34Zm-11.34-6.2c.08.19.71,1.3,4.69,3.33a13.85,13.85,0,0,0,7.25,1.84L209,67.18a.47.47,0,0,1,.25-.47.48.48,0,0,1,.54,0,9.3,9.3,0,0,0,5.87-.12c.57-.26.87-.59.91-1,.35-3.78.62-7.62.79-11.42,0-.46.07-1,.11-1.5.21-2.44.46-5.48-1.3-7h0c-1.77-1.57-6.55-2-8.11-2.08-.09,1.81-.57,7.93-2.87,12.14s-5.52,4.79-6.75,4.89Z" fill="#231f20"></path><path d="M217.12,62.83s-3,1.71-4.49-1.41" fill="#fff"></path><path d="M215.29,63.8a3.26,3.26,0,0,1-1-.15,3.54,3.54,0,0,1-2.11-2,.5.5,0,0,1,.25-.66.49.49,0,0,1,.66.24,2.58,2.58,0,0,0,1.5,1.48,3.38,3.38,0,0,0,2.29-.29.5.5,0,0,1,.49.87A4.62,4.62,0,0,1,215.29,63.8Z" fill="#231f20"></path><path d="M209.64,55.11a5.2,5.2,0,0,0-1-2.66,7.54,7.54,0,0,0-1.32-1.79,2.5,2.5,0,0,0-2-.7,2.33,2.33,0,0,0-1.55,1.12,4.59,4.59,0,0,0-.55,1.88,8.2,8.2,0,0,0,3.5,7.41l-.2-.23" fill="#fff"></path><path d="M206.72,60.87a.5.5,0,0,1-.28-.08,8.75,8.75,0,0,1-3.71-7.88,4.73,4.73,0,0,1,.62-2.08,2.79,2.79,0,0,1,1.88-1.37,3,3,0,0,1,2.46.83,8.12,8.12,0,0,1,1.41,1.91,5.7,5.7,0,0,1,1,2.92.54.54,0,0,1-.52.49.49.49,0,0,1-.48-.51,4.74,4.74,0,0,0-.9-2.39A7.4,7.4,0,0,0,207,51a2,2,0,0,0-1.62-.59,1.84,1.84,0,0,0-1.2.89,3.93,3.93,0,0,0-.48,1.67,7.74,7.74,0,0,0,2.85,6.63.51.51,0,0,1,.33.17l.2.24a.49.49,0,0,1-.38.82Z" fill="#231f20"></path><path d="M209.53,67.14s-3.21-1.13-4.64-3.42c0,0,0,5.83,4.91,7.7Z" fill="#231f20"></path><path d="M209.8,71.92a.57.57,0,0,1-.18,0c-5.18-2-5.23-8.11-5.23-8.17a.5.5,0,0,1,.92-.26c1.32,2.11,4.35,3.2,4.38,3.21a.5.5,0,0,1,.33.44l.28,4.28a.49.49,0,0,1-.21.43A.45.45,0,0,1,209.8,71.92Zm-4.23-6.6a7.48,7.48,0,0,0,3.68,5.31l-.2-3.14A11.8,11.8,0,0,1,205.57,65.32Z" fill="#231f20"></path><ellipse cx="214.98" cy="50.22" rx="1.37" ry="0.54" transform="translate(121.83 250.37) rotate(-78.19)" fill="#231f20"></ellipse><path d="M226.43,116.89h0a.5.5,0,0,1-.46-.53c.21-2.72,2.8-4.84,2.91-4.93a.5.5,0,0,1,.63.78s-2.36,1.94-2.54,4.22A.5.5,0,0,1,226.43,116.89Z" fill="#231f20"></path><path d="M150.88,253.67H137.5a.5.5,0,0,1-.5-.5.5.5,0,0,1,.5-.5h13.38a.5.5,0,0,1,.5.5A.5.5,0,0,1,150.88,253.67Z" fill="#d1d3d4"></path><path d="M313.11,247.86H308.6a.5.5,0,0,1-.5-.5.5.5,0,0,1,.5-.5h4.51a.51.51,0,0,1,.5.5A.5.5,0,0,1,313.11,247.86Z" fill="#d1d3d4"></path><path d="M300.72,261.87H294a.5.5,0,0,1-.5-.5.5.5,0,0,1,.5-.5h6.76a.5.5,0,0,1,.5.5A.51.51,0,0,1,300.72,261.87Z" fill="#d1d3d4"></path><path d="M48.53,210a.51.51,0,0,1-.5-.43,15.93,15.93,0,0,1,25-15.42c1.53-9.26,7.37-17.15,15.07-20.26,8.25-3.33,18.19-.42,22.73,6.35a11.51,11.51,0,0,1,3.63-7.15,15.15,15.15,0,0,1,12.07-4.25c6.86.81,13.25,5.83,17.53,13.76a.5.5,0,0,1-.21.68.49.49,0,0,1-.67-.2c-4.06-7.53-10.33-12.49-16.77-13.25a14.18,14.18,0,0,0-11.26,4,10.19,10.19,0,0,0-3.33,8.24.51.51,0,0,1-.36.53.5.5,0,0,1-.59-.26c-3.72-7.46-14-10.89-22.4-7.49-7.6,3.07-13.32,11-14.57,20.3a.51.51,0,0,1-.31.4.48.48,0,0,1-.5-.08,14.93,14.93,0,0,0-24.12,14,.5.5,0,0,1-.41.57Z" fill="#d1d3d4"></path><path d="M174.71,225.39a.5.5,0,0,1-.48-.37,37,37,0,0,0-8.73-15.39.5.5,0,1,1,.73-.69,38,38,0,0,1,9,15.81.5.5,0,0,1-.34.62Z" fill="#d1d3d4"></path><path d="M257.72,208.58h0a.5.5,0,0,1-.48-.52c.41-8.83,9.36-16.6,19.16-16.63h.07c7.95,0,16.07,4.34,22.06,11.71-.54-7.93,4.11-15.82,11.15-18.5a15.89,15.89,0,0,1,12.69.92,14.25,14.25,0,0,1,7.22,8.15,23.18,23.18,0,0,1,30.36,10.57.5.5,0,0,1-.24.67.51.51,0,0,1-.67-.25,22.14,22.14,0,0,0-29.51-9.83.49.49,0,0,1-.44,0,.5.5,0,0,1-.29-.33,13.09,13.09,0,0,0-6.89-8.11,14.86,14.86,0,0,0-11.88-.88c-7.15,2.73-11.67,11.17-10.3,19.21a.5.5,0,0,1-.29.55.5.5,0,0,1-.6-.17c-5.88-8-14.24-12.73-22.37-12.73h-.06c-9.3,0-17.78,7.36-18.17,15.68A.5.5,0,0,1,257.72,208.58Z" fill="#d1d3d4"></path><path d="M102.17,261.87H96a.5.5,0,0,1-.5-.5.5.5,0,0,1,.5-.5h6.16a.5.5,0,0,1,.5.5A.51.51,0,0,1,102.17,261.87Z" fill="#d1d3d4"></path><path d="M71,247.86H61.25a.5.5,0,0,1-.5-.5.5.5,0,0,1,.5-.5H71a.51.51,0,0,1,.5.5A.5.5,0,0,1,71,247.86Z" fill="#d1d3d4"></path><path d="M157.17,267.07h-6.09a.5.5,0,0,1-.5-.5.5.5,0,0,1,.5-.5h6.09a.51.51,0,0,1,.5.5A.5.5,0,0,1,157.17,267.07Z" fill="#d1d3d4"></path><path d="M200,247.86h-7.36a.5.5,0,0,1-.5-.5.51.51,0,0,1,.5-.5H200a.5.5,0,0,1,.5.5A.5.5,0,0,1,200,247.86Z" fill="#d1d3d4"></path><path d="M254.45,269.51h-8a.5.5,0,0,1-.5-.5.5.5,0,0,1,.5-.5h8a.5.5,0,0,1,.5.5A.5.5,0,0,1,254.45,269.51Z" fill="#d1d3d4"></path><path d="M289.09,215.38a.46.46,0,0,1-.23-.06.49.49,0,0,1-.21-.67c2.94-5.46,6-8.94,9.76-11,4.15-2.25,10.35-2.58,14.18,1.13a.5.5,0,0,1-.69.72c-3.49-3.37-9.19-3.05-13-1-3.54,1.92-6.52,5.27-9.36,10.55A.49.49,0,0,1,289.09,215.38Z" fill="#d1d3d4"></path><path d="M64.59,209.37a.51.51,0,0,1-.33-.13c-1.91-1.69-1.24-4.7-.09-6.76a19.36,19.36,0,0,1,19.22-9.39c1.63.25,3.29,1.23,3.06,2.79a.51.51,0,0,1-.57.42.5.5,0,0,1-.42-.56c.14-.94-1.29-1.52-2.22-1.66A18.32,18.32,0,0,0,65,203c-1,1.87-1.49,4.31-.12,5.52a.51.51,0,0,1,0,.71A.52.52,0,0,1,64.59,209.37Z" fill="#d1d3d4"></path></g></svg>