<svg xmlns="http://www.w3.org/2000/svg" viewBox="0 0 400 300" width="406" height="306" class="illustration styles_illustrationTablet__1DWOa"><g id="_573_team_building_flatline" data-name="#573_team_building_flatline"><path d="M261.22,83.55l-40.15,9.79c-1.08.69-8.39,1.24-11.3.15s-2.55-3.5-2-5.13,7.06-2.09,7.06-2.09-2.89-1.31-2.73-2.54,5.24,1.81,5.24,1.81L255.65,73.9Z" fill="#fff"></path><path d="M214.91,94.6A17.28,17.28,0,0,1,209.6,94c-1.72-.65-3.51-2.17-2.3-5.76.47-1.39,3.69-2,5.89-2.28-.85-.57-1.7-1.37-1.58-2.25a.79.79,0,0,1,.45-.63c1-.46,3.69,1,5.35,2L255.5,73.42a.49.49,0,0,1,.58.23l5.57,9.65a.51.51,0,0,1,0,.45.54.54,0,0,1-.35.29l-40.07,9.77C220.39,94.27,217.64,94.6,214.91,94.6Zm-2.3-10.66c.13.52,1.32,1.37,2.43,1.88a.48.48,0,0,1,.28.54.51.51,0,0,1-.45.41c-3,.21-6.35.93-6.62,1.75-.79,2.33-.25,3.77,1.7,4.5,2.88,1.08,10,.45,10.86-.1a.52.52,0,0,1,.15-.07l39.49-9.63-5-8.73L217.49,86a.51.51,0,0,1-.4,0A15.37,15.37,0,0,0,212.61,83.94Z" fill="#231f20"></path><path d="M214.83,86.27s-1.14,3.4,1.92,4.26" fill="#fff"></path><path d="M216.75,91h-.13a3.26,3.26,0,0,1-2.1-1.6,4.65,4.65,0,0,1-.16-3.31.5.5,0,0,1,.63-.31.5.5,0,0,1,.32.63,3.62,3.62,0,0,0,.1,2.53,2.23,2.23,0,0,0,1.48,1.09.5.5,0,0,1,.34.62A.49.49,0,0,1,216.75,91Z" fill="#231f20"></path><path d="M174,95a4.61,4.61,0,0,1,1.28,1.1,5,5,0,0,1,1,4.25c-.53,2.24-3.31,2.94-5.16,3.93-2.21,1.19-4.46,2.29-6.73,3.36-4.63,2.16-9.35,4.12-14.11,6-3.92,1.52-7.87,3-11.87,4.26-1.29.42-4.14,1.87-5.55,1.46-1.61-.46-5-9.18,2.8-10.55a26.21,26.21,0,0,0,4.49-1.7q5.46-2.09,10.87-4.23c4.24-1.69,8.47-3.4,12.66-5.21C166.67,96.36,170.89,93.24,174,95Z" fill="#fff"></path><path d="M133.43,119.91a2.59,2.59,0,0,1-.7-.08c-1.21-.35-2.64-3.34-2.49-6,.09-1.72.91-4.72,5.34-5.49a12.85,12.85,0,0,0,3-1.07c.49-.22,1-.43,1.43-.61,3.74-1.43,7.4-2.85,10.85-4.23,5.1-2,9-3.63,12.65-5.2.63-.27,1.33-.63,2.07-1,2.68-1.39,6-3.12,8.7-1.61h0a5.36,5.36,0,0,1,1.41,1.22,5.51,5.51,0,0,1,1.1,4.69c-.46,2-2.4,2.86-4.11,3.63-.45.21-.9.41-1.29.62-2,1.08-4.22,2.18-6.76,3.37-4.31,2-8.93,4-14.14,6-4.5,1.75-8.28,3.1-11.9,4.27-.3.1-.7.26-1.14.44A12.27,12.27,0,0,1,133.43,119.91ZM171.89,95c-1.85,0-4,1.09-5.88,2.08-.76.4-1.47.76-2.14,1-3.66,1.58-7.57,3.18-12.67,5.21-3.46,1.38-7.12,2.8-10.87,4.24-.44.17-.9.37-1.37.58a14.38,14.38,0,0,1-3.21,1.15c-3.56.62-4.42,2.81-4.51,4.55-.14,2.6,1.28,4.88,1.76,5,.9.26,2.79-.5,4-1,.47-.19.89-.35,1.22-.46,3.59-1.16,7.36-2.51,11.84-4.25,5.19-2,9.79-4,14.08-6,2.52-1.17,4.71-2.27,6.7-3.34.42-.22.88-.43,1.35-.65,1.58-.71,3.21-1.45,3.56-3a4.49,4.49,0,0,0-.9-3.82,4.21,4.21,0,0,0-1.14-1h0A3.75,3.75,0,0,0,171.89,95Z" fill="#231f20"></path><path d="M228.82,93.85a4.23,4.23,0,0,1-2.33,1.76c-1.39.62-2.79,1.21-4.18,1.82a1.91,1.91,0,0,0-1.14,1.44c-.32,1.51-.6,3-.94,4.52A3.48,3.48,0,0,0,221.4,107c1.08,1,2.1,2,3.1,3a2,2,0,0,1,.35,2.79c-1.1,1.83-2.23,3.64-3.44,5.41-1.08,1.58-1.72,1.73-3.53,1.1l-.16-.07c-1.37-.55-2.75-1.09-4.11-1.67a2.57,2.57,0,0,0-2.62.22q-2,1.35-4,2.67a2.34,2.34,0,0,0-1,1.84,12.22,12.22,0,0,0-.08,1.35c0,1.48,0,3,0,4.44a1.82,1.82,0,0,1-1.2,1.75,4.4,4.4,0,0,1-.89.34c-2.26.47-4.52.92-6.78,1.37a1.5,1.5,0,0,1-1.6-.69,11.13,11.13,0,0,1-1-1.71c-.51-1.15-.95-2.32-1.42-3.49a3,3,0,0,0-2.25-1.84l-3.14-.68c-2.69-.57-3.11-.44-5,1.52-.9.91-1.78,1.84-2.72,2.7a2,2,0,0,1-2.78.27c-1.89-1.18-3.76-2.4-5.59-3.66-1.28-.89-1.47-1.59-.92-3.06s1.09-2.75,1.67-4.11a3.19,3.19,0,0,0-.31-3.31c-.74-1.06-1.53-2.09-2.2-3.2a3.21,3.21,0,0,0-3.17-1.71c-.11,0-.22,0-.33,0l-4.5,0a1.83,1.83,0,0,1-1.75-1.19,4.79,4.79,0,0,1-.37-1c-.44-2.14-.88-4.29-1.3-6.44a2,2,0,0,1,1.13-2.3,19.23,19.23,0,0,1,1.84-.85c1-.41,2-.79,3-1.2a2.67,2.67,0,0,0,1.7-2c.35-1.68.64-3.36.95-5a2.11,2.11,0,0,0-.48-1.79c-.5-.59-1-1.15-1.56-1.7-.75-.77-1.55-1.48-2.27-2.26a2.32,2.32,0,0,1-.32-3.35c1.16-1.82,2.35-3.61,3.57-5.39a2.2,2.2,0,0,1,2.91-.86c1.55.61,3.09,1.26,4.65,1.86a2.67,2.67,0,0,0,2.76-.33c1.32-1,2.7-1.89,4.07-2.83a2.44,2.44,0,0,0,1.08-1.94c0-.6.05-1.2.05-1.8,0-1.28-.09-2.55,0-3.82a2,2,0,0,1,1.56-2c2.36-.51,4.74-1,7.12-1.37a1.9,1.9,0,0,1,2.12,1.14c.4.8.77,1.62,1.14,2.45s.84,1.92,1.28,2.87A1.84,1.84,0,0,0,196,68.7c1.61.34,3.24.62,4.85,1a3,3,0,0,0,3.13-1c1.1-1.17,2.29-2.27,3.43-3.41a1.84,1.84,0,0,1,2.22-.42,27.3,27.3,0,0,1,6.82,4.51,1.72,1.72,0,0,1,.4,1.22,6.29,6.29,0,0,1-.45,1.74c-.54,1.43-1.13,2.85-1.68,4.29a2.13,2.13,0,0,0,.11,2c1.11,1.63,2.23,3.25,3.43,4.81a2.2,2.2,0,0,0,1.29.66,11.34,11.34,0,0,0,2,.06c1.26,0,2.52-.07,3.77,0A2.24,2.24,0,0,1,227.52,86c.2.82.4,1.64.55,2.47.29,1.6.56,3.2.84,4.8ZM191.4,110.76A14.6,14.6,0,0,0,208,98.68,14.82,14.82,0,0,0,196.07,82,14.6,14.6,0,0,0,179.25,94.1C177.85,100.4,182.13,109.31,191.4,110.76Z" fill="#fff"></path><path d="M196.72,132.14a2,2,0,0,1-1.68-.95,9.93,9.93,0,0,1-1-1.79c-.35-.77-.66-1.55-1-2.34-.15-.38-.31-.77-.46-1.16a2.47,2.47,0,0,0-1.9-1.54l-1.37-.3-1.76-.38c-2.51-.54-2.77-.46-4.58,1.38l-.48.49c-.72.74-1.47,1.51-2.25,2.23a2.53,2.53,0,0,1-3.38.33c-2.1-1.32-3.94-2.52-5.61-3.68-1.45-1-1.74-2-1.11-3.65.53-1.42,1.12-2.83,1.68-4.13a2.68,2.68,0,0,0-.26-2.82c-.22-.32-.44-.64-.67-1-.53-.73-1.07-1.49-1.55-2.28a2.7,2.7,0,0,0-2.7-1.47,1.13,1.13,0,0,1-.26,0h-.11l-1.5,0-3,0h0a2.32,2.32,0,0,1-2.2-1.48,4.69,4.69,0,0,1-.39-1q-.68-3.23-1.31-6.45a2.5,2.5,0,0,1,1.38-2.83,18.31,18.31,0,0,1,1.88-.88l1.77-.7,1.27-.5a2.17,2.17,0,0,0,1.4-1.67c.28-1.31.52-2.63.76-4l.19-1.07a1.6,1.6,0,0,0-.38-1.38c-.46-.55-1-1.09-1.53-1.67-.3-.31-.61-.62-.93-.92s-.92-.89-1.35-1.36a2.8,2.8,0,0,1-.37-4c1.15-1.81,2.36-3.63,3.58-5.4a2.67,2.67,0,0,1,3.5-1l2.38.95,2.27.91a2.2,2.2,0,0,0,2.28-.27c1-.76,2.09-1.48,3.12-2.18l1-.66a2,2,0,0,0,.86-1.57c.05-.6.05-1.2.05-1.76s0-.86,0-1.29c0-.84,0-1.7,0-2.56a2.47,2.47,0,0,1,2-2.44c2.07-.44,4.27-.86,7.13-1.37a2.39,2.39,0,0,1,2.66,1.4c.34.68.65,1.37,1,2.06l.18.41c.18.39.35.78.52,1.17.25.57.5,1.14.76,1.7a1.34,1.34,0,0,0,1,.84l1.7.34c1.06.21,2.11.42,3.16.66a2.51,2.51,0,0,0,2.65-.85c.72-.77,1.49-1.51,2.22-2.22l1.23-1.2a2.33,2.33,0,0,1,2.77-.53,27.27,27.27,0,0,1,6.95,4.6,2.12,2.12,0,0,1,.56,1.62,6.4,6.4,0,0,1-.47,1.88c-.3.81-.62,1.61-.94,2.41-.25.63-.5,1.26-.74,1.89a1.64,1.64,0,0,0,.05,1.55c1,1.44,2.15,3.13,3.42,4.79a1.73,1.73,0,0,0,1,.47,7.33,7.33,0,0,0,1.42.06l1.79,0c.82,0,1.67,0,2.51,0A2.77,2.77,0,0,1,228,85.9c.19.78.39,1.63.55,2.5.21,1.13.4,2.27.6,3.4l.24,1.41a.43.43,0,0,1,0,.16l-.09.56a.44.44,0,0,1-.05.15,4.69,4.69,0,0,1-2.54,2c-.85.38-1.68.73-2.51,1.09l-1.7.73a1.42,1.42,0,0,0-.85,1.09c-.12.57-.23,1.13-.35,1.7-.19.94-.38,1.89-.6,2.83a3,3,0,0,0,1,3.16c1,.86,1.95,1.83,3.12,3a2.43,2.43,0,0,1,.42,3.4c-1.35,2.23-2.41,3.9-3.45,5.43-1.2,1.75-2,2-4.12,1.29l-.13-.06-1.26-.5c-1-.39-1.94-.78-2.91-1.19a2.1,2.1,0,0,0-2.14.17l-.54.37c-1.14.78-2.28,1.55-3.43,2.31a1.84,1.84,0,0,0-.82,1.47,10.84,10.84,0,0,0-.08,1.3c0,.82,0,1.64,0,2.45v2a2.31,2.31,0,0,1-1.5,2.2l-.12.06a4.24,4.24,0,0,1-.87.32l-4.88,1-1.9.38A2.1,2.1,0,0,1,196.72,132.14Zm-11.08-9.74a10.54,10.54,0,0,1,2.12.3l1.77.38,1.37.3a3.44,3.44,0,0,1,2.61,2.14c.16.39.32.78.47,1.18.31.77.61,1.54,1,2.3a9.4,9.4,0,0,0,.93,1.62,1,1,0,0,0,1.1.49l1.89-.38c1.63-.33,3.25-.65,4.87-1a3.1,3.1,0,0,0,.67-.25l.12-.06a1.31,1.31,0,0,0,.91-1.28v-2c0-.82,0-1.64,0-2.46,0-.41,0-.86.08-1.4a2.83,2.83,0,0,1,1.27-2.21c1.14-.75,2.28-1.52,3.42-2.3l.54-.36a3.08,3.08,0,0,1,3.09-.27l2.89,1.18,1.22.49,0,.52.17-.47c1.63.58,2,.46,2.95-.9,1-1.51,2.08-3.17,3.42-5.39a1.48,1.48,0,0,0-.28-2.19c-1.15-1.2-2.13-2.16-3.07-3a4,4,0,0,1-1.33-4.12c.21-.93.4-1.87.59-2.81.12-.57.23-1.14.35-1.7a2.43,2.43,0,0,1,1.43-1.8l1.7-.74c.83-.35,1.66-.71,2.48-1.08a3.93,3.93,0,0,0,2.05-1.46l.06-.39L228.17,92c-.19-1.13-.39-2.26-.59-3.39-.16-.85-.35-1.68-.54-2.44a1.76,1.76,0,0,0-1.71-1.48c-.81,0-1.65,0-2.45,0l-1.78,0a7.36,7.36,0,0,1-1.62-.07,2.75,2.75,0,0,1-1.61-.84c-1.28-1.68-2.46-3.39-3.44-4.84a2.6,2.6,0,0,1-.17-2.47l.75-1.9c.32-.79.63-1.59.94-2.39a6.1,6.1,0,0,0,.41-1.59,1.22,1.22,0,0,0-.23-.81,26.72,26.72,0,0,0-6.69-4.44,1.38,1.38,0,0,0-1.67.32c-.4.41-.82.81-1.23,1.21-.73.71-1.48,1.45-2.19,2.19a3.55,3.55,0,0,1-3.61,1.15c-1-.25-2.08-.45-3.12-.66l-1.71-.34a2.39,2.39,0,0,1-1.69-1.4c-.26-.57-.51-1.14-.77-1.72l-.51-1.16-.19-.41c-.3-.68-.6-1.36-.94-2a1.39,1.39,0,0,0-1.59-.86c-2.85.5-5,.92-7.1,1.35A1.54,1.54,0,0,0,182,64.5c-.05.81,0,1.66,0,2.48,0,.44,0,.87,0,1.31s0,1.21-.05,1.84a3,3,0,0,1-1.3,2.32l-1,.66c-1,.69-2.08,1.41-3.09,2.15a3.22,3.22,0,0,1-3.24.4l-2.27-.91-2.37-1a1.68,1.68,0,0,0-2.31.67c-1.22,1.77-2.42,3.58-3.57,5.38a1.84,1.84,0,0,0,.26,2.74c.42.45.87.88,1.31,1.31s.65.62,1,.94c.58.59,1.1,1.16,1.58,1.73a2.59,2.59,0,0,1,.59,2.2l-.19,1.07c-.24,1.33-.48,2.65-.76,4a3.15,3.15,0,0,1-2,2.38l-1.28.51-1.75.7a18.64,18.64,0,0,0-1.79.82,1.53,1.53,0,0,0-.88,1.77c.42,2.14.86,4.29,1.3,6.43a3.72,3.72,0,0,0,.29.75,1.39,1.39,0,0,0,1.33,1h0l3,0,1.5,0h.31a3.68,3.68,0,0,1,3.63,2c.46.76,1,1.5,1.5,2.22.23.31.46.63.68,1a3.69,3.69,0,0,1,.36,3.79c-.55,1.3-1.14,2.69-1.67,4.1s-.33,1.72.74,2.46c1.67,1.16,3.49,2.35,5.58,3.66a1.53,1.53,0,0,0,2.17-.22c.76-.7,1.5-1.46,2.22-2.19l.48-.49C183.67,122.93,184.4,122.4,185.64,122.4Zm43.18-28.55h0Zm-35.18,17.59a14.14,14.14,0,0,1-2.32-.19h0a15,15,0,0,1-10.19-6.39A14.27,14.27,0,0,1,178.77,94a15,15,0,1,1,14.87,17.45Zm-2.16-1.17a14,14,0,0,0,16-11.67,13.87,13.87,0,0,0-2.54-10.44,13.94,13.94,0,0,0-25.18,6,13.26,13.26,0,0,0,2.2,10.11,14,14,0,0,0,9.53,6Z" fill="#231f20"></path><path d="M137.5,170.76l-1.42,2.74c-3.72,7.16-6.23,19.31-13.77,26.36C119.53,202.46,89,215.8,89,215.8l-3.3-9S109.93,191.49,112,189.4c2.58-2.64,13.59-37.75,13.59-37.75Z" fill="#fff"></path><path d="M89,216.29a.45.45,0,0,1-.2,0,.47.47,0,0,1-.27-.28l-3.3-9a.51.51,0,0,1,.21-.6c8.35-5.27,24.55-15.66,26.12-17.28,2.05-2.1,10.42-27.82,13.47-37.55a.51.51,0,0,1,.42-.35.53.53,0,0,1,.49.23l11.94,19.12a.48.48,0,0,1,0,.49s-.53,1-1.42,2.74a80,80,0,0,0-3.27,7.74c-2.49,6.47-5.31,13.81-10.6,18.75-2.81,2.63-32.16,15.49-33.41,16A.48.48,0,0,1,89,216.29ZM86.35,207l3,8.16c10.65-4.66,30.52-13.65,32.64-15.63,5.12-4.78,7.9-12,10.35-18.38a79.22,79.22,0,0,1,3.31-7.84l1.29-2.49L125.7,152.83c-1.88,5.95-11,34.45-13.38,36.92C110.38,191.74,89.42,205,86.35,207Z" fill="#231f20"></path><path d="M85.74,206.76S78.3,208,78.35,209.1s6,19.88,8.2,19.08S89,215.8,89,215.8Z" fill="#231f20"></path><path d="M86.41,228.7a1.15,1.15,0,0,1-.66-.22c-2.82-1.87-7.85-18.47-7.9-19.35,0-.39-.07-1.56,7.81-2.87a.5.5,0,0,1,.55.33l3.3,9a.58.58,0,0,1,0,.19c-.07,2.79-.46,12-2.82,12.84A.91.91,0,0,1,86.41,228.7Zm-7.55-19.55c.13.75,1.45,5.15,3.12,9.67,3.19,8.63,4.38,8.88,4.43,8.88,1.14-.41,2-6.44,2.13-11.82l-3.12-8.56C82.51,207.83,79.34,208.64,78.86,209.15Z" fill="#231f20"></path><path d="M146.41,165.18s.36,1.11.93,2.94c2.41,7.7,8.69,28,8.89,31.07.25,3.81-13.74,31.37-13.74,31.37L133,228.89s8.48-29.58,8.45-32.49c0-3.69-17-36.34-17-36.34Z" fill="#fff"></path><path d="M142.49,231.06h-.08l-9.48-1.67a.45.45,0,0,1-.33-.22.49.49,0,0,1-.06-.41c2.92-10.2,8.45-30.1,8.43-32.34,0-2.93-12.25-27.07-17-36.12a.51.51,0,0,1,0-.54.52.52,0,0,1,.51-.18l22,5.12a.5.5,0,0,1,.36.33l.93,2.95c2.61,8.35,8.71,28.1,8.91,31.19.26,3.9-13.22,30.5-13.79,31.63A.5.5,0,0,1,142.49,231.06Zm-8.84-2.57,8.57,1.52c4-7.88,13.71-27.82,13.51-30.78s-6.84-24.47-8.87-31L146,165.6l-20.61-4.81c2.86,5.54,16.52,32.16,16.56,35.61C142,199.16,134.83,224.36,133.65,228.49Z" fill="#231f20"></path><path d="M111.92,84.32a14.68,14.68,0,0,0-5.74,1.6c-3.12,1.5-6.1,4-6.79,7.35-.56,2.75.49,5.56,1.82,8s3,4.83,3.71,7.53.4,6-1.73,7.77a28.66,28.66,0,0,0,8-4.66,7.21,7.21,0,0,0,2.59-4.62,9.28,9.28,0,0,0-1.06-4.28,19.21,19.21,0,0,1-2-6.3c-.15-2.2.67-4.62,2.57-5.74,1.67-1,7.12-.89,6.26-4C118.9,84.65,113.87,84.24,111.92,84.32Z" fill="#fff"></path><path d="M103.19,117.1a.5.5,0,0,1-.33-.88c2.14-1.82,2.19-5,1.58-7.26a24.54,24.54,0,0,0-2.6-5.51c-.36-.64-.73-1.27-1.07-1.91-1.77-3.29-2.36-6-1.87-8.37.85-4.15,4.79-6.61,7.06-7.7a15,15,0,0,1,5.94-1.65h0c2-.08,7.38.32,8.15,3.09a2.21,2.21,0,0,1-.18,1.83c-.71,1.22-2.58,1.66-4.22,2.05a9.09,9.09,0,0,0-2.08.64c-1.91,1.12-2.45,3.55-2.33,5.28a18.06,18.06,0,0,0,1.79,5.86l.12.27a9.82,9.82,0,0,1,1.1,4.52,7.68,7.68,0,0,1-2.75,5,29.22,29.22,0,0,1-8.11,4.75A.51.51,0,0,1,103.19,117.1Zm8.75-32.28a14.08,14.08,0,0,0-5.55,1.55c-2.1,1-5.75,3.27-6.51,7-.44,2.17.12,4.62,1.77,7.7.34.63.7,1.25,1.06,1.88a25.17,25.17,0,0,1,2.69,5.75,9.14,9.14,0,0,1-.52,6.58,23.05,23.05,0,0,0,5.94-3.7,6.89,6.89,0,0,0,2.43-4.29,8.74,8.74,0,0,0-1-4.05l-.12-.27a18.89,18.89,0,0,1-1.87-6.19,6.59,6.59,0,0,1,2.82-6.21,9.38,9.38,0,0,1,2.36-.75c1.38-.33,3.09-.74,3.59-1.59a1.29,1.29,0,0,0,.08-1c-.55-2-5.13-2.44-7.15-2.36Z" fill="#231f20"></path><path d="M114.36,85a5.86,5.86,0,0,0-.71,3.79,4.47,4.47,0,0,0,.92,2.42,3.45,3.45,0,0,0,2.86,1.13,1.93,1.93,0,0,0,1.29-.53,2.24,2.24,0,0,0,.47-1.08C119.77,88,117.76,79.64,114.36,85Z" fill="#231f20"></path><path d="M117.16,92.85a3.92,3.92,0,0,1-3-1.32,4.88,4.88,0,0,1-1-2.68,6.37,6.37,0,0,1,.79-4.11h0c1.32-2.09,2.48-2.17,3.21-1.87,2.08.84,3,5.85,2.53,8a2.7,2.7,0,0,1-.59,1.32,2.38,2.38,0,0,1-1.62.68Zm-2.37-7.58a5.36,5.36,0,0,0-.64,3.46,3.91,3.91,0,0,0,.8,2.16,3,3,0,0,0,2.45,1,1.54,1.54,0,0,0,1-.37,1.84,1.84,0,0,0,.34-.85c.39-1.84-.53-6.26-1.92-6.83-.69-.27-1.47.65-2,1.48Z" fill="#231f20"></path><path d="M132.28,103c-.81,1-2,1.48-4.06,1.28a10.28,10.28,0,0,1-4.65-1.88,17.61,17.61,0,0,1-7.28-17c1.09-6.55,7.61-13.07,14.64-10.58a8.68,8.68,0,0,1,5.17,5.16,2.59,2.59,0,0,1,2.74.7c1.82,1.81,1.75,3.75.78,5.93-1.6,3.57-3.56,7-5,10.62C133.79,99.27,133.47,101.56,132.28,103Z" fill="#fff"></path><path d="M129,104.77c-.28,0-.57,0-.87,0a10.55,10.55,0,0,1-4.88-2,18,18,0,0,1-7.49-17.53,14.9,14.9,0,0,1,6.8-10,9.84,9.84,0,0,1,8.5-.92,9.17,9.17,0,0,1,5.3,5,3.25,3.25,0,0,1,2.79,1c2.35,2.33,1.63,4.81.89,6.48-.66,1.48-1.39,2.94-2.1,4.36-1,2-2,4.12-2.89,6.25-.27.68-.49,1.4-.7,2.09a10.72,10.72,0,0,1-1.73,3.85h0A4.44,4.44,0,0,1,129,104.77Zm-1.21-30.08A9.31,9.31,0,0,0,123.11,76a13.91,13.91,0,0,0-6.33,9.35,17.21,17.21,0,0,0,7.07,16.55,9.72,9.72,0,0,0,4.42,1.79,3.86,3.86,0,0,0,3.63-1.11h0a10,10,0,0,0,1.54-3.49c.21-.71.44-1.45.72-2.17.86-2.17,1.91-4.28,2.92-6.32.71-1.41,1.43-2.87,2.08-4.33,1-2.28.82-3.88-.67-5.36a2.12,2.12,0,0,0-2.19-.6.51.51,0,0,1-.67-.29,8.07,8.07,0,0,0-4.86-4.85A8.7,8.7,0,0,0,127.83,74.69Z" fill="#231f20"></path><path d="M137.49,87.83s4.26,3.62,3.92,4.72-2.56,1.09-2.56,1.09" fill="#fff"></path><path d="M138.88,94.14h0a.51.51,0,0,1-.5-.51.48.48,0,0,1,.51-.49c.54,0,1.9-.18,2.07-.73s-1.71-2.46-3.76-4.2a.5.5,0,1,1,.65-.76c1.68,1.43,4.45,4,4.07,5.25S139.28,94.14,138.88,94.14Z" fill="#231f20"></path><path d="M139.86,112.27c-4.78.38-13-4.42-13-4.6a96.39,96.39,0,0,1-2.15-9.42s3.23-.92,4-5.31,4.85-5.08,6.43-10.85c2.33,1,2.73,4.4,3.33,6.52q1.26,4.48,2.31,9c.45,1.92-4.42,3.38-5.45,3.06C136.43,103.51,136.43,103.51,139.86,112.27Z" fill="#fff"></path><path d="M139.33,112.79c-4.82,0-12.75-4.31-13-5a94.43,94.43,0,0,1-2.18-9.5.51.51,0,0,1,.36-.57c.12,0,3-.9,3.67-4.91a9.59,9.59,0,0,1,2.91-5A13.12,13.12,0,0,0,134.66,82a.51.51,0,0,1,.68-.33c2.17.93,2.81,3.57,3.32,5.7.1.41.19.8.29,1.15.84,3,1.62,6,2.32,9a1.91,1.91,0,0,1-.71,1.86,9,9,0,0,1-4.49,1.83c.86,2.21,1.13,2.92,4.26,10.9a.51.51,0,0,1-.05.45.48.48,0,0,1-.38.23A5.24,5.24,0,0,1,139.33,112.79Zm-12.06-5.42c.87.58,7.46,4.34,11.87,4.42-3.17-8.1-3.2-8.17-4.27-10.94a.5.5,0,0,1,.1-.52.51.51,0,0,1,.51-.14,7.36,7.36,0,0,0,4.39-1.56c.35-.33.49-.63.43-.9-.7-3-1.48-6-2.31-9-.11-.36-.2-.77-.3-1.19-.42-1.71-.92-3.79-2.24-4.73a14.51,14.51,0,0,1-3.58,5.68A8.64,8.64,0,0,0,129.21,93a7,7,0,0,1-4,5.53C125.52,100,126.43,104.75,127.27,107.37Z" fill="#231f20"></path><path d="M140.07,95.42a2.53,2.53,0,0,1-3.82.06" fill="#fff"></path><path d="M138.06,96.86a3,3,0,0,1-2.17-1,.5.5,0,0,1,.73-.69,1.86,1.86,0,0,0,1.46.73,2.6,2.6,0,0,0,1.62-.78.5.5,0,0,1,.74.67,3.52,3.52,0,0,1-2.35,1.11Z" fill="#231f20"></path><path d="M135.33,100.67a5.39,5.39,0,0,1-4.22-.78s1.48,4.51,5.74,4.7Z" fill="#231f20"></path><path d="M136.85,105.09h0c-4.55-.2-6.13-4.85-6.19-5a.49.49,0,0,1,.19-.57.51.51,0,0,1,.6,0,4.93,4.93,0,0,0,3.79.69.49.49,0,0,1,.58.3l1.52,3.92a.5.5,0,0,1-.47.68Zm-4.64-4a5.92,5.92,0,0,0,3.88,3L135,101.24A6.51,6.51,0,0,1,132.21,101Z" fill="#231f20"></path><ellipse cx="136.07" cy="86.68" rx="0.43" ry="1.11" transform="translate(-15.22 30.63) rotate(-12.17)" fill="#231f20"></ellipse><path d="M131.87,91.11a4.22,4.22,0,0,0-1.43-1.8,6.11,6.11,0,0,0-1.47-1,2,2,0,0,0-1.74,0,1.89,1.89,0,0,0-.9,1.26,3.56,3.56,0,0,0,.06,1.59A6.64,6.64,0,0,0,131,95.9l-.21-.13" fill="#fff"></path><path d="M131,96.4a.3.3,0,0,1-.13,0,7.19,7.19,0,0,1-4.94-5.17,4,4,0,0,1-.06-1.81A2.35,2.35,0,0,1,127,87.81a2.51,2.51,0,0,1,2.19,0,6.44,6.44,0,0,1,1.59,1.11,4.71,4.71,0,0,1,1.58,2,.5.5,0,0,1-1,.3,3.76,3.76,0,0,0-1.27-1.57,5.65,5.65,0,0,0-1.35-1,1.55,1.55,0,0,0-1.31,0,1.37,1.37,0,0,0-.64.93,3,3,0,0,0,.05,1.36,6.22,6.22,0,0,0,3.8,4.3.49.49,0,0,1,.35.07l.21.13a.48.48,0,0,1,.2.62A.49.49,0,0,1,131,96.4Z" fill="#231f20"></path><path d="M143.58,110.34s-14-7.06-18.9-2.35-4.68,20.06-4.93,45.75l30.13-2.09S150.34,114.07,143.58,110.34Z" fill="#7aadf7"></path><path d="M155.52,120.32c2.06.1,21.63,2.49,23.69.54s6.29-4.71,6.55-4-2.57,4.22-2.57,4.22,6.31-2,7.26-1-1.51,5.39-3,6.69c-.4.36-4.56,1.21-7,1.92-11,3.17-25.82,3.14-30,.23-5.76-4-22-11.76-22.94-13.13s1.86-10.3,8.8-6.47C136.31,109.28,153.47,120.23,155.52,120.32Z" fill="#fff"></path><path d="M162.6,131.55c-5.55,0-10.27-.75-12.43-2.26-2.93-2-8.6-5.06-13.59-7.73-5.71-3-9-4.79-9.48-5.53-.72-1,.05-4.25,1.85-6.26,1.15-1.28,3.66-3.1,7.6-.93,6.62,4.22,17.59,10.92,19,11,.38,0,1.34.12,2.67.24,4.73.47,19.12,1.87,20.64.44s5.7-4.51,6.89-4.23a.64.64,0,0,1,.48.42c.2.53-.37,1.69-1.69,3.46,2.26-.63,5.43-1.31,6.27-.46a1.41,1.41,0,0,1,.35,1.1c0,1.82-2.12,5.22-3.35,6.31-.31.28-1.25.53-3.88,1.17-1.18.29-2.39.59-3.36.86A68,68,0,0,1,162.6,131.55Zm-29.54-22.72a4.45,4.45,0,0,0-3.36,1.61c-1.75,1.94-2.07,4.61-1.78,5,.41.58,5,3,9.13,5.22,5,2.68,10.71,5.72,13.69,7.79,3.75,2.63,18.13,3,29.55-.3,1-.28,2.22-.58,3.4-.87a28.88,28.88,0,0,0,3.48-1c1.16-1,3-4.17,3-5.58a.62.62,0,0,0-.06-.37c-.43-.39-3.59.16-6.76,1.17a.51.51,0,0,1-.56-.2.48.48,0,0,1,0-.59,23.28,23.28,0,0,0,2.36-3.42,23.84,23.84,0,0,0-5.61,3.87c-1.63,1.54-11.26.83-21.43-.16-1.31-.13-2.26-.22-2.62-.24-2.13-.1-17.69-10-19.46-11.12A6.22,6.22,0,0,0,133.06,108.83Z" fill="#231f20"></path><path d="M119.75,153.74,105.44,189s36.72,12.58,53.56,9.67l-9.12-47Z" fill="#231f20"></path><path d="M153.11,199.58c-18,0-46.49-9.68-47.83-10.14a.51.51,0,0,1-.3-.26.51.51,0,0,1,0-.4l14.31-35.23a.49.49,0,0,1,.43-.31l30.13-2.09a.51.51,0,0,1,.52.4l9.12,47a.56.56,0,0,1-.08.38.52.52,0,0,1-.33.21A35.46,35.46,0,0,1,153.11,199.58Zm-47-10.91c4.41,1.46,36.65,11.92,52.31,9.56l-8.94-46-29.37,2Z" fill="#231f20"></path><path d="M133,228.89s-2.66,7.06-1.67,7.57,20.2,4.77,20.62,2.45-9.48-8.35-9.48-8.35Z" fill="#231f20"></path><path d="M149.47,240.1c-5.62,0-17.68-2.85-18.35-3.19-.34-.18-1.38-.71,1.43-8.2a.51.51,0,0,1,.56-.31l9.47,1.67a.49.49,0,0,1,.17.06c2.39,1.46,10.16,6.4,9.71,8.87a1.05,1.05,0,0,1-.63.76A5.84,5.84,0,0,1,149.47,240.1ZM131.65,236a99.44,99.44,0,0,0,9.93,2.15c9.07,1.56,9.88.64,9.91.6.21-1.19-4.58-4.94-9.18-7.75l-9-1.58C132.33,232.23,131.45,235.38,131.65,236Zm0,.05h0Z" fill="#231f20"></path><path d="M302.37,195.13c.24.72,2.62,4.77,2.13,5.55s-8.21,5.69-5.93,6.42,15.36-1,15.36-1L306,185.3Z" fill="#231f20"></path><path d="M300.62,207.77a8.45,8.45,0,0,1-2.2-.19,1,1,0,0,1-.75-.78c-.19-1.05,1.37-2.45,4.71-5a16.82,16.82,0,0,0,1.7-1.38c.12-.48-1.13-2.95-1.6-3.88-.32-.64-.51-1-.59-1.24a.53.53,0,0,1,0-.33l3.65-9.83a.5.5,0,0,1,.47-.33h0a.49.49,0,0,1,.46.33l7.92,20.75a.53.53,0,0,1,0,.44.5.5,0,0,1-.36.24C312.9,206.7,304.85,207.77,300.62,207.77Zm-2-1.17.07,0c1.69.54,10.52-.45,14.52-1L306,186.72l-3.12,8.4c.1.22.28.58.47,1,1.4,2.75,2,4.18,1.55,4.87a10.8,10.8,0,0,1-1.93,1.64C301.81,203.49,298.71,205.86,298.65,206.6Z" fill="#231f20"></path><path d="M265.47,191.12s4.53,13.06,3.77,13.37-20,4.72-19.13,3.55,9.78-5.84,9.88-5.3-1.2-6.34-1.2-6.34Z" fill="#231f20"></path><path d="M250.7,208.66c-.53,0-.88-.06-1-.2a.59.59,0,0,1,0-.71c.62-.88,7.41-4.77,9.71-5.45-.12-.54-.28-1.36-.52-2.62l-.6-3.19a.47.47,0,0,1,.18-.48l6.68-5.28a.49.49,0,0,1,.45-.09.5.5,0,0,1,.33.32c4.69,13.5,4,13.8,3.49,14C269.28,205,254.73,208.66,250.7,208.66Zm9.06-5.43a53.3,53.3,0,0,0-8.49,4.48c3.6-.36,15.61-3.06,17.56-3.62-.06-1.25-1.79-6.87-3.6-12.14l-5.9,4.66c.23,1.18,1.06,5.53,1.15,6v0h0a.52.52,0,0,1-.4.59C260,203.29,259.85,203.31,259.76,203.23Zm-.2-.38h-.05a.39.39,0,0,0,.16.26A1.69,1.69,0,0,1,259.56,202.85Z" fill="#231f20"></path><path d="M258.27,114.17s-13.41,27.73-13.58,36.51S256,196.4,256,196.4l11.7-1.94s-8.72-36.92-7.4-40.78S271.68,125,271.68,125s4,21.29,6.78,29.13,20.6,41.47,20.6,41.47l12.25-2.36s-16.23-37.62-16.83-44.11-3.79-41.19-3.79-41.19Z" fill="#231f20"></path><path d="M256,196.9a.5.5,0,0,1-.48-.35c-.47-1.51-11.51-37.11-11.34-45.88s13.08-35.58,13.63-36.72a.5.5,0,0,1,.36-.27l32.41-6.23a.51.51,0,0,1,.4.09.55.55,0,0,1,.2.35s3.19,34.7,3.79,41.2c.59,6.34,16.63,43.58,16.79,43.95a.52.52,0,0,1,0,.44.51.51,0,0,1-.35.25l-12.25,2.36a.48.48,0,0,1-.53-.26c-.73-1.37-17.83-33.74-20.63-41.53-2.34-6.5-5.48-22.35-6.48-27.53-2.23,5.52-9.62,23.84-10.73,27.07-1,3.06,5,30.27,7.41,40.5a.45.45,0,0,1-.07.39.45.45,0,0,1-.33.22l-11.7,1.94Zm2.6-82.29c-1.27,2.66-13.26,27.92-13.42,36.08s9.9,41.05,11.16,45.15l10.75-1.79c-1.32-5.63-8.55-36.78-7.26-40.53s11-27.69,11.38-28.7a.48.48,0,0,1,.51-.31.49.49,0,0,1,.44.4c0,.21,4,21.34,6.76,29.05,2.63,7.31,18.55,37.58,20.4,41.08l11.27-2.17c-2.11-4.92-16.05-37.56-16.62-43.69s-3.33-36.19-3.74-40.64Z" fill="#231f20"></path><polygon points="256.71 67.37 241.08 75.51 244.03 91.53 258.72 88 256.71 67.37" fill="#7aadf7"></polygon><path d="M256.71,67.37c.93-1.27,20.2-5.69,26-.86s9.73,39,10.63,49.49l-37.92,2.75S251.57,74.38,256.71,67.37Z" fill="#7aadf7"></path><path d="M255.16,115.53a.49.49,0,0,1-.49-.46c-.1-1.26-2.39-30.93-.71-38.26a.5.5,0,0,1,.6-.37.49.49,0,0,1,.37.6c-1.64,7.17.71,37.65.73,37.95a.5.5,0,0,1-.46.54Z" fill="#231f20"></path><path d="M267.77,60.08a11.82,11.82,0,0,0,5.66-2.9,4.72,4.72,0,0,0,1.5-2.43,2.25,2.25,0,0,0-1.11-2.45,3.31,3.31,0,0,0,1.67-2.56,5.84,5.84,0,0,0-.56-3.1A4,4,0,0,0,272,44c.58-1,1.18-2.23.77-3.34a3.79,3.79,0,0,0-1.07-1.38,18.35,18.35,0,0,0-2.79-2.1c-.53-.32-1.21-.63-1.74-.29a6,6,0,0,0-4.35-4.64,5,5,0,0,0-3.26.16,19.3,19.3,0,0,0-2.81,2.1,6.07,6.07,0,0,0-5.4.76,4.17,4.17,0,0,0-1.27,4A9.14,9.14,0,0,0,247,41.68a4.42,4.42,0,0,0-.94,3.7,3,3,0,0,0,2.83,2.31,3.17,3.17,0,0,0-.46,4.16,3.87,3.87,0,0,0,4.11,1.34,1.25,1.25,0,0,1,.63-.08,1.5,1.5,0,0,1,.65.45c.64.57,1.48.45,2.17.84a20.76,20.76,0,0,1,2.64,2.16,30.81,30.81,0,0,0,2.67,1.9,17.89,17.89,0,0,0,3.1,2c1,.39,1.63,0,2.63-.25Z" fill="#fff"></path><path d="M265.2,61.17a2.78,2.78,0,0,1-1-.19A8.67,8.67,0,0,1,262,59.6c-.33-.25-.66-.5-1-.72a29.05,29.05,0,0,1-2.72-1.94c-.27-.22-.56-.48-.84-.74a10.76,10.76,0,0,0-1.72-1.36,2.75,2.75,0,0,0-.81-.26,3.2,3.2,0,0,1-1.45-.64l-.13-.13a1.37,1.37,0,0,0-.29-.22,1.16,1.16,0,0,0-.32.06A4.36,4.36,0,0,1,248,52.14a3.75,3.75,0,0,1-.11-4.09,3.65,3.65,0,0,1-2.34-2.55,4.92,4.92,0,0,1,1-4.13A8.84,8.84,0,0,1,249.54,39a4.68,4.68,0,0,1,1.5-4.14,6.52,6.52,0,0,1,5.61-1,21,21,0,0,1,2.74-2,5.49,5.49,0,0,1,3.58-.18,6.54,6.54,0,0,1,4.59,4.48,2.79,2.79,0,0,1,1.64.51,19.18,19.18,0,0,1,2.85,2.15,4.11,4.11,0,0,1,1.21,1.58,3.93,3.93,0,0,1-.49,3.17,4.86,4.86,0,0,1,2.62,2.79,6.36,6.36,0,0,1,.6,3.36,4,4,0,0,1-1.3,2.51,2.92,2.92,0,0,1,.73,2.53,5.13,5.13,0,0,1-1.64,2.7,12.44,12.44,0,0,1-5.89,3h0l-.77.18c-.23,0-.44.12-.64.18A4.53,4.53,0,0,1,265.2,61.17ZM253,52.59l.24,0a1.52,1.52,0,0,1,.76.47l.11.1a2.18,2.18,0,0,0,1,.41,4,4,0,0,1,1.06.37,10.61,10.61,0,0,1,1.91,1.49c.27.25.54.49.81.71A30.08,30.08,0,0,0,261.56,58c.35.24.7.5,1.05.77A8,8,0,0,0,264.56,60a2.19,2.19,0,0,0,1.63-.07c.22-.07.45-.14.71-.2l.75-.17h0a11.49,11.49,0,0,0,5.43-2.78,4.17,4.17,0,0,0,1.36-2.16,1.75,1.75,0,0,0-.82-1.9.52.52,0,0,1-.3-.44.51.51,0,0,1,.28-.46,2.88,2.88,0,0,0,1.4-2.19,5.41,5.41,0,0,0-.52-2.83c-.29-.66-1.12-2.21-2.51-2.36a.47.47,0,0,1-.39-.27.49.49,0,0,1,0-.47c.53-.94,1.07-2,.74-2.92a3.24,3.24,0,0,0-.94-1.18,18,18,0,0,0-2.71-2c-.39-.24-.91-.49-1.21-.3a.49.49,0,0,1-.47,0,.46.46,0,0,1-.29-.37,5.56,5.56,0,0,0-4-4.24,4.49,4.49,0,0,0-2.94.15,27.78,27.78,0,0,0-2.55,1.87.5.5,0,0,1-.62.23,5.55,5.55,0,0,0-4.89.67,3.63,3.63,0,0,0-1.11,3.54.5.5,0,0,1-.26.56,8.42,8.42,0,0,0-3,2.25,3.94,3.94,0,0,0-.86,3.27,2.49,2.49,0,0,0,2.32,1.93.46.46,0,0,1,.49.32.48.48,0,0,1-.15.56,2.67,2.67,0,0,0-.36,3.49,3.38,3.38,0,0,0,3.57,1.15A2.27,2.27,0,0,1,253,52.59Z" fill="#231f20"></path><path d="M253.16,53.93s-1.88,5.09-1.07,5.86,2.68-.3,2.68-.3" fill="#fff"></path><path d="M252.91,60.57a1.64,1.64,0,0,1-1.16-.42c-.92-.87.19-4.38.94-6.39a.5.5,0,0,1,.64-.3.52.52,0,0,1,.3.65c-.9,2.43-1.45,4.92-1.18,5.33s1.59-.11,2.07-.39a.51.51,0,0,1,.68.19.49.49,0,0,1-.18.68A4.86,4.86,0,0,1,252.91,60.57Z" fill="#231f20"></path><path d="M251.84,44.1a1.41,1.41,0,0,0-.45.84,9.25,9.25,0,0,0,0,3.44,52.72,52.72,0,0,0,1.36,6.68c.7,2.92,1.48,5.82,2.32,8.7.53,1.83,5.34.75,6.06,0l1,7.49s2.45.1,5.9-2.6S271.23,65,271.23,65l-2.3-8.37s-3.17.76-5.93-2.57c-.44-.54-.77-1.45-1.3-1.87s-1.45-.47-2-1.21a2.77,2.77,0,0,1-.43-2.43c.05-.18.12-.4,0-.54a.73.73,0,0,0-.3-.12A2.33,2.33,0,0,1,257.27,45c-1.21.28-2.3-.74-3.13-1.68.26.3-1.87.53-1.9.55A1.15,1.15,0,0,0,251.84,44.1Z" fill="#fff"></path><path d="M262.08,71.75H262a.49.49,0,0,1-.47-.43l-.87-6.75a8.57,8.57,0,0,1-4.64.57,1.83,1.83,0,0,1-1.5-1.24c-.84-2.87-1.62-5.81-2.33-8.72l-.15-.63a47.18,47.18,0,0,1-1.22-6.11,9.88,9.88,0,0,1,.06-3.63,1.84,1.84,0,0,1,.63-1.11h0a1.7,1.7,0,0,1,.54-.27l.18,0a8.93,8.93,0,0,0,1.44-.27.49.49,0,0,1,.11-.14.5.5,0,0,1,.71,0h0c.73.83,1.69,1.75,2.64,1.52a.51.51,0,0,1,.48.15.51.51,0,0,1,.11.49,1.74,1.74,0,0,0,.19,1.39,1.79,1.79,0,0,0,1.11.85,1,1,0,0,1,.56.26,1,1,0,0,1,.13,1,2.23,2.23,0,0,0,.35,2,1.89,1.89,0,0,0,.94.6,3.75,3.75,0,0,1,1,.52,4.22,4.22,0,0,1,.92,1.23,6.77,6.77,0,0,0,.46.71c2.51,3,5.3,2.42,5.42,2.4a.5.5,0,0,1,.6.35l2.3,8.38c.08.41-.12,1.54-3.45,4.15S262.47,71.75,262.08,71.75Zm-1-8.49a.39.39,0,0,1,.15,0,.48.48,0,0,1,.34.41l.91,7a11.08,11.08,0,0,0,5.16-2.47c2.63-2.06,3-3,3.07-3.18l-2.16-7.87a6.86,6.86,0,0,1-5.94-2.8,5.63,5.63,0,0,1-.55-.85,3.53,3.53,0,0,0-.69-.95,2.33,2.33,0,0,0-.72-.37,2.92,2.92,0,0,1-1.37-.92,3.28,3.28,0,0,1-.51-2.89l0-.06a2.59,2.59,0,0,1-1.72-1.28,2.82,2.82,0,0,1-.4-1.5,4.23,4.23,0,0,1-2.58-1.53,9.33,9.33,0,0,1-1.71.34.65.65,0,0,0-.25.11h0c-.1.08-.17.21-.27.57a8.87,8.87,0,0,0,0,3.25,48.1,48.1,0,0,0,1.2,6l.15.63c.71,2.9,1.48,5.82,2.32,8.68.07.26.33.44.77.55a7.09,7.09,0,0,0,4.44-.76A.51.51,0,0,1,261.09,63.26ZM251.84,44.1h0Z" fill="#231f20"></path><path d="M260.71,53a4,4,0,0,1,.35-2.2,5.29,5.29,0,0,1,.75-1.57,1.93,1.93,0,0,1,1.46-.85,1.83,1.83,0,0,1,1.36.64,3.46,3.46,0,0,1,.7,1.36,6.41,6.41,0,0,1-1.59,6.24l.12-.21" fill="#fff"></path><path d="M263.74,57.1a.47.47,0,0,1-.3-.1.5.5,0,0,1-.13-.65l.09-.16h0a5.94,5.94,0,0,0,1.42-5.7,3,3,0,0,0-.59-1.17,1.35,1.35,0,0,0-1-.47,1.46,1.46,0,0,0-1.07.65,5.3,5.3,0,0,0-.68,1.44,3.5,3.5,0,0,0-.33,1.92.52.52,0,0,1-.39.6.49.49,0,0,1-.59-.38,4.38,4.38,0,0,1,.37-2.47,5.71,5.71,0,0,1,.82-1.71,2.43,2.43,0,0,1,1.85-1,2.31,2.31,0,0,1,1.74.8,3.9,3.9,0,0,1,.81,1.56A7,7,0,0,1,264.09,57,.5.5,0,0,1,263.74,57.1Z" fill="#231f20"></path><path d="M261.09,63.76a8,8,0,0,0,3.06-3.34s.88,4.49-2.63,6.68Z" fill="#231f20"></path><path d="M261.52,67.6a.59.59,0,0,1-.22,0,.52.52,0,0,1-.28-.39l-.43-3.34a.5.5,0,0,1,.24-.49,7.69,7.69,0,0,0,2.86-3.08.47.47,0,0,1,.51-.32.49.49,0,0,1,.44.4c0,.2.9,4.85-2.86,7.19A.5.5,0,0,1,261.52,67.6Zm.1-3.59.29,2.18a5.75,5.75,0,0,0,1.83-4.09A10,10,0,0,1,261.62,64Z" fill="#231f20"></path><ellipse cx="254.71" cy="51" rx="0.42" ry="1.07" transform="matrix(0.96, -0.26, 0.26, 0.96, -4.42, 69.13)" fill="#231f20"></ellipse><path d="M255.56,61.71a2.2,2.2,0,0,1-.68-.09.5.5,0,0,1,.29-1c.08,0,1.68.46,2.84-1.88a.51.51,0,0,1,.67-.22.5.5,0,0,1,.23.67A3.84,3.84,0,0,1,255.56,61.71Z" fill="#231f20"></path><path d="M258.34,85.2s-26.14,17.65-29.85,17.45-9.11-2.93-9.25-1,5.36,3.6,5.36,3.6-7.65.92-7.41,3.16,2.95,4.82,6.16,4.45,5.47-2,8.33-2.51,32.76-15.14,32.76-15.14Z" fill="#fff"></path><path d="M222.73,113.42a6.21,6.21,0,0,1-3.91-1.42,5.44,5.44,0,0,1-2.12-3.51c-.21-1.92,3.41-2.94,5.87-3.41-1.74-.72-3.94-1.93-3.83-3.45a1.15,1.15,0,0,1,.48-.88c.84-.6,2.55-.13,4.73.46a24.78,24.78,0,0,0,4.57.94h0c2.77,0,19.11-10.35,29.49-17.36a.49.49,0,0,1,.39-.08.5.5,0,0,1,.32.23l6.09,10a.47.47,0,0,1,.06.4.51.51,0,0,1-.26.3c-1.23.6-30,14.7-32.9,15.18a18.21,18.21,0,0,0-3.61,1.14,17.88,17.88,0,0,1-4.74,1.38C223.18,113.4,223,113.42,222.73,113.42Zm-2.45-12a.86.86,0,0,0-.48.1s-.05,0-.06.15c-.08,1.06,2.94,2.46,5,3.08a.5.5,0,0,1-.08,1c-3,.36-7.09,1.47-7,2.61a4.47,4.47,0,0,0,1.75,2.84,5.17,5.17,0,0,0,3.86,1.16,17.08,17.08,0,0,0,4.48-1.31,18.79,18.79,0,0,1,3.81-1.19c2.17-.36,21.68-9.73,32.13-14.85l-5.53-9.12c-4.17,2.8-26.15,17.45-29.73,17.24a25.39,25.39,0,0,1-4.78-1A17.39,17.39,0,0,0,220.28,101.46Z" fill="#231f20"></path><polyline points="268.5 75.3 257.55 83.26 265.65 96.93 274.68 91.2" fill="#7aadf7"></polyline><path d="M265.65,97.43h-.12a.53.53,0,0,1-.31-.24l-8.1-13.66a.51.51,0,0,1,.13-.66l11-8a.5.5,0,0,1,.69.11.49.49,0,0,1-.11.7l-10.58,7.7,7.61,12.83,8.6-5.45a.5.5,0,1,1,.53.84l-9,5.73A.53.53,0,0,1,265.65,97.43Z" fill="#231f20"></path><path d="M178.45,93.92a3.39,3.39,0,0,0-1.73,2.59,1.4,1.4,0,0,0,.21,1,.65.65,0,0,0,.91.16,1.93,1.93,0,0,0-.21,2.78,2.77,2.77,0,0,0,2.91.62,4.94,4.94,0,0,0,2.36-2c1.38-2.08,2.45-6.85-.49-8.16a4.26,4.26,0,0,0-3.82.61c-.54.35-1.48.83-1.43,1.62C177.19,93.7,177.86,94.57,178.45,93.92Z" fill="#fff"></path><path d="M179.53,101.73a3,3,0,0,1-2.27-1,2.55,2.55,0,0,1-.6-2,2.51,2.51,0,0,1,.19-.69,1.47,1.47,0,0,1-.32-.29,1.81,1.81,0,0,1-.3-1.34,3.77,3.77,0,0,1,1-2.18,1.75,1.75,0,0,1-.53-1.13c-.06-1,.86-1.57,1.47-2l.19-.12a4.81,4.81,0,0,1,4.29-.65,3.5,3.5,0,0,1,2,2.33,8.88,8.88,0,0,1-1.25,6.56,5.37,5.37,0,0,1-2.62,2.2A3.64,3.64,0,0,1,179.53,101.73Zm-1.47-3.61a1.19,1.19,0,0,0-.4.79,1.54,1.54,0,0,0,.34,1.19,2.24,2.24,0,0,0,2.38.48,4.4,4.4,0,0,0,2.1-1.8,8,8,0,0,0,1.13-5.73,2.54,2.54,0,0,0-1.41-1.7,3.78,3.78,0,0,0-3.34.58l-.2.13c-.44.27-1,.64-1,1a.83.83,0,0,0,.29.52l.26-.15a.51.51,0,0,1,.64.13.49.49,0,0,1,0,.64,1.18,1.18,0,0,1-.49.34,2.93,2.93,0,0,0-1.11,2,.93.93,0,0,0,.11.64.2.2,0,0,0,.17.08l.06,0a.49.49,0,0,1,.67.1.5.5,0,0,1-.06.68Z" fill="#231f20"></path><rect x="74.66" y="239.35" width="76.3" height="28.61" fill="#fff"></rect><path d="M151,268.46H74.66a.5.5,0,0,1-.5-.5V239.35a.5.5,0,0,1,.5-.5H151a.51.51,0,0,1,.5.5V268A.51.51,0,0,1,151,268.46Zm-75.8-1h75.3V239.85H75.16Z" fill="#231f20"></path><rect x="161.85" y="224.19" width="76.3" height="43.77" fill="#fff"></rect><path d="M238.15,268.46h-76.3a.5.5,0,0,1-.5-.5V224.19a.5.5,0,0,1,.5-.5h76.3a.5.5,0,0,1,.5.5V268A.5.5,0,0,1,238.15,268.46Zm-75.8-1h75.3V224.69h-75.3Z" fill="#231f20"></path><rect x="249.04" y="206.06" width="76.3" height="61.9" fill="#fff"></rect><path d="M325.34,268.46H249a.51.51,0,0,1-.5-.5v-61.9a.5.5,0,0,1,.5-.5h76.3a.5.5,0,0,1,.5.5V268A.5.5,0,0,1,325.34,268.46Zm-75.8-1h75.3v-60.9h-75.3Z" fill="#231f20"></path></g></svg>