<svg xmlns="http://www.w3.org/2000/svg" viewBox="0 0 400 300" width="406" height="306" class="illustration styles_illustrationTablet__1DWOa"><g id="_575_winners_flatline" data-name="#575_winners_flatline"><path d="M59.75,101.22l4.16,17L53.6,122.3S48,105,50.85,103.24,59.75,101.22,59.75,101.22Z" fill="#fff"></path><path d="M53.6,122.8a.5.5,0,0,1-.21,0,.53.53,0,0,1-.27-.3c-.94-3-5.52-17.78-2.53-19.63s8.88-2.09,9.14-2.1a.5.5,0,0,1,.51.38l4.16,17a.5.5,0,0,1-.31.59l-10.31,4.07A.57.57,0,0,1,53.6,122.8Zm5.76-21c-1.39.09-6,.52-8.25,1.92-1.66,1,.6,11,2.8,18l9.41-3.71Z" fill="#231f20"></path><path d="M95.31,206.28s-6.24-3.23-6.68-4.06a39.21,39.21,0,0,0-5.37-5.92c-1.6-1.28-.55-5.83-.9-7.62-.89-4.42-3.55-.68-3.94,1.81l-.6,3.76a.51.51,0,0,1-.18.38.53.53,0,0,1-.44,0c-6.5-2.62-9,11.51-5.4,14.94,2.9,2.75,22.93,9,22.93,9Z" fill="#fff"></path><path d="M94.73,219a.4.4,0,0,1-.15,0c-.82-.25-20.17-6.3-23.13-9.1-2.73-2.58-2.21-9.82.18-13.55,1.48-2.31,3.51-3.1,5.71-2.23l.58-3.69c.28-1.72,1.61-4.25,3.07-4.28h0c.89,0,1.5.82,1.83,2.45a12.65,12.65,0,0,1,0,2.66c-.08,1.78-.18,4,.68,4.67a38.8,38.8,0,0,1,5.5,6.08c.31.47,3.6,2.37,6.47,3.85a.5.5,0,0,1,.27.47l-.58,12.22a.52.52,0,0,1-.22.39A.47.47,0,0,1,94.73,219ZM75.66,194.76a3.92,3.92,0,0,0-3.18,2.11c-2.31,3.59-2.49,10.25-.34,12.29s15.06,6.46,22.12,8.68l.53-11.26c-2-1.07-6.17-3.29-6.6-4.13A40.41,40.41,0,0,0,83,196.69c-1.26-1-1.15-3.39-1.06-5.49a13.52,13.52,0,0,0,0-2.43c-.25-1.21-.61-1.64-.85-1.64h0c-.64,0-1.84,1.79-2.1,3.44l-.59,3.76a1,1,0,0,1-.44.73.93.93,0,0,1-.87,0A3.67,3.67,0,0,0,75.66,194.76Z" fill="#231f20"></path><path d="M133.39,109.06a13.66,13.66,0,0,1,11.75,8.88c1.38,3.93,1.07,8.75,4.09,11.63a7.64,7.64,0,0,0,6.9,1.74,10.21,10.21,0,0,0,5.91-4.19,12.91,12.91,0,0,1-4.85,13.45c-3.62,2.59-8.44,3.08-12.77,2.05a30.39,30.39,0,0,1-11.68-6.19,29,29,0,0,1-10.91-17.23C120.46,112.59,127.39,108.69,133.39,109.06Z" fill="#fff"></path><path d="M148.69,143.63a18.91,18.91,0,0,1-4.38-.52,30.61,30.61,0,0,1-11.88-6.29,29.45,29.45,0,0,1-11.09-17.52,7.66,7.66,0,0,1,1.74-6.82,12.92,12.92,0,0,1,10.34-3.92h0a14.18,14.18,0,0,1,12.19,9.21,29.31,29.31,0,0,1,1,4.23c.54,2.78,1,5.41,2.93,7.21a7.18,7.18,0,0,0,6.44,1.61,9.69,9.69,0,0,0,5.62-4,.49.49,0,0,1,.5-.21.51.51,0,0,1,.39.37,13.32,13.32,0,0,1-5,14A15,15,0,0,1,148.69,143.63ZM132.6,109.54a12,12,0,0,0-8.77,3.59,6.74,6.74,0,0,0-1.51,6A28.46,28.46,0,0,0,133.06,136a29.71,29.71,0,0,0,11.48,6.1,15.43,15.43,0,0,0,12.36-2,12.55,12.55,0,0,0,4.88-11.88,10.57,10.57,0,0,1-5.54,3.51,8.12,8.12,0,0,1-7.36-1.87c-2.12-2-2.68-4.93-3.22-7.74a30.13,30.13,0,0,0-1-4.09,13.16,13.16,0,0,0-11.31-8.54Z" fill="#231f20"></path><path d="M128.45,120a11.07,11.07,0,0,0-5.47-3.66,9.38,9.38,0,0,0-5,.3,4.29,4.29,0,0,0-2.8,2,4.67,4.67,0,0,0,.39,3.67c1.69,4,7.22,12.72,12.43,12.07C135.36,133.47,131.23,123.07,128.45,120Z" fill="#231f20"></path><path d="M127.49,134.92c-5.28,0-10.54-8.24-12.33-12.41a5.06,5.06,0,0,1-.38-4.06,4.59,4.59,0,0,1,3.11-2.3,10,10,0,0,1,5.21-.31,11.52,11.52,0,0,1,5.73,3.81c2,2.19,4.9,8.31,3.45,12.21a4.72,4.72,0,0,1-4.17,3A4.21,4.21,0,0,1,127.49,134.92Zm-6.32-18.3a10.13,10.13,0,0,0-3,.48,3.75,3.75,0,0,0-2.49,1.76,4.22,4.22,0,0,0,.39,3.26c1.69,3.94,7,12.38,11.91,11.77a3.74,3.74,0,0,0,3.35-2.37c1.24-3.34-1.4-9.15-3.26-11.2h0a10.57,10.57,0,0,0-5.21-3.51A7.84,7.84,0,0,0,121.17,116.62Z" fill="#231f20"></path><polygon points="165.17 249.27 166.09 265.71 113.92 265.71 111.23 242.66 165.17 249.27" fill="#231f20"></polygon><path d="M166.09,266.21H113.92a.5.5,0,0,1-.5-.44l-2.68-23a.49.49,0,0,1,.56-.56l53.93,6.61a.5.5,0,0,1,.44.47l.92,16.45a.48.48,0,0,1-.5.52Zm-51.73-1h51.2l-.86-15.5-52.89-6.48Z" fill="#231f20"></path><path d="M134.87,167s21.46,6,26.74,15,6.64,70.39,6.64,70.39S130,258,110.58,249.27c0,0-4.42-24.31-7.81-41.15-1.61-8-1-18.75-1.36-19.13-1.07-1.16-35.85-21.4-38.18-25s-12-44.16-12-44.16L64,113.34s13.74,36.36,16.06,39.4,31.16,17.45,31.16,17.45Z" fill="#68e1fd"></path><path d="M67.24,92.41l.18.24a1.34,1.34,0,0,0,1.89.28,1.36,1.36,0,0,0,.29-1.88c0-.07-.12-.15-.17-.23-8.32-11.41-6.83-21.61-2.65-27.37,2.94-4.05,7.2-6,10.6-4.88s5.47,3.89,6,8.16a21.15,21.15,0,0,1-.27,6.53,1.35,1.35,0,1,0,2.63.61c1.14-4.94,1-15-7.52-17.86-4.52-1.51-10,.85-13.63,5.85C59.86,68.39,58.08,79.83,67.24,92.41Z" fill="#fff"></path><path d="M68.51,93.7l-.28,0A1.87,1.87,0,0,1,67,93l-.18-.25h0c-9.32-12.8-7.48-24.47-2.65-31.13,3.76-5.18,9.47-7.61,14.2-6,8.9,3,9,13.36,7.85,18.45a1.85,1.85,0,1,1-3.61-.83,20.86,20.86,0,0,0,.27-6.36c-.52-4.06-2.43-6.66-5.68-7.74s-7.22.82-10,4.69c-4.07,5.61-5.52,15.59,2.64,26.79a1.68,1.68,0,0,1,.21.3,1.83,1.83,0,0,1-.44,2.51A1.87,1.87,0,0,1,68.51,93.7Zm-.86-1.59.17.24a.85.85,0,0,0,.56.34.84.84,0,0,0,.63-.16.86.86,0,0,0,.18-1.18L69,91.11c-8.47-11.63-6.92-22.07-2.64-28,3.06-4.22,7.55-6.25,11.16-5s5.78,4.09,6.35,8.57a21.67,21.67,0,0,1-.29,6.72.85.85,0,0,0,.65,1,.84.84,0,0,0,1-.64c1.11-4.77,1-14.53-7.19-17.27-4.31-1.43-9.56.85-13.07,5.67-4.62,6.38-6.36,17.6,2.65,30Z" fill="#231f20"></path><path d="M73.79,101.4C83,114,94.38,115.81,102.06,113.3c5.87-1.92,9.79-6.42,9.75-11.18-.08-9-9.65-12.21-14.69-12.64a1.35,1.35,0,0,0-.23,2.69,20.91,20.91,0,0,1,6.3,1.75c3.9,1.82,5.89,4.59,5.92,8.22s-3.14,7-7.89,8.59c-6.77,2.22-16.94.5-25.25-10.92l-.16-.23a1.35,1.35,0,0,0-1.88-.3,1.34,1.34,0,0,0-.31,1.88Z" fill="#fff"></path><path d="M95.83,114.77c-7,0-15.41-3.42-22.44-13.07h0l-.18-.25a1.81,1.81,0,0,1-.32-1.37,1.84,1.84,0,0,1,3.32-.79l.11.15c8.21,11.28,18.16,13,24.74,10.82,4.55-1.49,7.58-4.75,7.55-8.11s-1.93-6-5.63-7.78a20.69,20.69,0,0,0-6.13-1.7A1.85,1.85,0,0,1,97.16,89c5.2.45,15.06,3.76,15.15,13.13,0,5-4,9.67-10.1,11.66A20.51,20.51,0,0,1,95.83,114.77ZM74.2,101.11c9,12.37,20.21,14.16,27.7,11.71,5.67-1.85,9.45-6.15,9.41-10.7C111.23,93.47,102,90.4,97.08,90a.85.85,0,1,0-.15,1.69,21.79,21.79,0,0,1,6.47,1.79c4.09,1.92,6.18,4.83,6.21,8.68s-3.28,7.44-8.24,9.07c-6.91,2.26-17.33.53-25.8-11.1l-.18-.24a.84.84,0,0,0-1.17-.18.77.77,0,0,0-.34.55.83.83,0,0,0,.14.63l.18.24Z" fill="#231f20"></path><path d="M32.51,109.9l14,19.19a1.53,1.53,0,0,0,2.76-.89L49.31,117l-.05-.07,24.29-17.7-4.34-6L44.91,111l0-.08-10.65-3.37A1.53,1.53,0,0,0,32.51,109.9Z" fill="#fff"></path><path d="M47.71,130.22a2,2,0,0,1-1.63-.83l-14-19.2a2,2,0,0,1,2.25-3.13l10.51,3.33,24-17.5a.51.51,0,0,1,.38-.09.48.48,0,0,1,.32.2L74,99a.51.51,0,0,1-.11.7l-24,17.5-.06,11a2,2,0,0,1-1.4,1.92A2,2,0,0,1,47.71,130.22ZM33.73,108a1,1,0,0,0-.82.44,1,1,0,0,0,0,1.21h0l14,19.19a1,1,0,0,0,1.15.37,1,1,0,0,0,.71-1l.06-11.09a.54.54,0,0,1,.15-.56l23.9-17.4L69.1,94l-23.9,17.4a.48.48,0,0,1-.37.09.47.47,0,0,1-.27-.14L34.06,108A1.05,1.05,0,0,0,33.73,108Z" fill="#231f20"></path><path d="M81,68.58h0A18.24,18.24,0,0,1,99.24,86.82V110a0,0,0,0,1,0,0H62.77a0,0,0,0,1,0,0V86.82A18.24,18.24,0,0,1,81,68.58Z" transform="translate(56.53 207.3) rotate(-126.06)" fill="#fff"></path><path d="M79.06,109.45a18.76,18.76,0,0,1-15.18-7.71A18.72,18.72,0,0,1,68,75.57L86.7,61.94a.5.5,0,0,1,.7.11l21.47,29.49a.49.49,0,0,1,.09.37.5.5,0,0,1-.2.33L90.05,105.86A18.55,18.55,0,0,1,79.06,109.45Zm7.82-46.4L68.58,76.37a17.73,17.73,0,0,0-3.89,24.78h0a17.72,17.72,0,0,0,24.78,3.9l18.3-13.33Z" fill="#231f20"></path><polygon points="93.58 80.12 84.06 83.22 78.17 75.13 78.18 85.14 68.67 88.24 78.19 91.32 78.2 101.33 84.07 93.23 93.59 96.31 87.7 88.22 93.58 80.12" fill="#fff"></polygon><path d="M78.2,101.83a.45.45,0,0,1-.16,0,.49.49,0,0,1-.34-.47V91.69l-9.18-3a.51.51,0,0,1,0-1l9.17-3V75.13a.51.51,0,0,1,.34-.48.51.51,0,0,1,.56.18l5.68,7.8,9.17-3a.5.5,0,0,1,.56.18.5.5,0,0,1,0,.59l-5.66,7.81L94,96a.53.53,0,0,1,0,.59.49.49,0,0,1-.56.18l-9.18-3-5.66,7.81A.49.49,0,0,1,78.2,101.83ZM70.29,88.24l8,2.61a.48.48,0,0,1,.35.47v8.47l5-6.86a.5.5,0,0,1,.56-.18l8,2.61-5-6.85a.48.48,0,0,1,0-.58l5-6.86-8,2.62a.48.48,0,0,1-.56-.18l-5-6.84v8.47a.51.51,0,0,1-.34.47Z" fill="#231f20"></path><path d="M127.46,124.28c-.42-.6-.85-1.18-1.28-1.74-4-5.15-10.48-5.24-16-2.61-1.1.53-2.25,1.36-2.32,2.57-2.37-.84-5.07.46-6.62,2.44-5,6.38-4.07,15.78-1.61,23a13.22,13.22,0,0,0,2.39,4.62,11.18,11.18,0,0,0,4.17,2.74c10.73,4.48,25.66-.95,27-13.67C133.81,135.62,130.91,129.26,127.46,124.28Z" fill="#fff"></path><path d="M114.18,157.3a21.15,21.15,0,0,1-8.14-1.58,11.41,11.41,0,0,1-4.36-2.87,13.56,13.56,0,0,1-2.48-4.79c-1.53-4.46-4.42-15.68,1.68-23.43,1.43-1.81,4.05-3.36,6.64-2.77a4.35,4.35,0,0,1,2.48-2.38c5.11-2.45,12.15-3,16.58,2.75.43.57.87,1.16,1.29,1.77,2.48,3.57,6.54,10.62,5.82,17.64a16.47,16.47,0,0,1-8.28,12.67A22.21,22.21,0,0,1,114.18,157.3Zm-7.83-34.57a6.35,6.35,0,0,0-4.68,2.51c-5.8,7.37-3,18.19-1.53,22.49a12.74,12.74,0,0,0,2.29,4.46,10.55,10.55,0,0,0,4,2.61,21.28,21.28,0,0,0,18.48-1.35,15.5,15.5,0,0,0,7.8-11.91c.68-6.7-3.25-13.51-5.65-17h0c-.42-.6-.84-1.18-1.26-1.73-4.07-5.29-10.6-4.74-15.36-2.46-.89.43-2,1.15-2,2.14a.5.5,0,0,1-.66.45A4.24,4.24,0,0,0,106.35,122.73Z" fill="#231f20"></path><path d="M112.82,158.05l1.68,10.12s3.29,5.18,9.64,2.4,6.37-7.68,6.37-7.68l-3.41-18.7c-.14-.8-3.48-3.15-4.18-3.66a27.91,27.91,0,0,0-6.15-3.38,22.24,22.24,0,0,1-3-1.26,8.22,8.22,0,0,1-4.1-6.82,8,8,0,0,1-1.6,6.41c-1,1.22-2.31,2.14-3.18,3.44-1.59,2.37-.75,4.28-.25,6.71.58,2.81.4,5.64,1.27,8.44C107.45,159,112.72,158,112.82,158.05Z" fill="#fff"></path><path d="M120.54,171.89a8.18,8.18,0,0,1-6.47-3.45.62.62,0,0,1-.07-.19l-1.6-9.68c-3.57.18-6-1.36-6.94-4.35a24.74,24.74,0,0,1-.83-5,29.75,29.75,0,0,0-.45-3.49l-.24-1.08c-.47-2-.9-3.83.56-6a13.17,13.17,0,0,1,1.83-2,14.41,14.41,0,0,0,1.38-1.45,7.54,7.54,0,0,0,1.62-4.83,7.46,7.46,0,0,1-.13-1.25.5.5,0,0,1,.45-.51.49.49,0,0,1,.54.41,8.69,8.69,0,0,1,.14,1.25,7.73,7.73,0,0,0,3.71,5.23,14.85,14.85,0,0,0,2.22,1l.69.27a27.47,27.47,0,0,1,6.26,3.44l.21.14c3.32,2.41,4.07,3.27,4.18,3.83,0,.15,3.4,18.7,3.4,18.7,0,.31-.09,5.35-6.66,8.23A9.53,9.53,0,0,1,120.54,171.89ZM115,168c.45.64,3.46,4.55,9,2.13,5.94-2.61,6.07-7,6.07-7.22-1.26-6.88-3.39-18.59-3.4-18.62s-.54-.85-3.78-3.19l-.21-.15a27,27,0,0,0-6-3.31l-.68-.26a16.88,16.88,0,0,1-2.36-1,8.64,8.64,0,0,1-3.48-3.75,8.54,8.54,0,0,1-1.58,3.21,16.54,16.54,0,0,1-1.47,1.54,11.81,11.81,0,0,0-1.69,1.87c-1.22,1.82-.87,3.32-.42,5.22.09.36.17.73.25,1.11a32.27,32.27,0,0,1,.47,3.6,22.61,22.61,0,0,0,.79,4.79c.81,2.62,3,3.88,6.18,3.63a.74.74,0,0,1,.46.06.45.45,0,0,1,.25.35Z" fill="#231f20"></path><path d="M123.16,144.56a4.42,4.42,0,0,1,1.06-2.58,7.83,7.83,0,0,1,2.11-1.58,3.25,3.25,0,0,1,1.36-.5,2.46,2.46,0,0,1,1,.18,3.36,3.36,0,0,1,1.9,1.39,4.14,4.14,0,0,1,.42,1.88,7.77,7.77,0,0,1-.15,2.1,5.32,5.32,0,0,1-6.47,4" fill="#fff"></path><path d="M125.65,150.08a5.91,5.91,0,0,1-1.38-.16.5.5,0,0,1,.24-1,4.82,4.82,0,0,0,5.86-3.6,7.34,7.34,0,0,0,.14-2,3.59,3.59,0,0,0-.35-1.65,3,3,0,0,0-1.63-1.17,2.16,2.16,0,0,0-.82-.15,2.76,2.76,0,0,0-1.13.44,7.27,7.27,0,0,0-2,1.47,3.83,3.83,0,0,0-.93,2.28.52.52,0,0,1-.53.47.5.5,0,0,1-.47-.53,4.93,4.93,0,0,1,1.18-2.88,8.2,8.2,0,0,1,2.25-1.69,3.65,3.65,0,0,1,1.57-.56,3.06,3.06,0,0,1,1.19.2,3.88,3.88,0,0,1,2.17,1.62,4.62,4.62,0,0,1,.49,2.11,8.5,8.5,0,0,1-.17,2.24,5.81,5.81,0,0,1-5.69,4.51Z" fill="#231f20"></path><path d="M112.58,141.18s-2.76,5.71-1.8,6.5,3.2-.14,3.2-.14" fill="#fff"></path><path d="M111.9,148.49a2.24,2.24,0,0,1-1.44-.43c-1.1-.9.57-4.83,1.67-7.1a.49.49,0,0,1,.66-.23.5.5,0,0,1,.24.67c-1.3,2.69-2.2,5.45-1.91,5.91.52.43,2,0,2.67-.23a.49.49,0,0,1,.65.27.51.51,0,0,1-.27.65A6.74,6.74,0,0,1,111.9,148.49Z" fill="#231f20"></path><ellipse cx="116.76" cy="139.24" rx="0.87" ry="1.23" transform="translate(-28.2 29.66) rotate(-12.93)" fill="#231f20"></ellipse><ellipse cx="108.73" cy="140.75" rx="0.87" ry="1.23" transform="translate(-12.73 10.82) rotate(-5.38)" fill="#231f20"></ellipse><path d="M112.82,158.05s6.54.41,9.9-2.33c0,0-2.7,9.17-8.75,9.26Z" fill="#231f20"></path><path d="M114,165.48a.49.49,0,0,1-.49-.41l-1.15-6.94a.49.49,0,0,1,.12-.42.5.5,0,0,1,.4-.16c.07,0,6.39.36,9.56-2.22a.5.5,0,0,1,.79.53c-.11.39-2.88,9.53-9.22,9.62Zm-.56-6.91,1,5.89c4-.38,6.38-5.1,7.35-7.5C118.84,158.5,114.93,158.59,113.41,158.57Z" fill="#231f20"></path><polygon points="112.28 168.62 112.82 173.97 134.87 167 132.45 162.06 112.28 168.62" fill="#fff"></polygon><path d="M112.82,174.46a.48.48,0,0,1-.28-.08.51.51,0,0,1-.22-.36l-.54-5.35a.5.5,0,0,1,.34-.53l20.18-6.55a.5.5,0,0,1,.6.25l2.42,4.94a.51.51,0,0,1,0,.42.54.54,0,0,1-.31.28l-22.05,7A.39.39,0,0,1,112.82,174.46Zm0-5.49.43,4.33,20.91-6.6-2-4Z" fill="#231f20"></path><path d="M125.38,253.65a.51.51,0,0,1-.47-.31c-4.15-10.28-4.36-79.05-4.37-82a.5.5,0,0,1,.5-.5h0a.5.5,0,0,1,.5.5c0,.71.22,71.49,4.3,81.59a.5.5,0,0,1-.28.65A.39.39,0,0,1,125.38,253.65Z" fill="#231f20"></path><path d="M60.47,96.25a13.76,13.76,0,0,1,1.9,8.36c0,.31-.1.67-.38.81a.87.87,0,0,1-.67,0,2.94,2.94,0,0,1-1.67-1.92c0,.86.33,1.7.32,2.56s-.56,1.85-1.43,1.84c-.69,0-1.2-.64-1.61-1.21a4.43,4.43,0,0,1,0,1.88,1.53,1.53,0,0,1-1.31,1.19c-.81,0-1.36-.79-1.75-1.5a1.8,1.8,0,0,1-.79,2.77,3.17,3.17,0,0,1-3.15-.82c-1.79-1.62-2.23-4.3-1.87-6.69a9.89,9.89,0,0,1,3.28-6.15,7.45,7.45,0,0,1,4.81-1.67C57.75,95.65,59.52,94.67,60.47,96.25Z" fill="#fff"></path><path d="M52.28,111.64a4.15,4.15,0,0,1-2.64-1.11c-1.71-1.55-2.47-4.22-2-7.13a10.31,10.31,0,0,1,3.45-6.47,8,8,0,0,1,5.13-1.78h0A8,8,0,0,0,57.45,95c1.15-.2,2.59-.44,3.45,1h0a14.28,14.28,0,0,1,2,8.66,1.43,1.43,0,0,1-.67,1.22,1.3,1.3,0,0,1-1.07,0,3,3,0,0,1-.69-.4,5.68,5.68,0,0,1,0,.59,2.19,2.19,0,0,1-1.92,2.33h0a1.74,1.74,0,0,1-1-.32,4.44,4.44,0,0,1-.1.62,2,2,0,0,1-1.77,1.56,1.75,1.75,0,0,1-1-.28,2.43,2.43,0,0,1-1.38,1.52A2.88,2.88,0,0,1,52.28,111.64ZM56.2,96.15a7,7,0,0,0-4.49,1.55,9.31,9.31,0,0,0-3.1,5.85,6.92,6.92,0,0,0,1.7,6.24,2.76,2.76,0,0,0,2.64.73,1.5,1.5,0,0,0,.84-1.08,1.17,1.17,0,0,0,0-.46c-.13-.21-.24-.4-.31-.54a.5.5,0,0,1,.13-.63.49.49,0,0,1,.65,0,1.66,1.66,0,0,1,.45.69c.33.47.65.7.95.67s.73-.43.83-.82a4.12,4.12,0,0,0-.05-1.67.5.5,0,0,1,.9-.37c.37.52.76,1,1.21,1h0c.52,0,.91-.71.92-1.34a6.45,6.45,0,0,0-.15-1.2,7.55,7.55,0,0,1-.17-1.36.51.51,0,0,1,1-.13,2.38,2.38,0,0,0,1.37,1.58.46.46,0,0,0,.26.06s.07,0,.1-.4A13.26,13.26,0,0,0,60,96.5h0c-.48-.8-1.2-.72-2.42-.51a8.46,8.46,0,0,1-1.42.16Z" fill="#231f20"></path><path d="M112.14,155.69a1.63,1.63,0,0,1-.45-.06c-2.31-.69-1.69-4.88-1.61-5.35a.5.5,0,0,1,.48-.42c4.26-.16,4.31-.06,4.48.27.24.48-.51,3.61-1.52,4.82A1.79,1.79,0,0,1,112.14,155.69ZM111,150.84c-.13,1.2-.15,3.5,1,3.83a.53.53,0,0,0,.51-.11c.83-.61,1.39-2.8,1.56-3.76C113.42,150.78,112.2,150.8,111,150.84Z" fill="#231f20"></path><path d="M148.6,197.67s-9,16.13-10.77,19.32S93.3,202.57,93.3,202.57l-1.77,17.61s58.2,30.79,60.52,23.74,12.63-48.67,12.63-48.67" fill="#68e1fd"></path><path d="M136.66,217.65c-7.57,0-35.76-10.76-39.18-12.08a.5.5,0,0,1-.29-.64.5.5,0,0,1,.65-.29c14.32,5.51,36.72,13.23,39.79,11.89,4.12-1.8,9.28-14,9.33-14.15a.5.5,0,0,1,.92.38c-.21.52-5.37,12.72-9.85,14.69A3.57,3.57,0,0,1,136.66,217.65Z" fill="#231f20"></path><path d="M147.1,245.54c-6.27,0-43.83-19.73-48.19-22a.5.5,0,0,1-.21-.68.51.51,0,0,1,.67-.21c17.48,9.23,44.66,22.67,47.94,21.91s10.42-15.88,14.49-25.86a.5.5,0,1,1,.92.38c-1.05,2.59-10.44,25.33-15.18,26.45A1.89,1.89,0,0,1,147.1,245.54Z" fill="#231f20"></path><polygon points="242.72 234.06 243.86 266.94 183.94 266.94 186 231.96 242.72 234.06" fill="#231f20"></polygon><path d="M243.86,267.44H183.94a.45.45,0,0,1-.36-.16.47.47,0,0,1-.14-.37l2.06-35a.51.51,0,0,1,.52-.47l56.71,2.1a.49.49,0,0,1,.48.49l1.15,32.87a.55.55,0,0,1-.14.37A.51.51,0,0,1,243.86,267.44Zm-59.39-1h58.87l-1.11-31.89-55.76-2.07Z" fill="#231f20"></path><path d="M245.22,162l-.33.16v-.06a.3.3,0,0,0,0-.1s-18.57-7.54-22.78-9.16l-.4-.15-.21-.08a4.54,4.54,0,0,0-1.13-.19c-.15,0-.3,0-.47,0h0c-.31,0-.64,0-1-.06-1.07,0-2.38,0-3.83,0-2,0-4.33.11-6.51.22-1.59.06-3.11.16-4.44.22-.6,0-1.16.07-1.67.1,0,0,0,0-.1,0-.63,0-1.18.09-1.63.1l-.57.06-.82.05s-14.19,7.53-15.06,8.89c-.25.42-12.14,6.45-12.88,72.09h24a6.14,6.14,0,0,0,2.95,4.41,272.9,272.9,0,0,0,29.86-4.41h14.57l.11-3.41c5.18-1.39,9.13-2.75,10.6-3.94C259.6,221.68,245.22,162,245.22,162Zm-52.56,59.71c0-.09.08-.05.14.1C192.69,221.76,192.63,221.73,192.66,221.68Z" fill="#68e1fd"></path><path d="M184.14,212.89a.49.49,0,0,1-.44-.26c-2-3.61-9.26-4.9-9.33-4.92a.5.5,0,1,1,.17-1c.32.05,7.82,1.38,10,5.42a.51.51,0,0,1-.2.68A.53.53,0,0,1,184.14,212.89Z" fill="#231f20"></path><path d="M192.8,221.78c-.11,0-.17-.05-.14-.1S192.74,221.63,192.8,221.78Z" fill="#68e1fd"></path><path d="M186.85,222.47h-.07a.5.5,0,0,1-.43-.56l7.35-52.13a.51.51,0,0,1,.57-.42.5.5,0,0,1,.42.56L187.34,222A.5.5,0,0,1,186.85,222.47Z" fill="#231f20"></path><path d="M225.74,127.68c1-2.23,1.29-5.24,1.68-7.63.29-1.8,1.06-4.71.24-6.45-.53-1.13-2.37-2.29-3.45-2.86-.53-4.49-4.76-7.25-9-7.48a21,21,0,0,0-7.53,1.33c-2.39.77-4.94,1.79-6.19,4a8.16,8.16,0,0,1-.84,1.39,6.7,6.7,0,0,1-1.46,1c-3.35,2.17-3,5.16-2.56,8.59.46,3.64,1.7,7.24,2.06,10.82,4.21.26,8.45.62,12.7.56C214.75,130.91,223.94,131.65,225.74,127.68Z" fill="#fff"></path><path d="M214.83,131.49l-1.82,0h-1.63c-3.45.05-6.94-.18-10.32-.4l-2.41-.16a.49.49,0,0,1-.46-.45,47.58,47.58,0,0,0-1.05-5.58c-.39-1.71-.79-3.47-1-5.23-.43-3.45-.84-6.72,2.78-9.07a4.11,4.11,0,0,1,.39-.24,4.11,4.11,0,0,0,1-.73,4.21,4.21,0,0,0,.54-.86c.07-.15.15-.29.23-.44,1.32-2.28,3.89-3.36,6.48-4.2a21.31,21.31,0,0,1,7.71-1.35c4.19.23,8.73,2.93,9.44,7.66,1,.54,2.85,1.7,3.44,3,.75,1.59.32,3.9,0,5.76-.07.35-.13.68-.18,1s-.14.9-.21,1.38a24.55,24.55,0,0,1-1.5,6.38C224.72,131.14,219.1,131.49,214.83,131.49Zm-3.05-1H213c3.79.06,10.84.15,12.27-3h0a23.75,23.75,0,0,0,1.42-6.1c.07-.48.14-1,.21-1.4s.12-.65.18-1c.31-1.62.72-3.84.11-5.14a8.14,8.14,0,0,0-3.24-2.64.52.52,0,0,1-.26-.38c-.51-4.34-4.68-6.83-8.53-7a20.18,20.18,0,0,0-7.35,1.31c-2.4.77-4.77,1.75-5.92,3.74-.08.13-.15.27-.22.4a4.66,4.66,0,0,1-.67,1.07,4.88,4.88,0,0,1-1.2.91l-.36.23c-3.1,2-2.77,4.7-2.34,8.11a49.76,49.76,0,0,0,1,5.12,52.49,52.49,0,0,1,1,5.29l2,.13c3.35.22,6.82.45,10.24.4Z" fill="#231f20"></path><path d="M203.21,128.3c-.58-4.62-8.16-6-8-.59a8,8,0,0,0,1.85,5.15,4.72,4.72,0,0,0,5.07,1.37" fill="#fff"></path><path d="M200.71,135a5.49,5.49,0,0,1-4-1.81,8.46,8.46,0,0,1-2-5.47c-.1-2.76,1.63-3.88,3.27-4a5.38,5.38,0,0,1,5.69,4.52.49.49,0,0,1-.43.55.5.5,0,0,1-.56-.43,4.43,4.43,0,0,0-4.62-3.65c-1.56.13-2.41,1.21-2.35,3a7.58,7.58,0,0,0,1.72,4.83,4.25,4.25,0,0,0,4.51,1.25.5.5,0,0,1,.65.28.49.49,0,0,1-.27.65A4.35,4.35,0,0,1,200.71,135Z" fill="#231f20"></path><path d="M219.72,128.3c.57-4.62,8.15-6,8-.59a8,8,0,0,1-1.85,5.15,4.71,4.71,0,0,1-5.07,1.37" fill="#fff"></path><path d="M222.21,135a4.35,4.35,0,0,1-1.64-.31.49.49,0,0,1-.27-.65.5.5,0,0,1,.65-.28,4.24,4.24,0,0,0,4.51-1.25,7.56,7.56,0,0,0,1.72-4.83c.06-1.77-.79-2.85-2.35-3a4.41,4.41,0,0,0-4.62,3.65.51.51,0,0,1-.56.43.49.49,0,0,1-.43-.55,5.38,5.38,0,0,1,5.69-4.52c1.64.13,3.37,1.25,3.27,4a8.48,8.48,0,0,1-2,5.47A5.53,5.53,0,0,1,222.21,135Z" fill="#231f20"></path><path d="M202.62,151.26a24.58,24.58,0,0,0,9.52,2c6,.21,7-1.42,7-1.42l-.15-3.22-.33-7.48-.31-7-13.73-.48-.66,5.69-.2,1.84Z" fill="#fff"></path><path d="M213.16,153.77c-.33,0-.68,0-1,0a24.7,24.7,0,0,1-9.73-2.05.51.51,0,0,1-.27-.5l2-17.59a.48.48,0,0,1,.52-.44l13.73.47a.5.5,0,0,1,.48.48l.79,17.69a.46.46,0,0,1-.08.28C219.46,152.27,218.38,153.77,213.16,153.77Zm-10-2.82a25.38,25.38,0,0,0,9,1.8c4.65.16,6.13-.8,6.49-1.11l-.76-17-12.81-.45Z" fill="#231f20"></path><path d="M203.77,141.19a12.11,12.11,0,0,0,4.38,4.11C211,147,215.4,149,219,148.61l-.33-7.48a33.51,33.51,0,0,1-7.91-.22,22.62,22.62,0,0,1-6.79-1.56Z" fill="#231f20"></path><path d="M218,149.17c-3.76,0-7.87-2.1-10.09-3.44a12.47,12.47,0,0,1-4.55-4.29.53.53,0,0,1-.07-.3l.21-1.84a.52.52,0,0,1,.25-.39.51.51,0,0,1,.45,0,22.41,22.41,0,0,0,6.64,1.51,32.33,32.33,0,0,0,7.8.22.53.53,0,0,1,.38.12.49.49,0,0,1,.17.36l.33,7.48a.49.49,0,0,1-.44.52A9.51,9.51,0,0,1,218,149.17Zm-13.69-8.09a11.76,11.76,0,0,0,4.11,3.8c1.81,1.08,6.27,3.49,10.08,3.28l-.28-6.48a35.27,35.27,0,0,1-7.51-.27,25.48,25.48,0,0,1-6.29-1.34Z" fill="#231f20"></path><path d="M223.48,115.85l-.58,16.66a10.42,10.42,0,0,1-.28,2.11,10.53,10.53,0,0,1-10.6,8l-1.23,0a10.54,10.54,0,0,1-9.83-7.91,10.1,10.1,0,0,1-.32-3l.57-16.65s2.61,3.42,10.06,3.35A28.7,28.7,0,0,0,223.48,115.85Z" fill="#fff"></path><path d="M212.38,143.17H212l-1.23,0a11.11,11.11,0,0,1-10.3-8.29,10.76,10.76,0,0,1-.33-3.11l.57-16.66a.52.52,0,0,1,.35-.46.51.51,0,0,1,.55.18s2.54,3.16,9.45,3.16h.2a28.7,28.7,0,0,0,12-2.53.47.47,0,0,1,.5,0,.51.51,0,0,1,.24.44l-.58,16.66a10.49,10.49,0,0,1-.3,2.21A11.06,11.06,0,0,1,212.38,143.17Zm-10.71-26.95-.53,15.53a10,10,0,0,0,.3,2.84,10.08,10.08,0,0,0,9.37,7.53l1.23,0a10,10,0,0,0,10.36-9.67l.55-15.84a30.84,30.84,0,0,1-11.68,2.29C205.93,119,203,117.29,201.67,116.22Z" fill="#231f20"></path><path d="M211.88,125.19s3.46,7.63,1.93,7.77a8.66,8.66,0,0,1-3.7-1" fill="#fff"></path><path d="M213.55,133.47a9.62,9.62,0,0,1-3.67-1.07.5.5,0,0,1,.46-.89,7.83,7.83,0,0,0,3.35,1c.21-.67-.8-3.83-2.26-7.06a.5.5,0,1,1,.91-.42c.9,2,2.93,6.77,2.19,8a.85.85,0,0,1-.67.43Z" fill="#231f20"></path><ellipse cx="207.41" cy="124.03" rx="0.72" ry="1.63" fill="#231f20"></ellipse><ellipse cx="217.06" cy="124.03" rx="0.72" ry="1.63" fill="#231f20"></ellipse><rect x="199.22" y="148.67" width="24.26" height="5.28" fill="#fff"></rect><path d="M223.48,154.45H199.22a.5.5,0,0,1-.5-.5v-5.28a.5.5,0,0,1,.5-.5h24.26a.5.5,0,0,1,.5.5V154A.5.5,0,0,1,223.48,154.45Zm-23.76-1H223v-4.28H199.72Z" fill="#231f20"></path><path d="M192.8,221.78c-.11,0-.17-.05-.14-.1S192.74,221.63,192.8,221.78Z" fill="#68e1fd"></path><path d="M196.35,227.11a.5.5,0,0,1-.14-1c17.13-5,35.79-11.18,36.62-12.78.81-1.84-.39-25.63-1.4-41.18a.51.51,0,0,1,.47-.53.53.53,0,0,1,.53.47c.26,4,2.49,39,1.31,41.64s-31.24,11.59-37.25,13.34A.32.32,0,0,1,196.35,227.11Z" fill="#231f20"></path><path d="M176.32,187.76l-.34,0a1.54,1.54,0,0,1-.31-3.07,3,3,0,0,1,.33,0c16.09-1.66,23.64-10.74,25.35-18.72,1.2-5.61-.4-10.74-4-12.77s-7.51-1.67-11.56,1.13a24.31,24.31,0,0,0-5.35,5.24,1.55,1.55,0,1,1-2.53-1.78c3.32-4.75,12-12.38,21-7.28,4.75,2.71,6.94,9.17,5.46,16.1C202.44,175.65,194.06,185.93,176.32,187.76Z" fill="#fff"></path><path d="M175.83,188.3a2,2,0,0,1-1.3-.47,2,2,0,0,1-.74-1.38,2.06,2.06,0,0,1,1.83-2.23,1,1,0,0,1,.24,0c15.92-1.64,23.34-10.55,25-18.34,1.15-5.39-.35-10.3-3.73-12.22s-7.15-1.58-11,1.11a23.56,23.56,0,0,0-5.23,5.11,2,2,0,0,1-3.35-2.35c3.41-4.88,12.34-12.71,21.63-7.43,4.93,2.81,7.23,9.49,5.7,16.64-2,9.19-10.48,19.68-28.49,21.55h0l-.34,0Zm.49-.54h0Zm16.34-36.38a9.91,9.91,0,0,1,5,1.38c3.76,2.14,5.45,7.48,4.21,13.3-1.74,8.13-9.42,17.43-25.79,19.12h-.25a1.08,1.08,0,0,0-1,1.16,1,1,0,0,0,.38.7,1,1,0,0,0,.76.24l.34,0c17.48-1.81,25.72-11.91,27.61-20.76,1.44-6.72-.66-13-5.22-15.56-8.66-4.93-17.08,2.51-20.32,7.13a1,1,0,1,0,1.72,1.2,24.73,24.73,0,0,1,5.48-5.36A12.57,12.57,0,0,1,192.66,151.38Z" fill="#231f20"></path><path d="M163.64,189.07c-17.74,1.84-28-6.5-31.79-15-2.87-6.48-2-13.26,2.05-16.88,7.74-6.84,17.79-1.14,22,2.83a1.55,1.55,0,0,1-2.12,2.26,24,24,0,0,0-6.31-4c-4.54-1.92-8.42-1.5-11.54,1.26s-3.59,8.07-1.27,13.31c3.3,7.46,12.55,14.8,28.64,13.14l.33,0A1.55,1.55,0,0,1,164,189Z" fill="#fff"></path><path d="M158.8,189.83c-15,0-24-7.73-27.41-15.52-3-6.68-2.08-13.69,2.18-17.45,8-7.08,18.35-1.24,22.69,2.84a2,2,0,0,1-2.8,3,23.38,23.38,0,0,0-6.17-3.94c-4.34-1.84-8-1.44-11,1.17s-3.38,7.69-1.15,12.73c3.22,7.29,12.31,14.49,28.14,12.85l.31,0a2,2,0,1,1,.45,4.06l-.34,0h0A46.4,46.4,0,0,1,158.8,189.83Zm4.84-.76h0Zm-21.42-34.52a11.73,11.73,0,0,0-8,3.06c-3.93,3.47-4.7,10-1.93,16.3,3.67,8.27,13.81,16.47,31.28,14.67l.34,0a1.07,1.07,0,0,0,.93-1.16,1,1,0,0,0-1.15-.92l-.27,0c-16.42,1.7-25.85-5.83-29.21-13.43-2.41-5.44-1.85-11,1.4-13.89s7.33-3.34,12.06-1.34a24.51,24.51,0,0,1,6.47,4.13,1,1,0,0,0,1.43-1.53C152.84,157.86,147.62,154.55,142.22,154.55Z" fill="#231f20"></path><path d="M188,230.75,161,233.55a1.75,1.75,0,0,1-1.36-3l9.48-8.61h.1l-3.55-34.25,8.42-.88L177.61,221h.1l11,6.49A1.75,1.75,0,0,1,188,230.75Z" fill="#fff"></path><path d="M160.78,234.06a2.25,2.25,0,0,1-1.5-3.92l9.38-8.52-3.51-33.93a.45.45,0,0,1,.11-.37.48.48,0,0,1,.33-.18l8.42-.87a.5.5,0,0,1,.55.44l3.51,33.93L189,227.07a2.25,2.25,0,0,1-.91,4.18L161,234.05Zm8.53-11.68-9.36,8.5a1.26,1.26,0,0,0,1,2.18l27.06-2.8h0a1.24,1.24,0,0,0,1.1-1,1.21,1.21,0,0,0-.59-1.34l-10.9-6.41a.49.49,0,0,1-.48-.45l-3.49-33.76-7.43.77,3.5,33.76A.51.51,0,0,1,169.31,222.38Z" fill="#231f20"></path><path d="M147.55,149.92h41.8a0,0,0,0,1,0,0v26.52a20.9,20.9,0,0,1-20.9,20.9h0a20.9,20.9,0,0,1-20.9-20.9V149.92A0,0,0,0,1,147.55,149.92Z" transform="translate(-16.98 18.26) rotate(-5.91)" fill="#fff"></path><path d="M168.7,197.82a21.41,21.41,0,0,1-21.25-19.19l-2.73-26.38a.56.56,0,0,1,.11-.37.57.57,0,0,1,.34-.18l41.57-4.3a.51.51,0,0,1,.55.45L190,174.22a21.42,21.42,0,0,1-19.08,23.49A21.13,21.13,0,0,1,168.7,197.82Zm-22.93-45.17,2.68,25.87a20.4,20.4,0,1,0,40.58-4.2l-2.68-25.87Z" fill="#231f20"></path><polygon points="166.62 155.91 171.26 166.39 182.67 165.21 174.13 172.87 178.78 183.35 168.86 177.6 160.33 185.26 162.73 174.05 152.81 168.3 164.21 167.12 166.62 155.91" fill="#fff"></polygon><path d="M160.33,185.76a.43.43,0,0,1-.25-.07.48.48,0,0,1-.24-.53l2.32-10.86-9.6-5.57a.5.5,0,0,1,.19-.93l11.05-1.14,2.33-10.86a.49.49,0,0,1,.43-.39.51.51,0,0,1,.51.29l4.5,10.15,11.05-1.14a.5.5,0,0,1,.38.87L174.74,173l4.5,10.15a.49.49,0,0,1-.12.57.5.5,0,0,1-.59.06l-9.61-5.56-8.26,7.41A.46.46,0,0,1,160.33,185.76Zm-5.94-17.12,8.59,5a.49.49,0,0,1,.24.53l-2.08,9.71,7.39-6.63a.5.5,0,0,1,.58-.06l8.59,5-4-9.08a.49.49,0,0,1,.12-.57l7.39-6.63-9.88,1a.52.52,0,0,1-.51-.3l-4-9.07-2.08,9.7a.5.5,0,0,1-.44.4Zm9.82-1.52h0Z" fill="#231f20"></path><path d="M196.9,227.24s-4.62.59-7.33-1-9.09-4.65-7.35-1.65,4.64,4.55,4.06,4.55-17.22-1.55-17.41,1,4.26,4.26,6.87,6,22.54,2.32,22.54,2.32Z" fill="#fff"></path><path d="M198.28,239h0c-2.06-.06-20.15-.64-22.81-2.41-.6-.4-1.29-.8-2-1.22-2.57-1.47-5.23-3-5.06-5.23.1-1.33,2.17-2.55,16.63-1.52a14.53,14.53,0,0,1-3.21-3.71c-.45-.76-.48-1.33-.11-1.71,1.16-1.17,6.53,1.75,8.14,2.67,2.53,1.45,7,.91,7,.91a.48.48,0,0,1,.37.1.45.45,0,0,1,.19.33l1.39,11.23a.54.54,0,0,1-.13.4A.52.52,0,0,1,198.28,239Zm-22.22-9.75c-6.52,0-6.69.91-6.69,1-.13,1.6,2.36,3,4.55,4.28.76.43,1.47.84,2.1,1.26,2,1.32,15.8,2,21.69,2.22l-1.25-10.16c-1.3.11-4.82.25-7.14-1.08-3-1.7-6.16-3-6.89-2.84a1.76,1.76,0,0,0,.22.51,14.78,14.78,0,0,0,3.45,3.83c.62.51.87.72.73,1.11a.64.64,0,0,1-.55.36l-.82-.05C181.38,229.33,178.33,229.22,176.06,229.22Z" fill="#231f20"></path><path d="M172.36,200c.28.42,0,1-.28,1.4a15.94,15.94,0,0,1-3.71,3.8,8.73,8.73,0,0,1,4.07-1.72c.55-.08,1.32.11,1.26.66a1,1,0,0,1-.32.5,38.48,38.48,0,0,1-3.26,3c1.38-.66,3.1-1.29,4.33-.38a.86.86,0,0,1,.37.51c.05.35-.25.64-.53.86a29.46,29.46,0,0,1-3.46,2.38,4.83,4.83,0,0,1,4.1-.17.87.87,0,0,1,.53.44.9.9,0,0,1-.05.58c-.89,2.74-3.38,4.63-5.92,6-1.23.66-2.66,1.25-4,.79-3.7-1.31-3.63-9.37-2.85-12.48a7.36,7.36,0,0,1,3-3.92C166.6,201.48,171.27,198.32,172.36,200Z" fill="#fff"></path><path d="M166.5,219.28a3.36,3.36,0,0,1-1.16-.19c-4.15-1.47-3.94-9.94-3.16-13.07a7.8,7.8,0,0,1,3.16-4.19s4.16-3.17,6.37-2.81a1.59,1.59,0,0,1,1.07.66h0c.23.36.38,1-.29,2a14.76,14.76,0,0,1-1.19,1.52,9.66,9.66,0,0,1,1.07-.22,2,2,0,0,1,1.54.4,1,1,0,0,1,.28.82,1.34,1.34,0,0,1-.45.79c-.45.47-.92.92-1.39,1.36a3.12,3.12,0,0,1,2.4.51,1.26,1.26,0,0,1,.56.84,1.48,1.48,0,0,1-.71,1.32c-.4.33-.82.64-1.25,1a5.25,5.25,0,0,1,1.78.41,1.34,1.34,0,0,1,.8.73,1.31,1.31,0,0,1,0,.9c-.79,2.42-2.8,4.48-6.16,6.3A7.09,7.09,0,0,1,166.5,219.28ZM171.31,200c-1.49,0-4.41,1.89-5.36,2.63a6.88,6.88,0,0,0-2.8,3.64c-.76,3-.81,10.71,2.53,11.89,1.16.41,2.52-.19,3.57-.76,3.13-1.69,5-3.56,5.69-5.73a.62.62,0,0,0,.05-.25s0-.06-.25-.15a4.4,4.4,0,0,0-3.67.15.51.51,0,0,1-.68-.19.51.51,0,0,1,.19-.68,29.28,29.28,0,0,0,3.4-2.34c.35-.27.34-.38.34-.39s0-.09-.17-.19c-1-.75-2.57-.16-3.82.44a.5.5,0,0,1-.53-.84,37.63,37.63,0,0,0,3.22-3,.6.6,0,0,0,.18-.22,1.23,1.23,0,0,0-.69-.1,8.24,8.24,0,0,0-3.59,1.45l-.26.18a.48.48,0,0,1-.69-.1.51.51,0,0,1,.09-.7l.26-.19a15.21,15.21,0,0,0,3.35-3.49c.26-.39.37-.7.27-.85a.55.55,0,0,0-.39-.22Z" fill="#231f20"></path><path d="M212.14,222.14a.5.5,0,0,1-.5-.5V154a.5.5,0,0,1,.5-.5.51.51,0,0,1,.5.5v67.69A.51.51,0,0,1,212.14,222.14Z" fill="#231f20"></path><path d="M212.84,136.28a5.9,5.9,0,0,1-5.14-3.06.5.5,0,1,1,.86-.5,5,5,0,0,0,4.54,2.55.49.49,0,0,1,.55.44.5.5,0,0,1-.44.55S213.05,136.28,212.84,136.28Z" fill="#231f20"></path><path d="M174.2,204.46a3.39,3.39,0,0,0,1.27,2.47,1.21,1.21,0,0,0,.78.18c2-.35,2.22-5.75,1.15-7.07a2.09,2.09,0,0,0-2.91-.3C173.36,200.73,174,203.19,174.2,204.46Z" fill="#fff"></path><path d="M176.1,207.62a1.75,1.75,0,0,1-.88-.26,3.85,3.85,0,0,1-1.51-2.82h0l-.09-.45c-.27-1.45-.68-3.65.54-4.73a2.39,2.39,0,0,1,1.8-.57,2.65,2.65,0,0,1,1.83.93c.87,1.07,1,4.16.27,6.11-.49,1.3-1.21,1.68-1.72,1.77Zm-1.41-3.24a3,3,0,0,0,1,2.12.72.72,0,0,0,.44.12c.49-.09.81-.75,1-1.14.64-1.69.47-4.41-.11-5.13a1.6,1.6,0,0,0-1.13-.56,1.38,1.38,0,0,0-1.06.32c-.79.7-.43,2.64-.21,3.8Z" fill="#231f20"></path><path d="M353.6,83.5a10.86,10.86,0,0,1,.52,3.93A19.36,19.36,0,0,1,351.64,97c-1.38,2.32-4.71,6-7.74,6-2.82,0-2.69-1.14-2.21-3.59s1-8.13,2.09-10.41c1.73-3.75,2.08-7.81,3.17-11.73C349.59,78.39,352.57,80.72,353.6,83.5Z" fill="#fff"></path><path d="M344,103.5h-.06a3.15,3.15,0,0,1-2.56-.81c-.64-.79-.4-2-.13-3.37.14-.72.29-1.7.45-2.78.4-2.7.9-6.07,1.68-7.75a34.77,34.77,0,0,0,2.17-7.51c.29-1.36.58-2.77,1-4.14a.51.51,0,0,1,.27-.32.53.53,0,0,1,.41,0c2.47,1,5.77,3.37,6.93,6.52h0a11.53,11.53,0,0,1,.55,4.11,19.81,19.81,0,0,1-2.55,9.85C350.57,99.8,347.19,103.5,344,103.5ZM347.28,78c-.31,1.17-.56,2.36-.8,3.52a35.85,35.85,0,0,1-2.24,7.72c-.72,1.55-1.21,4.84-1.6,7.48-.17,1.1-.32,2.09-.46,2.82-.25,1.29-.39,2.16-.08,2.55s.83.43,1.8.44c2.62,0,5.88-3.32,7.31-5.72a18.86,18.86,0,0,0,2.41-9.36,10.37,10.37,0,0,0-.49-3.74C352.21,81.2,349.62,79.09,347.28,78Z" fill="#231f20"></path><polygon points="263.64 251.67 263.64 266.94 316.01 265.71 315.83 236.51 263.64 251.67" fill="#231f20"></polygon><path d="M263.64,267.44a.5.5,0,0,1-.5-.5V251.67a.5.5,0,0,1,.36-.48L315.69,236a.49.49,0,0,1,.44.07.54.54,0,0,1,.2.4l.18,29.2a.5.5,0,0,1-.49.5l-52.36,1.23Zm.5-15.39v14.38l51.36-1.2-.17-28.05Z" fill="#231f20"></path><path d="M304.66,256s3.52,2.22,4.15,2,3.75-1.35,4.93-1.32,2.05.4,3.66,2.13,3,2.46,1.69,4.13c0,0,2.42.42.44,3.17s-4,4.76-5.27,4.9-18.53-8.76-18.53-8.76Z" fill="#fff"></path><path d="M314.27,271.52c-1.53,0-14.72-6.73-18.76-8.81a.48.48,0,0,1-.27-.41.47.47,0,0,1,.21-.44l8.92-6.3a.52.52,0,0,1,.56,0,17.74,17.74,0,0,0,3.79,2l.68-.23a16.93,16.93,0,0,1,4.35-1.1c1.46,0,2.44.59,4,2.29.28.3.55.56.8.81,1.07,1.07,2,2,1.29,3.41a1.85,1.85,0,0,1,.84.9c.3.75.05,1.7-.75,2.81-1.32,1.82-3.79,4.91-5.62,5.1ZM296.7,262.2c6.52,3.35,16.48,8.28,17.54,8.33,1-.11,2.91-1.95,4.89-4.7.57-.78.79-1.44.63-1.84a1.09,1.09,0,0,0-.75-.53.52.52,0,0,1-.38-.32.49.49,0,0,1,.07-.48c.75-1,.42-1.39-.85-2.65-.26-.26-.53-.53-.82-.84-1.53-1.64-2.28-1.94-3.3-2h0a19.72,19.72,0,0,0-4,1.05l-.78.25c-.54.15-2-.5-4.26-1.93Z" fill="#231f20"></path><path d="M280.39,165.62s-20.22,9.35-24,19.08,4.72,70.55,4.72,70.55,38.65-.56,56.43-12.32c0,0,1.29-56.59,2.16-57.91s22.81-48.54,24.53-52.46S356.6,90.94,356.6,90.94l-14-1.58s-12.48,33.05-14.28,36.43S304.24,165,304.24,165Z" fill="#68e1fd"></path><path d="M342.74,67l-.24.18A1.35,1.35,0,1,1,340.86,65a1.06,1.06,0,0,1,.23-.17c11.17-8.64,12.6-18.84,10.19-25.55-1.69-4.71-5.23-7.78-8.81-7.64s-6.34,2.2-8.05,6.15a20.92,20.92,0,0,0-1.57,6.35,1.35,1.35,0,0,1-2.69-.16c.28-5.05,3.2-14.7,12.21-15,4.76-.18,9.36,3.61,11.45,9.43C356.55,46,355.05,57.49,342.74,67Z" fill="#fff"></path><path d="M341.69,68l-.25,0a1.84,1.84,0,0,1-.89-3.29s.1-.09.17-.14c11-8.51,12.43-18.5,10.09-25-1.61-4.5-4.94-7.44-8.32-7.31s-6,2.09-7.61,5.85a20.73,20.73,0,0,0-1.53,6.17,1.85,1.85,0,0,1-3.69-.21c.29-5.21,3.32-15.16,12.69-15.51,5-.2,9.78,3.74,11.94,9.76C357.07,46,355.58,57.71,343,67.4h0l-.24.18A1.8,1.8,0,0,1,341.69,68Zm1.05-1h0Zm0-35.83c3.71,0,7.33,3.17,9.05,8,2.46,6.85,1,17.31-10.36,26.11l-.1.08-.13.1a.85.85,0,0,0-.15,1.18.86.86,0,0,0,.56.33.83.83,0,0,0,.63-.17l.23-.18c12.11-9.35,13.58-20.61,10.92-28-2-5.62-6.38-9.29-11-9.1-8.65.33-11.46,9.67-11.73,14.57a.85.85,0,1,0,1.69.1A21.79,21.79,0,0,1,334,37.63c1.79-4.14,4.65-6.31,8.49-6.45Z" fill="#231f20"></path><path d="M333.93,73.8c-12.31,9.52-23.79,8.07-30.46,3.52-5.1-3.49-7.61-8.9-6.23-13.47,2.6-8.63,12.67-9,17.63-8a1.35,1.35,0,0,1-.53,2.65,21.24,21.24,0,0,0-6.54-.09c-4.25.67-6.93,2.77-8,6.24s1.05,7.64,5.17,10.46c5.89,4,16.12,5.21,27.29-3.42l.23-.18a1.35,1.35,0,0,1,1.66,2.13Z" fill="#fff"></path><path d="M315.42,81.36a21.7,21.7,0,0,1-12.23-3.63c-5.29-3.61-7.87-9.25-6.43-14,2.7-9,13.09-9.4,18.21-8.37a1.85,1.85,0,1,1-.73,3.63,20.72,20.72,0,0,0-6.36-.08c-4,.63-6.59,2.61-7.58,5.89s1,7.2,5,9.9C311,78.58,321,79.74,332,71.27l.22-.17a1.84,1.84,0,0,1,2.59.32,1.85,1.85,0,0,1-.31,2.59l-.2.16,0,0C327.52,79.39,321,81.36,315.42,81.36ZM310.79,56c-5,0-11.16,1.68-13.08,8-1.31,4.35,1.12,9.54,6,12.9,6.51,4.45,17.77,5.86,29.88-3.49l0,0,.2-.15a.85.85,0,0,0,.32-.57A.81.81,0,0,0,334,72a.85.85,0,0,0-1.19-.15l-.17.13c-11.45,8.84-21.93,7.59-27.94,3.48-4.31-2.94-6.47-7.37-5.37-11s3.93-5.9,8.39-6.59a21.25,21.25,0,0,1,6.72.09.85.85,0,0,0,.32-1.67A20.9,20.9,0,0,0,310.79,56ZM333.93,73.8h0Z" fill="#231f20"></path><path d="M371.19,93.51,352.41,108a1.53,1.53,0,0,1-2.41-1.63l3.07-10.74.07-.05L334.76,71.82l5.85-4.52L359,91.08l.07,0,11.17-.26A1.53,1.53,0,0,1,371.19,93.51Z" fill="#fff"></path><path d="M351.47,108.85a2,2,0,0,1-1.14-.36,2,2,0,0,1-.81-2.23l3-10.61L334.37,72.12a.5.5,0,0,1-.11-.37.5.5,0,0,1,.2-.33l5.84-4.52a.51.51,0,0,1,.7.09l18.18,23.53,11-.25a2,2,0,0,1,2,1.35,2,2,0,0,1-.67,2.28h0l-18.79,14.52A2,2,0,0,1,351.47,108.85Zm2-12.91-3,10.59a1,1,0,0,0,.41,1.13,1,1,0,0,0,1.21,0l18.79-14.52a1,1,0,0,0,.34-1.16,1,1,0,0,0-1-.68l-11.07.26a.47.47,0,0,1-.2,0,.57.57,0,0,1-.37-.16L340.52,68l-5.06,3.91,18.08,23.38A.51.51,0,0,1,353.51,95.94Zm17.68-2.43h0Z" fill="#231f20"></path><path d="M312.17,39.45h36.48a0,0,0,0,1,0,0V62.59A18.24,18.24,0,0,1,330.4,80.83h0a18.24,18.24,0,0,1-18.24-18.24V39.45A0,0,0,0,1,312.17,39.45Z" transform="translate(32.19 214.58) rotate(-37.69)" fill="#fff"></path><path d="M331.94,80.82a18,18,0,0,1-2.42-.16,18.55,18.55,0,0,1-12.44-7.13L302.93,55.22a.44.44,0,0,1-.1-.37.45.45,0,0,1,.19-.33l28.86-22.3a.5.5,0,0,1,.7.09l14.15,18.31a18.73,18.73,0,0,1-3.37,26.28h0A18.63,18.63,0,0,1,331.94,80.82ZM304,55l13.85,17.91a17.73,17.73,0,0,0,24.88,3.19h0a17.73,17.73,0,0,0,3.19-24.88L332.09,33.32Zm39,21.5h0Z" fill="#231f20"></path><polygon points="320.89 47.83 329.16 53.47 337.08 47.35 334.27 56.96 342.54 62.6 332.53 62.9 329.73 72.5 326.35 63.08 316.35 63.37 324.27 57.26 320.89 47.83" fill="#fff"></polygon><path d="M329.72,73a.51.51,0,0,1-.47-.33L326,63.59l-9.64.28a.51.51,0,0,1-.48-.33A.5.5,0,0,1,316,63l7.63-5.9L320.42,48a.5.5,0,0,1,.17-.56.5.5,0,0,1,.59,0l8,5.43L336.78,47a.5.5,0,0,1,.78.53l-2.71,9.26,8,5.44a.49.49,0,0,1,.2.55.5.5,0,0,1-.47.36l-9.64.28-2.71,9.26a.49.49,0,0,1-.46.36Zm-3.37-10.42a.5.5,0,0,1,.47.33l2.86,8,2.37-8.13a.5.5,0,0,1,.47-.35l8.46-.25-7-4.78a.49.49,0,0,1-.2-.55l2.38-8.13-6.7,5.18a.51.51,0,0,1-.59,0l-7-4.78,2.86,8a.49.49,0,0,1-.17.56l-6.7,5.18,8.47-.25Z" fill="#231f20"></path><path d="M281.5,122.47c2.36-3.12,5.75-5.72,9.14-5.7a5.93,5.93,0,0,1,5.74,4.16,6.79,6.79,0,0,1,9.32-2.23,8.87,8.87,0,0,1,2.84,3.46c3,6.08,1,13.42,2.36,20.07.25,1.2,1,2.66,2.21,2.47.55,1.39-.6,3-2,3.42a6.59,6.59,0,0,1-4.34-.59,16.28,16.28,0,0,0-4.2-1.47c-3.25-.37-6.47,1.33-9.59,2-3.71.74-7.48,1.26-11.21,1.9a13.59,13.59,0,0,1-5.78.13,6.86,6.86,0,0,1-4.71-4.69,1.32,1.32,0,0,0,1.71.27,3.47,3.47,0,0,0,1.24-1.41,27.62,27.62,0,0,0,3.59-10.38,41.82,41.82,0,0,1,.87-5.92A17.38,17.38,0,0,1,281.5,122.47Z" fill="#fff"></path><path d="M278.14,150.82a8.59,8.59,0,0,1-2.3-.29,7.32,7.32,0,0,1-5.06-5,.49.49,0,0,1,.27-.59.5.5,0,0,1,.62.17.86.86,0,0,0,1.06.12,3.11,3.11,0,0,0,1-1.23,27.43,27.43,0,0,0,3.53-10.2c.08-.59.14-1.18.2-1.78a23.67,23.67,0,0,1,.68-4.21,17.75,17.75,0,0,1,2.91-5.61h0c2.79-3.7,6.33-5.9,9.48-5.9h.06a6.63,6.63,0,0,1,5.88,3.56,7.17,7.17,0,0,1,4-2.43,6.94,6.94,0,0,1,5.51.89,9.17,9.17,0,0,1,3,3.65c1.85,3.74,1.86,8,1.86,12.07a41.38,41.38,0,0,0,.54,8.12c.19.91.79,2.22,1.65,2.08a.49.49,0,0,1,.54.31,2.69,2.69,0,0,1-.13,2.18,3.76,3.76,0,0,1-2.22,1.9,7.21,7.21,0,0,1-4.68-.61l-.86-.37a11.35,11.35,0,0,0-3.2-1.06,15.81,15.81,0,0,0-6.22,1.06,33.24,33.24,0,0,1-3.21.89c-2.48.5-5,.9-7.49,1.29l-3.74.61A22.89,22.89,0,0,1,278.14,150.82Zm-6-4.5a6.38,6.38,0,0,0,3.94,3.25,13.24,13.24,0,0,0,5.57-.15l3.74-.61c2.45-.39,5-.79,7.45-1.28a31,31,0,0,0,3.11-.86,16.27,16.27,0,0,1,6.63-1.1,12.37,12.37,0,0,1,3.5,1.13l.84.37a6.3,6.3,0,0,0,4,.57,2.72,2.72,0,0,0,1.61-1.38,1.81,1.81,0,0,0,.19-1c-1.22-.11-2-1.46-2.33-2.88a42.14,42.14,0,0,1-.56-8.32c0-4.16,0-8.09-1.76-11.63a8.11,8.11,0,0,0-2.67-3.26,6.27,6.27,0,0,0-8.6,2,.49.49,0,0,1-.5.25.5.5,0,0,1-.42-.38,5.41,5.41,0,0,0-5.27-3.77c-2.89,0-6.11,2-8.73,5.5h0a17,17,0,0,0-2.75,5.28,24,24,0,0,0-.65,4c-.06.61-.12,1.21-.2,1.82a28.62,28.62,0,0,1-3.65,10.57,4.13,4.13,0,0,1-1.44,1.59A2,2,0,0,1,272.16,146.32Zm9.34-23.85h0Z" fill="#231f20"></path><path d="M300.72,153.25l0,10.26a7.53,7.53,0,0,1-9.14,3.91c-6.71-1.73-7.51-6.56-7.51-6.56l.36-19c0-.29,2.13-2.18,2.37-2.67,1-2.07,1.38-4.71,2.18-6.95a22.33,22.33,0,0,1,1.39-3.26c1-1.71,2.83-3.26,4.73-2.74s2.62,2.47,2.91,4.27a3.53,3.53,0,0,1,3.75-2.16c1.21.19,3.46,2.19,3.91,3,.54,1,.45,2.93.59,4,.55,4.15,1.24,8.63.65,12.81C306.16,153.28,300.82,153.17,300.72,153.25Z" fill="#fff"></path><path d="M294,168.25a10.22,10.22,0,0,1-2.57-.34c-6.95-1.8-7.85-6.76-7.89-7s.36-18.93.36-19.09c0-.32.24-.58,1.32-1.68a12.91,12.91,0,0,0,1.1-1.2,20.48,20.48,0,0,0,1.33-4c.25-.95.5-1.94.83-2.86a21.76,21.76,0,0,1,1.43-3.35c1.08-1.9,3.13-3.56,5.29-3a4.7,4.7,0,0,1,3,3.45,4.07,4.07,0,0,1,3.62-1.36c1.44.23,3.78,2.38,4.27,3.3a8,8,0,0,1,.56,3.09c0,.41.05.79.09,1.1l.12.94c.53,4,1.08,8.07.52,12-.43,3.11-2.62,5-6.15,5.41l0,9.81a.71.71,0,0,1,0,.2A8.06,8.06,0,0,1,294,168.25ZM284.9,142c0,1.1-.2,10.74-.36,18.89,0,.09.85,4.45,7.14,6.07,5.82,1.5,8.17-2.84,8.51-3.54l0-10.15a.51.51,0,0,1,.19-.4.75.75,0,0,1,.45-.12c3.23-.28,5.14-1.86,5.52-4.58.54-3.8,0-7.84-.52-11.74l-.12-.94c-.05-.33-.07-.74-.1-1.17a7.47,7.47,0,0,0-.44-2.68,8.23,8.23,0,0,0-3.55-2.78,3,3,0,0,0-3.2,1.85.5.5,0,0,1-1-.1c-.13-.78-.69-3.36-2.55-3.87-1.64-.45-3.3,1-4.16,2.5a20.8,20.8,0,0,0-1.36,3.19c-.31.88-.56,1.85-.8,2.78a21,21,0,0,1-1.41,4.23,8.58,8.58,0,0,1-1.28,1.45C285.58,141.24,285.05,141.76,284.9,142Zm15.79,21.53h0Z" fill="#231f20"></path><path d="M288.36,141.59a4.34,4.34,0,0,0-1.46-2.37,7.82,7.82,0,0,0-2.34-1.23,3.49,3.49,0,0,0-1.42-.28,2.76,2.76,0,0,0-1,.34,3.37,3.37,0,0,0-1.65,1.68,4,4,0,0,0-.12,1.92,8.14,8.14,0,0,0,.49,2.06,5.34,5.34,0,0,0,7,2.89" fill="#fff"></path><path d="M285.83,147.52a5.84,5.84,0,0,1-5.39-3.62,8.39,8.39,0,0,1-.52-2.19,4.42,4.42,0,0,1,.14-2.16,3.82,3.82,0,0,1,1.88-1.94,3,3,0,0,1,1.15-.39,3.75,3.75,0,0,1,1.64.3,8.43,8.43,0,0,1,2.49,1.31,4.87,4.87,0,0,1,1.62,2.65.49.49,0,0,1-.37.6.5.5,0,0,1-.6-.38,3.92,3.92,0,0,0-1.29-2.1,7.52,7.52,0,0,0-2.19-1.14,2.83,2.83,0,0,0-1.19-.25,2.18,2.18,0,0,0-.78.28,3,3,0,0,0-1.42,1.42,3.51,3.51,0,0,0-.09,1.68,7.74,7.74,0,0,0,.45,1.93,4.84,4.84,0,0,0,6.37,2.62.5.5,0,0,1,.65.26.51.51,0,0,1-.26.66A6,6,0,0,1,285.83,147.52Z" fill="#231f20"></path><path d="M298.26,136.56s3.64,5.19,2.82,6.13-3.18.37-3.18.37" fill="#fff"></path><path d="M299.35,143.73a7.61,7.61,0,0,1-1.57-.18.5.5,0,0,1,.23-1c.68.16,2.22.32,2.69-.21.19-.48-1.14-3.07-2.85-5.51a.5.5,0,0,1,.13-.7.49.49,0,0,1,.69.12c1.44,2.06,3.72,5.68,2.78,6.75A2.77,2.77,0,0,1,299.35,143.73Z" fill="#231f20"></path><ellipse cx="295.36" cy="135.41" rx="1.23" ry="0.87" transform="translate(141.06 421.36) rotate(-86.28)" fill="#231f20"></ellipse><ellipse cx="302.87" cy="135.46" rx="0.87" ry="1.23" transform="translate(-8.37 20.52) rotate(-3.83)" fill="#231f20"></ellipse><path d="M298.47,146.84c-2,0-4.73-.32-6.5-1.76a.49.49,0,0,1-.08-.7.51.51,0,0,1,.71-.07c2.75,2.23,8.45,1.35,8.5,1.34a.52.52,0,0,1,.58.42.5.5,0,0,1-.42.57A18.26,18.26,0,0,1,298.47,146.84Z" fill="#231f20"></path><path d="M300.72,153.25s-6.39,1.45-10.14-.71c0,0,4.13,8.62,10.12,7.74Z" fill="#231f20"></path><path d="M299.83,160.85c-5.75,0-9.54-7.75-9.71-8.09a.52.52,0,0,1,.12-.59.5.5,0,0,1,.59-.06c3.54,2,9.72.66,9.78.65a.45.45,0,0,1,.42.1.49.49,0,0,1,.19.39l0,7a.51.51,0,0,1-.43.5A7.57,7.57,0,0,1,299.83,160.85Zm-8.09-7.25c1.35,2.22,4.46,6.5,8.46,6.23l0-6C298.73,154.13,294.85,154.66,291.74,153.6Z" fill="#231f20"></path><polygon points="302.95 163.6 303.27 168.96 280.39 165.62 281.99 160.36 302.95 163.6" fill="#fff"></polygon><path d="M303.27,169.46h-.07l-22.88-3.35a.47.47,0,0,1-.35-.23.49.49,0,0,1-.06-.41l1.6-5.26a.49.49,0,0,1,.55-.35l21,3.24a.51.51,0,0,1,.42.47l.32,5.36a.5.5,0,0,1-.16.4A.48.48,0,0,1,303.27,169.46ZM281,165.2l21.69,3.18-.26-4.35-20.13-3.11Z" fill="#231f20"></path><path d="M271.75,198.09s4.95,34.77,7.18,37.65S307.36,256,307.36,256L298,264.8s-30.88-6.54-34.31-13.13-8.15-53.39-8.15-53.39" fill="#68e1fd"></path><path d="M303.55,249.64l-.11,0a.5.5,0,0,1-.38-.6c2.41-10.62-8.7-80.52-8.81-81.23a.49.49,0,0,1,.41-.57.51.51,0,0,1,.58.42c.46,2.88,11.25,70.79,8.8,81.61A.5.5,0,0,1,303.55,249.64Z" fill="#231f20"></path><path d="M307.36,256.52a.48.48,0,0,1-.26-.07c-2.79-1.64-27.35-16.21-28.65-20.57s-6.64-46.57-6.87-48.37A.51.51,0,0,1,272,187a.5.5,0,0,1,.55.43c.06.44,5.58,44,6.84,48.21,1,3.38,20.7,15.58,28.2,20a.51.51,0,0,1,.18.69A.52.52,0,0,1,307.36,256.52Z" fill="#231f20"></path><path d="M348.67,73.4a13.93,13.93,0,0,0-4.16,7.5.93.93,0,0,0,.14.88.8.8,0,0,0,.66.14,2.88,2.88,0,0,0,2.13-1.37c-.24.83-.79,1.54-1,2.37s0,1.93.86,2.16a2.24,2.24,0,0,0,1.88-.71,4.5,4.5,0,0,0-.56,1.8,1.52,1.52,0,0,0,.91,1.51c.78.25,1.54-.38,2.11-1a1.81,1.81,0,0,0,0,2.89,3.18,3.18,0,0,0,3.25.08c2.17-1,3.35-3.5,3.67-5.89A9.89,9.89,0,0,0,357.09,77,7.42,7.42,0,0,0,352.94,74C351.45,73.59,350,72.15,348.67,73.4Z" fill="#fff"></path><path d="M353.18,90.6a3.07,3.07,0,0,1-1.89-.6,2.48,2.48,0,0,1-.9-1.85,1.65,1.65,0,0,1-1,0,2,2,0,0,1-1.27-2,4.17,4.17,0,0,1,.08-.63,1.72,1.72,0,0,1-1,0,2.18,2.18,0,0,1-1.2-2.77,5.31,5.31,0,0,1,.2-.56,3,3,0,0,1-.78.19,1.26,1.26,0,0,1-1-.27,1.43,1.43,0,0,1-.3-1.35A14.26,14.26,0,0,1,348.33,73h0c1.23-1.13,2.54-.5,3.59,0a9.33,9.33,0,0,0,1.16.49,7.91,7.91,0,0,1,4.42,3.14A10.26,10.26,0,0,1,359,83.86c-.39,2.93-1.86,5.28-3.94,6.28A4.24,4.24,0,0,1,353.18,90.6Zm-1.66-3.1a1.27,1.27,0,0,0-.12.44,1.46,1.46,0,0,0,.51,1.27,2.72,2.72,0,0,0,2.73,0c1.77-.86,3-2.92,3.38-5.51a9.37,9.37,0,0,0-1.34-6.48,6.92,6.92,0,0,0-3.88-2.74,10.2,10.2,0,0,1-1.32-.55c-1.11-.55-1.78-.83-2.47-.19h0A13.32,13.32,0,0,0,345,81c-.06.34,0,.42,0,.42h0a.45.45,0,0,0,.26,0A2.4,2.4,0,0,0,347,80.29a.5.5,0,0,1,.91.4,7.47,7.47,0,0,1-.54,1.26,6.65,6.65,0,0,0-.48,1.11c-.17.61,0,1.4.51,1.54s.95-.22,1.44-.62a.51.51,0,0,1,.62,0,.5.5,0,0,1,.14.61,4.19,4.19,0,0,0-.52,1.59,1,1,0,0,0,.58,1c.29.1.65,0,1.1-.38a1.7,1.7,0,0,1,.62-.54.5.5,0,0,1,.58.79A4.89,4.89,0,0,1,351.52,87.5Z" fill="#231f20"></path><path d="M131.36,61.75a.44.44,0,0,1-.35-.16,3.05,3.05,0,0,1,.4-4.06A8.16,8.16,0,0,1,135,55.77a13.53,13.53,0,0,1,5.12-.79,6.15,6.15,0,0,1,2.16-2.17,14.27,14.27,0,0,1,5.25-1.52.48.48,0,0,1,.55.4.47.47,0,0,1-.4.54,13.55,13.55,0,0,0-4.92,1.4,5.21,5.21,0,0,0-1.64,1.54,5,5,0,0,1,2.9,2.28,3.33,3.33,0,0,1,.32,2.65.47.47,0,0,1-.24.28,2.81,2.81,0,0,1-2.64-.08,3.58,3.58,0,0,1-1.92-2.66,4.16,4.16,0,0,1,.17-1.73,13.43,13.43,0,0,0-4.44.78,7.18,7.18,0,0,0-3.15,1.52,2.15,2.15,0,0,0-.37,2.75.47.47,0,0,1,0,.67A.47.47,0,0,1,131.36,61.75ZM140.64,56a3.22,3.22,0,0,0-.18,1.48,2.67,2.67,0,0,0,1.41,1.94,2,2,0,0,0,1.58.15,2.42,2.42,0,0,0-.3-1.7,3.91,3.91,0,0,0-2.38-1.84Z" fill="#d1d3d4"></path><path d="M251.1,59.76a.47.47,0,0,1-.27-.08.49.49,0,0,1-.12-.67,3.73,3.73,0,0,0,.07-4,6.25,6.25,0,0,0-.44-.61,5.11,5.11,0,0,1-.79-1.25c-1-2.58,1.78-4.74,4.49-5.82a.49.49,0,0,1,.62.27.47.47,0,0,1-.27.62c-1.85.73-4.76,2.52-3.95,4.58a4.31,4.31,0,0,0,.66,1c.17.22.34.44.49.68a4.72,4.72,0,0,1-.09,5.07A.48.48,0,0,1,251.1,59.76Z" fill="#d1d3d4"></path><path d="M199.12,62.76a.47.47,0,0,1-.42-.25,9.9,9.9,0,0,1-.84-7.1.48.48,0,0,1,.59-.35.49.49,0,0,1,.34.59,8.92,8.92,0,0,0,.75,6.41.47.47,0,0,1-.2.64A.46.46,0,0,1,199.12,62.76Z" fill="#d1d3d4"></path><path d="M152.87,106.17a.48.48,0,0,1-.43-.26.48.48,0,0,1,.21-.64,10.61,10.61,0,0,1,8.23-.53.47.47,0,0,1,.29.61.48.48,0,0,1-.61.29,9.81,9.81,0,0,0-7.48.48A.54.54,0,0,1,152.87,106.17Z" fill="#d1d3d4"></path><path d="M267.05,90.68a.48.48,0,0,1-.47-.38.49.49,0,0,1,.37-.57l8.41-1.86a.49.49,0,0,1,.57.37.49.49,0,0,1-.37.57l-8.4,1.86Z" fill="#d1d3d4"></path><path d="M220.32,90.23a7,7,0,0,1-3.73-1.11,6.84,6.84,0,0,1-3.07-4.18.49.49,0,0,1,.37-.57.48.48,0,0,1,.57.36,6.09,6.09,0,0,0,7,4.41.49.49,0,0,1,.58.36.48.48,0,0,1-.36.58A6.32,6.32,0,0,1,220.32,90.23Z" fill="#d1d3d4"></path><path d="M304.86,101.64a.49.49,0,0,1-.2,0,.47.47,0,0,1-.23-.63,13.21,13.21,0,0,1,5.31-5.81.49.49,0,0,1,.66.18.48.48,0,0,1-.18.65,12.25,12.25,0,0,0-4.92,5.38A.49.49,0,0,1,304.86,101.64Z" fill="#d1d3d4"></path><path d="M333.49,186.49a.48.48,0,0,1-.27-.88,7.27,7.27,0,0,1,7.37-.34.48.48,0,0,1-.46.84,6.31,6.31,0,0,0-6.38.29A.43.43,0,0,1,333.49,186.49Z" fill="#d1d3d4"></path><path d="M74,237.53a.43.43,0,0,1-.19,0A7.26,7.26,0,0,0,69,237.1a.48.48,0,0,1-.24-.93,8.24,8.24,0,0,1,5.38.45.48.48,0,0,1-.2.91Z" fill="#d1d3d4"></path><path d="M328.29,233.9l-.15,0a.47.47,0,0,1-.3-.6A10.61,10.61,0,0,1,330,229a4.54,4.54,0,0,1,4.17-1.41,6.73,6.73,0,0,1,4.44-2.86.48.48,0,0,1,.55.4.49.49,0,0,1-.41.54,5.75,5.75,0,0,0-3.69,2.3,3.17,3.17,0,0,1,1.36,2.19,2.42,2.42,0,0,1-.78,2.23,1.93,1.93,0,0,1-1.45.43,1.31,1.31,0,0,1-.93-.54,1.91,1.91,0,0,1-.28-1.17,6.22,6.22,0,0,1,.67-2.64,3.69,3.69,0,0,0-3,1.19,9.93,9.93,0,0,0-2,3.9A.49.49,0,0,1,328.29,233.9Zm6.3-5.11a5.43,5.43,0,0,0-.63,2.36,1.14,1.14,0,0,0,.11.59.35.35,0,0,0,.28.14,1,1,0,0,0,.7-.21,1.49,1.49,0,0,0,.45-1.37A2.25,2.25,0,0,0,334.59,228.79Z" fill="#d1d3d4"></path><path d="M256.21,127.15a.48.48,0,0,1-.46-.35c-.31-1.11-.71-2.33-1.65-2.78a4.29,4.29,0,0,0-1.52-.25,9.1,9.1,0,0,1-1.05-.08,4.55,4.55,0,0,1-3.6-5.14.49.49,0,0,1,.56-.38.48.48,0,0,1,.38.56,3.44,3.44,0,0,0,.61,2.56,3.36,3.36,0,0,0,2.2,1.45,7.3,7.3,0,0,0,.93.08,4.69,4.69,0,0,1,1.9.34c1.3.61,1.8,2.07,2.16,3.38a.48.48,0,0,1-.33.59Z" fill="#d1d3d4"></path><path d="M176.32,78.49a11.32,11.32,0,0,1-1.84-.14.49.49,0,0,1-.37-.31,36.1,36.1,0,0,0-2.19-4.93,10.89,10.89,0,0,1-5-.66.47.47,0,0,1-.28-.61.48.48,0,0,1,.62-.28,10,10,0,0,0,4.82.57.48.48,0,0,1,.48.24,36.84,36.84,0,0,1,2.31,5.08,10.84,10.84,0,0,0,4.83-.47.47.47,0,0,1,.6.3.49.49,0,0,1-.3.61A11.78,11.78,0,0,1,176.32,78.49Z" fill="#d1d3d4"></path><path d="M132.71,88.7a2.49,2.49,0,1,1,2.49-2.48A2.49,2.49,0,0,1,132.71,88.7Zm0-4a1.53,1.53,0,1,0,1.53,1.53A1.53,1.53,0,0,0,132.71,84.69Z" fill="#d1d3d4"></path><path d="M346.12,206.35a2.13,2.13,0,1,1,2.13-2.13A2.14,2.14,0,0,1,346.12,206.35Zm0-3.3a1.17,1.17,0,1,0,1.17,1.17A1.17,1.17,0,0,0,346.12,203.05Z" fill="#d1d3d4"></path><path d="M55.31,214.86a2.59,2.59,0,1,1,2.59-2.59A2.59,2.59,0,0,1,55.31,214.86Zm0-4.22a1.64,1.64,0,1,0,1.63,1.63A1.64,1.64,0,0,0,55.31,210.64Z" fill="#d1d3d4"></path><path d="M56.72,171.57a.47.47,0,0,1-.45-.34,5.12,5.12,0,0,0-2.21-2.35c-.34-.24-.68-.48-1-.74A4.3,4.3,0,0,1,51.42,165a2.08,2.08,0,0,1,.79-1.7.48.48,0,1,1,.59.75,1.17,1.17,0,0,0-.43.95,3.44,3.44,0,0,0,1.3,2.4c.29.24.62.47.94.7A5.83,5.83,0,0,1,57.18,171a.48.48,0,0,1-.32.6Z" fill="#d1d3d4"></path><path d="M176,128.05a.47.47,0,0,1-.43-.27.49.49,0,0,1,.22-.64,6.31,6.31,0,0,0,3.21-7.22.49.49,0,0,1,.33-.6.48.48,0,0,1,.59.33,7.29,7.29,0,0,1-3.71,8.35A.54.54,0,0,1,176,128.05Z" fill="#d1d3d4"></path><path d="M351.39,158a.48.48,0,0,1-.47-.43,2.81,2.81,0,0,0-1.1-1.88,2.77,2.77,0,0,0-2.08-.61.48.48,0,0,1-.14-1,3.77,3.77,0,0,1,2.81.81,3.74,3.74,0,0,1,1.46,2.53.48.48,0,0,1-.43.52Z" fill="#d1d3d4"></path><path d="M92.06,255.58l-.13,0a.47.47,0,0,1-.33-.59,7.69,7.69,0,0,1,6.48-5.47.47.47,0,0,1,.53.42.48.48,0,0,1-.43.53,6.72,6.72,0,0,0-5.66,4.78A.48.48,0,0,1,92.06,255.58Z" fill="#d1d3d4"></path><path d="M246.84,84.46A3.46,3.46,0,1,1,250.3,81,3.47,3.47,0,0,1,246.84,84.46Zm0-6a2.51,2.51,0,1,0,2.5,2.51A2.51,2.51,0,0,0,246.84,78.49Z" fill="#d1d3d4"></path></g></svg>